<svg width="296" height="83" viewBox="0 0 296 83" fill="none" xmlns="http://www.w3.org/2000/svg">
<rect x="1.5" y="12.5" width="282" height="69" stroke="#2E2E2E" stroke-width="3"/>
<rect width="284" height="71" transform="translate(11.5)" fill="#2E2E2E"/>
<path d="M59.6279 31.3252C59.3994 31.2139 59.0977 31.0879 58.7227 30.9473C58.3477 30.8066 57.9229 30.6748 57.4482 30.5518C56.9736 30.4229 56.458 30.3174 55.9014 30.2354C55.3447 30.1475 54.7734 30.1035 54.1875 30.1035C53.7188 30.1035 53.3174 30.1182 52.9834 30.1475C52.6553 30.1768 52.377 30.2148 52.1484 30.2617C51.9258 30.3086 51.7471 30.3643 51.6123 30.4287C51.4834 30.4873 51.3838 30.5488 51.3135 30.6133C51.2432 30.6777 51.1963 30.7422 51.1729 30.8066C51.1553 30.8711 51.1465 30.9297 51.1465 30.9824C51.1465 31.1582 51.2344 31.3135 51.4102 31.4482C51.5859 31.5771 51.8262 31.6943 52.1309 31.7998C52.4355 31.8994 52.79 31.9961 53.1943 32.0898C53.5986 32.1777 54.0264 32.2715 54.4775 32.3711C54.9346 32.4648 55.4033 32.5703 55.8838 32.6875C56.3701 32.7988 56.8389 32.9307 57.29 33.083C57.7471 33.2354 58.1777 33.4141 58.582 33.6191C58.9863 33.8184 59.3408 34.0527 59.6455 34.3223C59.9502 34.5918 60.1904 34.9023 60.3662 35.2539C60.542 35.6055 60.6299 36.0068 60.6299 36.458C60.6299 37.0381 60.5273 37.5361 60.3223 37.9521C60.1172 38.3682 59.8418 38.7197 59.4961 39.0068C59.1562 39.2939 58.7607 39.5254 58.3096 39.7012C57.8584 39.8711 57.3838 40.0029 56.8857 40.0967C56.3936 40.1904 55.8926 40.252 55.3828 40.2812C54.8789 40.3105 54.3984 40.3252 53.9414 40.3252C52.7461 40.3252 51.6387 40.2256 50.6191 40.0264C49.6055 39.833 48.709 39.5898 47.9297 39.2969V36.4141C48.7324 36.8594 49.6465 37.208 50.6719 37.46C51.7031 37.7119 52.8047 37.8379 53.9766 37.8379C54.668 37.8379 55.2305 37.8027 55.6641 37.7324C56.1035 37.6562 56.4463 37.5625 56.6924 37.4512C56.9385 37.334 57.1055 37.208 57.1934 37.0732C57.2812 36.9385 57.3252 36.8096 57.3252 36.6865C57.3252 36.4932 57.2373 36.3262 57.0615 36.1855C56.8857 36.0391 56.6455 35.9131 56.3408 35.8076C56.0361 35.6963 55.6816 35.5967 55.2773 35.5088C54.873 35.415 54.4424 35.3242 53.9854 35.2363C53.5342 35.1426 53.0684 35.043 52.5879 34.9375C52.1074 34.832 51.6387 34.709 51.1816 34.5684C50.7305 34.4219 50.3027 34.2549 49.8984 34.0674C49.4941 33.874 49.1396 33.6484 48.835 33.3906C48.5303 33.127 48.29 32.8252 48.1143 32.4854C47.9385 32.1396 47.8506 31.7412 47.8506 31.29C47.8506 30.7568 47.9443 30.2969 48.1318 29.9102C48.3193 29.5234 48.5713 29.1953 48.8877 28.9258C49.21 28.6504 49.5791 28.4277 49.9951 28.2578C50.417 28.0879 50.8594 27.9561 51.3223 27.8623C51.7852 27.7686 52.2539 27.7041 52.7285 27.6689C53.2031 27.6338 53.6543 27.6162 54.082 27.6162C54.5508 27.6162 55.0312 27.6396 55.5234 27.6865C56.0215 27.7334 56.5107 27.8008 56.9912 27.8887C57.4717 27.9707 57.9346 28.0674 58.3799 28.1787C58.8311 28.29 59.2471 28.4072 59.6279 28.5303V31.3252ZM63.7236 40V27.9238H75.9492V30.499H67.0723V32.4941H75.4922V35.0693H67.0723V37.4248H76.0723V40H63.7236ZM90.6357 40L82.4883 31.7031V40H79.2275V27.9238H82.7695L90.9258 36.2559V27.9238H94.1689V40H90.6357ZM112.74 33.9531C112.74 34.7266 112.655 35.415 112.485 36.0186C112.315 36.6162 112.075 37.1377 111.765 37.583C111.46 38.0283 111.091 38.4062 110.657 38.7168C110.229 39.0273 109.752 39.2764 109.225 39.4639C108.697 39.6514 108.129 39.7891 107.52 39.877C106.91 39.959 106.274 40 105.612 40H97.9482V27.9238H105.595C106.257 27.9238 106.893 27.9678 107.502 28.0557C108.111 28.1377 108.68 28.2725 109.207 28.46C109.74 28.6475 110.224 28.8965 110.657 29.207C111.091 29.5117 111.46 29.8896 111.765 30.3408C112.075 30.7861 112.315 31.3076 112.485 31.9053C112.655 32.5029 112.74 33.1855 112.74 33.9531ZM109.453 33.9531C109.453 33.373 109.377 32.8691 109.225 32.4414C109.078 32.0137 108.838 31.6621 108.504 31.3867C108.176 31.1055 107.745 30.8975 107.212 30.7627C106.679 30.6221 106.028 30.5518 105.261 30.5518H101.209V37.3721H105.261C106.028 37.3721 106.679 37.3047 107.212 37.1699C107.745 37.0293 108.176 36.8184 108.504 36.5371C108.838 36.25 109.078 35.8926 109.225 35.4648C109.377 35.0371 109.453 34.5332 109.453 33.9531ZM137.842 40V31.5186L133.359 40H130.23L125.748 31.5186V40H122.487V27.9238H126.917L131.795 37.0645L136.673 27.9238H141.085V40H137.842ZM144.864 40V27.9238H157.09V30.499H148.213V32.4941H156.633V35.0693H148.213V37.4248H157.213V40H144.864ZM171.495 31.3252C171.267 31.2139 170.965 31.0879 170.59 30.9473C170.215 30.8066 169.79 30.6748 169.315 30.5518C168.841 30.4229 168.325 30.3174 167.769 30.2354C167.212 30.1475 166.641 30.1035 166.055 30.1035C165.586 30.1035 165.185 30.1182 164.851 30.1475C164.522 30.1768 164.244 30.2148 164.016 30.2617C163.793 30.3086 163.614 30.3643 163.479 30.4287C163.351 30.4873 163.251 30.5488 163.181 30.6133C163.11 30.6777 163.063 30.7422 163.04 30.8066C163.022 30.8711 163.014 30.9297 163.014 30.9824C163.014 31.1582 163.102 31.3135 163.277 31.4482C163.453 31.5771 163.693 31.6943 163.998 31.7998C164.303 31.8994 164.657 31.9961 165.062 32.0898C165.466 32.1777 165.894 32.2715 166.345 32.3711C166.802 32.4648 167.271 32.5703 167.751 32.6875C168.237 32.7988 168.706 32.9307 169.157 33.083C169.614 33.2354 170.045 33.4141 170.449 33.6191C170.854 33.8184 171.208 34.0527 171.513 34.3223C171.817 34.5918 172.058 34.9023 172.233 35.2539C172.409 35.6055 172.497 36.0068 172.497 36.458C172.497 37.0381 172.395 37.5361 172.189 37.9521C171.984 38.3682 171.709 38.7197 171.363 39.0068C171.023 39.2939 170.628 39.5254 170.177 39.7012C169.726 39.8711 169.251 40.0029 168.753 40.0967C168.261 40.1904 167.76 40.252 167.25 40.2812C166.746 40.3105 166.266 40.3252 165.809 40.3252C164.613 40.3252 163.506 40.2256 162.486 40.0264C161.473 39.833 160.576 39.5898 159.797 39.2969V36.4141C160.6 36.8594 161.514 37.208 162.539 37.46C163.57 37.7119 164.672 37.8379 165.844 37.8379C166.535 37.8379 167.098 37.8027 167.531 37.7324C167.971 37.6562 168.313 37.5625 168.56 37.4512C168.806 37.334 168.973 37.208 169.061 37.0732C169.148 36.9385 169.192 36.8096 169.192 36.6865C169.192 36.4932 169.104 36.3262 168.929 36.1855C168.753 36.0391 168.513 35.9131 168.208 35.8076C167.903 35.6963 167.549 35.5967 167.145 35.5088C166.74 35.415 166.31 35.3242 165.853 35.2363C165.401 35.1426 164.936 35.043 164.455 34.9375C163.975 34.832 163.506 34.709 163.049 34.5684C162.598 34.4219 162.17 34.2549 161.766 34.0674C161.361 33.874 161.007 33.6484 160.702 33.3906C160.397 33.127 160.157 32.8252 159.981 32.4854C159.806 32.1396 159.718 31.7412 159.718 31.29C159.718 30.7568 159.812 30.2969 159.999 29.9102C160.187 29.5234 160.438 29.1953 160.755 28.9258C161.077 28.6504 161.446 28.4277 161.862 28.2578C162.284 28.0879 162.727 27.9561 163.189 27.8623C163.652 27.7686 164.121 27.7041 164.596 27.6689C165.07 27.6338 165.521 27.6162 165.949 27.6162C166.418 27.6162 166.898 27.6396 167.391 27.6865C167.889 27.7334 168.378 27.8008 168.858 27.8887C169.339 27.9707 169.802 28.0674 170.247 28.1787C170.698 28.29 171.114 28.4072 171.495 28.5303V31.3252ZM186.718 31.3252C186.489 31.2139 186.188 31.0879 185.812 30.9473C185.438 30.8066 185.013 30.6748 184.538 30.5518C184.063 30.4229 183.548 30.3174 182.991 30.2354C182.435 30.1475 181.863 30.1035 181.277 30.1035C180.809 30.1035 180.407 30.1182 180.073 30.1475C179.745 30.1768 179.467 30.2148 179.238 30.2617C179.016 30.3086 178.837 30.3643 178.702 30.4287C178.573 30.4873 178.474 30.5488 178.403 30.6133C178.333 30.6777 178.286 30.7422 178.263 30.8066C178.245 30.8711 178.236 30.9297 178.236 30.9824C178.236 31.1582 178.324 31.3135 178.5 31.4482C178.676 31.5771 178.916 31.6943 179.221 31.7998C179.525 31.8994 179.88 31.9961 180.284 32.0898C180.688 32.1777 181.116 32.2715 181.567 32.3711C182.024 32.4648 182.493 32.5703 182.974 32.6875C183.46 32.7988 183.929 32.9307 184.38 33.083C184.837 33.2354 185.268 33.4141 185.672 33.6191C186.076 33.8184 186.431 34.0527 186.735 34.3223C187.04 34.5918 187.28 34.9023 187.456 35.2539C187.632 35.6055 187.72 36.0068 187.72 36.458C187.72 37.0381 187.617 37.5361 187.412 37.9521C187.207 38.3682 186.932 38.7197 186.586 39.0068C186.246 39.2939 185.851 39.5254 185.399 39.7012C184.948 39.8711 184.474 40.0029 183.976 40.0967C183.483 40.1904 182.982 40.252 182.473 40.2812C181.969 40.3105 181.488 40.3252 181.031 40.3252C179.836 40.3252 178.729 40.2256 177.709 40.0264C176.695 39.833 175.799 39.5898 175.02 39.2969V36.4141C175.822 36.8594 176.736 37.208 177.762 37.46C178.793 37.7119 179.895 37.8379 181.066 37.8379C181.758 37.8379 182.32 37.8027 182.754 37.7324C183.193 37.6562 183.536 37.5625 183.782 37.4512C184.028 37.334 184.195 37.208 184.283 37.0732C184.371 36.9385 184.415 36.8096 184.415 36.6865C184.415 36.4932 184.327 36.3262 184.151 36.1855C183.976 36.0391 183.735 35.9131 183.431 35.8076C183.126 35.6963 182.771 35.5967 182.367 35.5088C181.963 35.415 181.532 35.3242 181.075 35.2363C180.624 35.1426 180.158 35.043 179.678 34.9375C179.197 34.832 178.729 34.709 178.271 34.5684C177.82 34.4219 177.393 34.2549 176.988 34.0674C176.584 33.874 176.229 33.6484 175.925 33.3906C175.62 33.127 175.38 32.8252 175.204 32.4854C175.028 32.1396 174.94 31.7412 174.94 31.29C174.94 30.7568 175.034 30.2969 175.222 29.9102C175.409 29.5234 175.661 29.1953 175.978 28.9258C176.3 28.6504 176.669 28.4277 177.085 28.2578C177.507 28.0879 177.949 27.9561 178.412 27.8623C178.875 27.7686 179.344 27.7041 179.818 27.6689C180.293 27.6338 180.744 27.6162 181.172 27.6162C181.641 27.6162 182.121 27.6396 182.613 27.6865C183.111 27.7334 183.601 27.8008 184.081 27.8887C184.562 27.9707 185.024 28.0674 185.47 28.1787C185.921 28.29 186.337 28.4072 186.718 28.5303V31.3252ZM200.517 37.7148H193.784L192.65 40H189.012L195.331 27.9238H198.97L205.289 40H201.65L200.517 37.7148ZM194.953 35.3594H199.365L197.168 30.9121L194.953 35.3594ZM214.869 27.6162C216.053 27.6162 217.151 27.7188 218.165 27.9238C219.185 28.123 220.119 28.3809 220.969 28.6973V31.6504C220.635 31.4629 220.257 31.2812 219.835 31.1055C219.419 30.9297 218.965 30.7744 218.473 30.6396C217.98 30.5049 217.453 30.3965 216.891 30.3145C216.328 30.2324 215.736 30.1914 215.115 30.1914C214.342 30.1914 213.668 30.2471 213.094 30.3584C212.52 30.4697 212.027 30.6191 211.617 30.8066C211.207 30.9941 210.87 31.2139 210.606 31.4658C210.343 31.7119 210.135 31.9756 209.982 32.2568C209.83 32.5381 209.725 32.8252 209.666 33.1182C209.607 33.4111 209.578 33.6953 209.578 33.9707C209.578 34.2109 209.602 34.4717 209.648 34.7529C209.701 35.0342 209.795 35.3154 209.93 35.5967C210.07 35.8779 210.264 36.1475 210.51 36.4053C210.756 36.6631 211.075 36.8916 211.468 37.0908C211.866 37.29 212.344 37.4512 212.9 37.5742C213.457 37.6914 214.119 37.75 214.887 37.75C215.273 37.75 215.61 37.7383 215.897 37.7148C216.185 37.6914 216.445 37.6592 216.68 37.6182C216.92 37.5771 217.143 37.5273 217.348 37.4688C217.559 37.4102 217.775 37.3486 217.998 37.2842V35.8252H214.342V33.1797H221.259V39.3496C220.825 39.4961 220.339 39.6309 219.8 39.7539C219.267 39.8711 218.713 39.9707 218.139 40.0527C217.57 40.1406 216.999 40.208 216.425 40.2549C215.851 40.3018 215.309 40.3252 214.799 40.3252C214.008 40.3252 213.249 40.2725 212.522 40.167C211.796 40.0615 211.116 39.9004 210.483 39.6836C209.856 39.4609 209.282 39.1797 208.761 38.8398C208.245 38.5 207.803 38.0957 207.434 37.627C207.07 37.1582 206.786 36.6221 206.581 36.0186C206.382 35.4092 206.282 34.7266 206.282 33.9707C206.282 33.2207 206.388 32.541 206.599 31.9316C206.81 31.3223 207.103 30.7832 207.478 30.3145C207.858 29.8457 208.312 29.4414 208.84 29.1016C209.373 28.7617 209.956 28.4834 210.589 28.2666C211.228 28.0439 211.907 27.8799 212.628 27.7744C213.354 27.6689 214.102 27.6162 214.869 27.6162ZM224.774 40V27.9238H237V30.499H228.123V32.4941H236.543V35.0693H228.123V37.4248H237.123V40H224.774Z" fill="white"/>
<path d="M247.5 29H260.5M260.5 29V42M260.5 29L248.5 41" stroke="#FFF969" stroke-width="2"/>
</svg>
