<svg width="253" height="83" viewBox="0 0 253 83" fill="none" xmlns="http://www.w3.org/2000/svg">
<rect x="1.75" y="12.5" width="240" height="69" stroke="#2E2E2E" stroke-width="3"/>
<rect width="240" height="71" transform="translate(12.75)" fill="#2E2E2E"/>
<path d="M65.1924 40V31.5186L60.71 40H57.5811L53.0986 31.5186V40H49.8379V27.9238H54.2676L59.1455 37.0645L64.0234 27.9238H68.4355V40H65.1924ZM87.8418 33.9707C87.8418 35.0078 87.6514 35.9248 87.2705 36.7217C86.8896 37.5127 86.3447 38.1748 85.6357 38.708C84.9268 39.2412 84.0654 39.6455 83.0518 39.9209C82.0439 40.1904 80.9102 40.3252 79.6504 40.3252C78.3906 40.3252 77.251 40.1904 76.2314 39.9209C75.2178 39.6455 74.3535 39.2412 73.6387 38.708C72.9238 38.1748 72.373 37.5127 71.9863 36.7217C71.5996 35.9248 71.4062 35.0078 71.4062 33.9707C71.4062 32.9336 71.5996 32.0195 71.9863 31.2285C72.373 30.4316 72.9238 29.7666 73.6387 29.2334C74.3535 28.7002 75.2178 28.2988 76.2314 28.0293C77.251 27.7539 78.3906 27.6162 79.6504 27.6162C80.9102 27.6162 82.0439 27.7539 83.0518 28.0293C84.0654 28.2988 84.9268 28.7002 85.6357 29.2334C86.3447 29.7666 86.8896 30.4316 87.2705 31.2285C87.6514 32.0195 87.8418 32.9336 87.8418 33.9707ZM84.5459 33.9707C84.5459 33.5195 84.4727 33.0713 84.3262 32.626C84.1855 32.1748 83.9307 31.7705 83.5615 31.4131C83.1982 31.0557 82.7002 30.7656 82.0674 30.543C81.4346 30.3203 80.6289 30.209 79.6504 30.209C78.9941 30.209 78.417 30.2617 77.9189 30.3672C77.4209 30.4668 76.9902 30.6074 76.627 30.7891C76.2637 30.9707 75.959 31.1846 75.7129 31.4307C75.4668 31.6709 75.2705 31.9316 75.124 32.2129C74.9775 32.4883 74.8721 32.7783 74.8076 33.083C74.749 33.3818 74.7197 33.6777 74.7197 33.9707C74.7197 34.2695 74.749 34.5713 74.8076 34.876C74.8721 35.1807 74.9775 35.4736 75.124 35.7549C75.2705 36.0303 75.4668 36.2881 75.7129 36.5283C75.959 36.7686 76.2637 36.9795 76.627 37.1611C76.9902 37.3369 77.4209 37.4775 77.9189 37.583C78.417 37.6826 78.9941 37.7324 79.6504 37.7324C80.6289 37.7324 81.4346 37.6211 82.0674 37.3984C82.7002 37.1758 83.1982 36.8857 83.5615 36.5283C83.9307 36.1709 84.1855 35.7695 84.3262 35.3242C84.4727 34.873 84.5459 34.4219 84.5459 33.9707ZM94.0732 40H90.8125V27.9238H98.9863C99.8652 27.9238 100.609 28.0146 101.219 28.1963C101.834 28.3779 102.332 28.6357 102.713 28.9697C103.1 29.3037 103.378 29.708 103.548 30.1826C103.724 30.6514 103.812 31.1758 103.812 31.7559C103.812 32.2656 103.738 32.7109 103.592 33.0918C103.451 33.4727 103.258 33.8008 103.012 34.0762C102.771 34.3457 102.49 34.5742 102.168 34.7617C101.846 34.9492 101.506 35.1045 101.148 35.2275L105.104 40H101.289L97.6328 35.5527H94.0732V40ZM100.516 31.7383C100.516 31.5039 100.483 31.3047 100.419 31.1406C100.36 30.9766 100.255 30.8447 100.103 30.7451C99.9502 30.6396 99.7451 30.5635 99.4873 30.5166C99.2354 30.4697 98.9189 30.4463 98.5381 30.4463H94.0732V33.0303H98.5381C98.9189 33.0303 99.2354 33.0068 99.4873 32.96C99.7451 32.9131 99.9502 32.8398 100.103 32.7402C100.255 32.6348 100.36 32.5 100.419 32.3359C100.483 32.1719 100.516 31.9727 100.516 31.7383ZM107.441 40V27.9238H119.667V30.499H110.79V32.4941H119.21V35.0693H110.79V37.4248H119.79V40H107.441ZM143.485 36.6689C143.485 37.1377 143.424 37.5449 143.301 37.8906C143.178 38.2363 143.005 38.5352 142.782 38.7871C142.565 39.0332 142.302 39.2354 141.991 39.3936C141.687 39.5459 141.347 39.6689 140.972 39.7627C140.603 39.8506 140.207 39.9121 139.785 39.9473C139.363 39.9824 138.927 40 138.476 40H129.713V27.9238H138.317C138.663 27.9238 139.009 27.9385 139.354 27.9678C139.706 27.9971 140.04 28.0527 140.356 28.1348C140.673 28.2109 140.966 28.3193 141.235 28.46C141.511 28.6006 141.748 28.7852 141.947 29.0137C142.152 29.2422 142.311 29.5176 142.422 29.8398C142.539 30.1621 142.598 30.543 142.598 30.9824C142.598 31.7676 142.404 32.3916 142.018 32.8545C141.631 33.3115 141.021 33.6162 140.189 33.7686C140.775 33.8096 141.276 33.9004 141.692 34.041C142.114 34.1758 142.457 34.3633 142.721 34.6035C142.984 34.8379 143.178 35.1279 143.301 35.4736C143.424 35.8135 143.485 36.2119 143.485 36.6689ZM139.416 31.501C139.416 31.3486 139.393 31.2051 139.346 31.0703C139.299 30.9297 139.214 30.8066 139.091 30.7012C138.968 30.5957 138.801 30.5107 138.59 30.4463C138.379 30.3818 138.109 30.3496 137.781 30.3496H132.974V32.6172H137.781C138.109 32.6172 138.379 32.5879 138.59 32.5293C138.801 32.4707 138.968 32.3916 139.091 32.292C139.214 32.1924 139.299 32.0752 139.346 31.9404C139.393 31.7998 139.416 31.6533 139.416 31.501ZM140.172 36.291C140.172 36.0156 140.125 35.7959 140.031 35.6318C139.938 35.4619 139.791 35.333 139.592 35.2451C139.393 35.1514 139.135 35.0898 138.818 35.0605C138.502 35.0312 138.124 35.0166 137.685 35.0166H132.974V37.5742H137.685C138.124 37.5742 138.502 37.5596 138.818 37.5303C139.135 37.501 139.393 37.4395 139.592 37.3457C139.791 37.252 139.938 37.123 140.031 36.959C140.125 36.7891 140.172 36.5664 140.172 36.291ZM146.465 40V27.9238H149.726V37.3545H158.541V40H146.465ZM176.787 33.9707C176.787 35.0078 176.597 35.9248 176.216 36.7217C175.835 37.5127 175.29 38.1748 174.581 38.708C173.872 39.2412 173.011 39.6455 171.997 39.9209C170.989 40.1904 169.855 40.3252 168.596 40.3252C167.336 40.3252 166.196 40.1904 165.177 39.9209C164.163 39.6455 163.299 39.2412 162.584 38.708C161.869 38.1748 161.318 37.5127 160.932 36.7217C160.545 35.9248 160.352 35.0078 160.352 33.9707C160.352 32.9336 160.545 32.0195 160.932 31.2285C161.318 30.4316 161.869 29.7666 162.584 29.2334C163.299 28.7002 164.163 28.2988 165.177 28.0293C166.196 27.7539 167.336 27.6162 168.596 27.6162C169.855 27.6162 170.989 27.7539 171.997 28.0293C173.011 28.2988 173.872 28.7002 174.581 29.2334C175.29 29.7666 175.835 30.4316 176.216 31.2285C176.597 32.0195 176.787 32.9336 176.787 33.9707ZM173.491 33.9707C173.491 33.5195 173.418 33.0713 173.271 32.626C173.131 32.1748 172.876 31.7705 172.507 31.4131C172.144 31.0557 171.646 30.7656 171.013 30.543C170.38 30.3203 169.574 30.209 168.596 30.209C167.939 30.209 167.362 30.2617 166.864 30.3672C166.366 30.4668 165.936 30.6074 165.572 30.7891C165.209 30.9707 164.904 31.1846 164.658 31.4307C164.412 31.6709 164.216 31.9316 164.069 32.2129C163.923 32.4883 163.817 32.7783 163.753 33.083C163.694 33.3818 163.665 33.6777 163.665 33.9707C163.665 34.2695 163.694 34.5713 163.753 34.876C163.817 35.1807 163.923 35.4736 164.069 35.7549C164.216 36.0303 164.412 36.2881 164.658 36.5283C164.904 36.7686 165.209 36.9795 165.572 37.1611C165.936 37.3369 166.366 37.4775 166.864 37.583C167.362 37.6826 167.939 37.7324 168.596 37.7324C169.574 37.7324 170.38 37.6211 171.013 37.3984C171.646 37.1758 172.144 36.8857 172.507 36.5283C172.876 36.1709 173.131 35.7695 173.271 35.3242C173.418 34.873 173.491 34.4219 173.491 33.9707ZM187.536 27.6162C188.72 27.6162 189.818 27.7188 190.832 27.9238C191.852 28.123 192.786 28.3809 193.636 28.6973V31.6504C193.302 31.4629 192.924 31.2812 192.502 31.1055C192.086 30.9297 191.632 30.7744 191.14 30.6396C190.647 30.5049 190.12 30.3965 189.558 30.3145C188.995 30.2324 188.403 30.1914 187.782 30.1914C187.009 30.1914 186.335 30.2471 185.761 30.3584C185.187 30.4697 184.694 30.6191 184.284 30.8066C183.874 30.9941 183.537 31.2139 183.273 31.4658C183.01 31.7119 182.802 31.9756 182.649 32.2568C182.497 32.5381 182.392 32.8252 182.333 33.1182C182.274 33.4111 182.245 33.6953 182.245 33.9707C182.245 34.2109 182.269 34.4717 182.315 34.7529C182.368 35.0342 182.462 35.3154 182.597 35.5967C182.737 35.8779 182.931 36.1475 183.177 36.4053C183.423 36.6631 183.742 36.8916 184.135 37.0908C184.533 37.29 185.011 37.4512 185.567 37.5742C186.124 37.6914 186.786 37.75 187.554 37.75C187.94 37.75 188.277 37.7383 188.564 37.7148C188.852 37.6914 189.112 37.6592 189.347 37.6182C189.587 37.5771 189.81 37.5273 190.015 37.4688C190.226 37.4102 190.442 37.3486 190.665 37.2842V35.8252H187.009V33.1797H193.926V39.3496C193.492 39.4961 193.006 39.6309 192.467 39.7539C191.934 39.8711 191.38 39.9707 190.806 40.0527C190.237 40.1406 189.666 40.208 189.092 40.2549C188.518 40.3018 187.976 40.3252 187.466 40.3252C186.675 40.3252 185.916 40.2725 185.189 40.167C184.463 40.0615 183.783 39.9004 183.15 39.6836C182.523 39.4609 181.949 39.1797 181.428 38.8398C180.912 38.5 180.47 38.0957 180.101 37.627C179.737 37.1582 179.453 36.6221 179.248 36.0186C179.049 35.4092 178.949 34.7266 178.949 33.9707C178.949 33.2207 179.055 32.541 179.266 31.9316C179.477 31.3223 179.77 30.7832 180.145 30.3145C180.525 29.8457 180.979 29.4414 181.507 29.1016C182.04 28.7617 182.623 28.4834 183.256 28.2666C183.895 28.0439 184.574 27.8799 185.295 27.7744C186.021 27.6689 186.769 27.6162 187.536 27.6162Z" fill="white"/>
<path d="M204.75 29H217.75M217.75 29V42M217.75 29L205.75 41" stroke="#FFF969" stroke-width="2"/>
</svg>
