<svg width="295" height="84" viewBox="0 0 295 84" fill="none" xmlns="http://www.w3.org/2000/svg">
<rect x="1.5" y="13.5" width="282" height="69" fill="white" stroke="#2E2E2E" stroke-width="3"/>
<rect width="283" height="71" transform="translate(12 0.5)" fill="#2E2E2E"/>
<path d="M58.7842 38.2148H52.0518L50.918 40.5H47.2793L53.5986 28.4238H57.2373L63.5566 40.5H59.918L58.7842 38.2148ZM53.2207 35.8594H57.6328L55.4355 31.4121L53.2207 35.8594ZM79.3066 37.1689C79.3066 37.6377 79.2451 38.0449 79.1221 38.3906C78.999 38.7363 78.8262 39.0352 78.6035 39.2871C78.3867 39.5332 78.123 39.7354 77.8125 39.8936C77.5078 40.0459 77.168 40.1689 76.793 40.2627C76.4238 40.3506 76.0283 40.4121 75.6064 40.4473C75.1846 40.4824 74.748 40.5 74.2969 40.5H65.5342V28.4238H74.1387C74.4844 28.4238 74.8301 28.4385 75.1758 28.4678C75.5273 28.4971 75.8613 28.5527 76.1777 28.6348C76.4941 28.7109 76.7871 28.8193 77.0566 28.96C77.332 29.1006 77.5693 29.2852 77.7686 29.5137C77.9736 29.7422 78.1318 30.0176 78.2432 30.3398C78.3604 30.6621 78.4189 31.043 78.4189 31.4824C78.4189 32.2676 78.2256 32.8916 77.8389 33.3545C77.4521 33.8115 76.8428 34.1162 76.0107 34.2686C76.5967 34.3096 77.0977 34.4004 77.5137 34.541C77.9355 34.6758 78.2783 34.8633 78.542 35.1035C78.8057 35.3379 78.999 35.6279 79.1221 35.9736C79.2451 36.3135 79.3066 36.7119 79.3066 37.1689ZM75.2373 32.001C75.2373 31.8486 75.2139 31.7051 75.167 31.5703C75.1201 31.4297 75.0352 31.3066 74.9121 31.2012C74.7891 31.0957 74.6221 31.0107 74.4111 30.9463C74.2002 30.8818 73.9307 30.8496 73.6025 30.8496H68.7949V33.1172H73.6025C73.9307 33.1172 74.2002 33.0879 74.4111 33.0293C74.6221 32.9707 74.7891 32.8916 74.9121 32.792C75.0352 32.6924 75.1201 32.5752 75.167 32.4404C75.2139 32.2998 75.2373 32.1533 75.2373 32.001ZM75.9932 36.791C75.9932 36.5156 75.9463 36.2959 75.8525 36.1318C75.7588 35.9619 75.6123 35.833 75.4131 35.7451C75.2139 35.6514 74.9561 35.5898 74.6396 35.5605C74.3232 35.5312 73.9453 35.5166 73.5059 35.5166H68.7949V38.0742H73.5059C73.9453 38.0742 74.3232 38.0596 74.6396 38.0303C74.9561 38.001 75.2139 37.9395 75.4131 37.8457C75.6123 37.752 75.7588 37.623 75.8525 37.459C75.9463 37.2891 75.9932 37.0664 75.9932 36.791ZM97.9131 34.4707C97.9131 35.5078 97.7227 36.4248 97.3418 37.2217C96.9609 38.0127 96.416 38.6748 95.707 39.208C94.998 39.7412 94.1367 40.1455 93.123 40.4209C92.1152 40.6904 90.9814 40.8252 89.7217 40.8252C88.4619 40.8252 87.3223 40.6904 86.3027 40.4209C85.2891 40.1455 84.4248 39.7412 83.71 39.208C82.9951 38.6748 82.4443 38.0127 82.0576 37.2217C81.6709 36.4248 81.4775 35.5078 81.4775 34.4707C81.4775 33.4336 81.6709 32.5195 82.0576 31.7285C82.4443 30.9316 82.9951 30.2666 83.71 29.7334C84.4248 29.2002 85.2891 28.7988 86.3027 28.5293C87.3223 28.2539 88.4619 28.1162 89.7217 28.1162C90.9814 28.1162 92.1152 28.2539 93.123 28.5293C94.1367 28.7988 94.998 29.2002 95.707 29.7334C96.416 30.2666 96.9609 30.9316 97.3418 31.7285C97.7227 32.5195 97.9131 33.4336 97.9131 34.4707ZM94.6172 34.4707C94.6172 34.0195 94.5439 33.5713 94.3975 33.126C94.2568 32.6748 94.002 32.2705 93.6328 31.9131C93.2695 31.5557 92.7715 31.2656 92.1387 31.043C91.5059 30.8203 90.7002 30.709 89.7217 30.709C89.0654 30.709 88.4883 30.7617 87.9902 30.8672C87.4922 30.9668 87.0615 31.1074 86.6982 31.2891C86.335 31.4707 86.0303 31.6846 85.7842 31.9307C85.5381 32.1709 85.3418 32.4316 85.1953 32.7129C85.0488 32.9883 84.9434 33.2783 84.8789 33.583C84.8203 33.8818 84.791 34.1777 84.791 34.4707C84.791 34.7695 84.8203 35.0713 84.8789 35.376C84.9434 35.6807 85.0488 35.9736 85.1953 36.2549C85.3418 36.5303 85.5381 36.7881 85.7842 37.0283C86.0303 37.2686 86.335 37.4795 86.6982 37.6611C87.0615 37.8369 87.4922 37.9775 87.9902 38.083C88.4883 38.1826 89.0654 38.2324 89.7217 38.2324C90.7002 38.2324 91.5059 38.1211 92.1387 37.8984C92.7715 37.6758 93.2695 37.3857 93.6328 37.0283C94.002 36.6709 94.2568 36.2695 94.3975 35.8242C94.5439 35.373 94.6172 34.9219 94.6172 34.4707ZM115.14 36.4307C115.14 37.0342 114.99 37.6025 114.691 38.1357C114.393 38.6689 113.944 39.1348 113.347 39.5332C112.749 39.9316 112.002 40.248 111.105 40.4824C110.215 40.7109 109.172 40.8252 107.977 40.8252C106.781 40.8252 105.732 40.7109 104.83 40.4824C103.934 40.248 103.187 39.9316 102.589 39.5332C101.991 39.1348 101.543 38.6689 101.244 38.1357C100.945 37.6025 100.796 37.0342 100.796 36.4307V28.4238H104.048V35.2617C104.048 35.666 104.098 36.0498 104.197 36.4131C104.303 36.7705 104.496 37.084 104.777 37.3535C105.064 37.623 105.463 37.8369 105.973 37.9951C106.488 38.1533 107.156 38.2324 107.977 38.2324C108.791 38.2324 109.453 38.1533 109.963 37.9951C110.473 37.8369 110.868 37.623 111.149 37.3535C111.437 37.084 111.63 36.7705 111.729 36.4131C111.829 36.0498 111.879 35.666 111.879 35.2617V28.4238H115.14V36.4307ZM125.599 31.0518V40.5H122.338V31.0518H117.214V28.4238H130.731V31.0518H125.599ZM149.364 38.2148H142.632L141.498 40.5H137.859L144.179 28.4238H147.817L154.137 40.5H150.498L149.364 38.2148ZM143.801 35.8594H148.213L146.016 31.4121L143.801 35.8594ZM163.717 28.1162C164.9 28.1162 165.999 28.2188 167.013 28.4238C168.032 28.623 168.967 28.8809 169.816 29.1973V32.1504C169.482 31.9629 169.104 31.7812 168.683 31.6055C168.267 31.4297 167.812 31.2744 167.32 31.1396C166.828 31.0049 166.301 30.8965 165.738 30.8145C165.176 30.7324 164.584 30.6914 163.963 30.6914C163.189 30.6914 162.516 30.7471 161.941 30.8584C161.367 30.9697 160.875 31.1191 160.465 31.3066C160.055 31.4941 159.718 31.7139 159.454 31.9658C159.19 32.2119 158.982 32.4756 158.83 32.7568C158.678 33.0381 158.572 33.3252 158.514 33.6182C158.455 33.9111 158.426 34.1953 158.426 34.4707C158.426 34.7109 158.449 34.9717 158.496 35.2529C158.549 35.5342 158.643 35.8154 158.777 36.0967C158.918 36.3779 159.111 36.6475 159.357 36.9053C159.604 37.1631 159.923 37.3916 160.315 37.5908C160.714 37.79 161.191 37.9512 161.748 38.0742C162.305 38.1914 162.967 38.25 163.734 38.25C164.121 38.25 164.458 38.2383 164.745 38.2148C165.032 38.1914 165.293 38.1592 165.527 38.1182C165.768 38.0771 165.99 38.0273 166.195 37.9688C166.406 37.9102 166.623 37.8486 166.846 37.7842V36.3252H163.189V33.6797H170.106V39.8496C169.673 39.9961 169.187 40.1309 168.647 40.2539C168.114 40.3711 167.561 40.4707 166.986 40.5527C166.418 40.6406 165.847 40.708 165.272 40.7549C164.698 40.8018 164.156 40.8252 163.646 40.8252C162.855 40.8252 162.097 40.7725 161.37 40.667C160.644 40.5615 159.964 40.4004 159.331 40.1836C158.704 39.9609 158.13 39.6797 157.608 39.3398C157.093 39 156.65 38.5957 156.281 38.127C155.918 37.6582 155.634 37.1221 155.429 36.5186C155.229 35.9092 155.13 35.2266 155.13 34.4707C155.13 33.7207 155.235 33.041 155.446 32.4316C155.657 31.8223 155.95 31.2832 156.325 30.8145C156.706 30.3457 157.16 29.9414 157.688 29.6016C158.221 29.2617 158.804 28.9834 159.437 28.7666C160.075 28.5439 160.755 28.3799 161.476 28.2744C162.202 28.1689 162.949 28.1162 163.717 28.1162ZM173.622 40.5V28.4238H185.848V30.999H176.971V32.9941H185.391V35.5693H176.971V37.9248H185.971V40.5H173.622ZM200.534 40.5L192.387 32.2031V40.5H189.126V28.4238H192.668L200.824 36.7559V28.4238H204.067V40.5H200.534ZM221.153 39.6738C220.731 39.8496 220.307 40.0078 219.879 40.1484C219.451 40.2891 219.009 40.4092 218.552 40.5088C218.095 40.6143 217.611 40.6934 217.102 40.7461C216.598 40.7988 216.056 40.8252 215.476 40.8252C214.245 40.8252 213.111 40.6934 212.074 40.4297C211.043 40.166 210.152 39.7705 209.402 39.2432C208.658 38.71 208.078 38.0479 207.662 37.2568C207.246 36.46 207.038 35.5312 207.038 34.4707C207.038 33.4102 207.246 32.4844 207.662 31.6934C208.078 30.8965 208.658 30.2344 209.402 29.707C210.152 29.1738 211.043 28.7754 212.074 28.5117C213.111 28.248 214.245 28.1162 215.476 28.1162C216.056 28.1162 216.598 28.1426 217.102 28.1953C217.611 28.248 218.095 28.3271 218.552 28.4326C219.009 28.5322 219.451 28.6523 219.879 28.793C220.307 28.9336 220.731 29.0918 221.153 29.2676V32.2031C220.819 32.0215 220.468 31.8428 220.099 31.667C219.729 31.4854 219.322 31.3242 218.877 31.1836C218.432 31.0371 217.942 30.9199 217.409 30.832C216.876 30.7383 216.275 30.6914 215.607 30.6914C214.582 30.6914 213.729 30.7969 213.05 31.0078C212.376 31.2188 211.837 31.5 211.433 31.8516C211.028 32.2031 210.744 32.6074 210.58 33.0645C210.416 33.5156 210.334 33.9844 210.334 34.4707C210.334 34.793 210.369 35.1123 210.439 35.4287C210.51 35.7393 210.627 36.0352 210.791 36.3164C210.955 36.5918 211.169 36.8467 211.433 37.0811C211.696 37.3154 212.024 37.5176 212.417 37.6875C212.81 37.8574 213.267 37.9922 213.788 38.0918C214.315 38.1855 214.922 38.2324 215.607 38.2324C216.275 38.2324 216.876 38.1914 217.409 38.1094C217.942 38.0215 218.432 37.9072 218.877 37.7666C219.322 37.626 219.729 37.4678 220.099 37.292C220.468 37.1104 220.819 36.9258 221.153 36.7383V39.6738ZM231.595 35.5693V40.5H228.343V35.5693L222.489 28.4238H226.146L229.978 33.2842L233.792 28.4238H237.448L231.595 35.5693Z" fill="white"/>
<path d="M247 29.5H260M260 29.5V42.5M260 29.5L248 41.5" stroke="#FFF969" stroke-width="2"/>
</svg>
