<svg width="341" height="83" viewBox="0 0 341 83" fill="none" xmlns="http://www.w3.org/2000/svg">
<rect x="1.625" y="12.5" width="327" height="69" stroke="white" stroke-width="3"/>
<rect width="329" height="71" transform="translate(11.875)" fill="white"/>
<path d="M49.2275 40V27.9238H61.4531V30.499H52.5762V32.4941H60.9961V35.0693H52.5762V37.4248H61.5762V40H49.2275ZM75.8584 31.3252C75.6299 31.2139 75.3281 31.0879 74.9531 30.9473C74.5781 30.8066 74.1533 30.6748 73.6787 30.5518C73.2041 30.4229 72.6885 30.3174 72.1318 30.2354C71.5752 30.1475 71.0039 30.1035 70.418 30.1035C69.9492 30.1035 69.5479 30.1182 69.2139 30.1475C68.8857 30.1768 68.6074 30.2148 68.3789 30.2617C68.1562 30.3086 67.9775 30.3643 67.8428 30.4287C67.7139 30.4873 67.6143 30.5488 67.5439 30.6133C67.4736 30.6777 67.4268 30.7422 67.4033 30.8066C67.3857 30.8711 67.377 30.9297 67.377 30.9824C67.377 31.1582 67.4648 31.3135 67.6406 31.4482C67.8164 31.5771 68.0566 31.6943 68.3613 31.7998C68.666 31.8994 69.0205 31.9961 69.4248 32.0898C69.8291 32.1777 70.2568 32.2715 70.708 32.3711C71.165 32.4648 71.6338 32.5703 72.1143 32.6875C72.6006 32.7988 73.0693 32.9307 73.5205 33.083C73.9775 33.2354 74.4082 33.4141 74.8125 33.6191C75.2168 33.8184 75.5713 34.0527 75.876 34.3223C76.1807 34.5918 76.4209 34.9023 76.5967 35.2539C76.7725 35.6055 76.8604 36.0068 76.8604 36.458C76.8604 37.0381 76.7578 37.5361 76.5527 37.9521C76.3477 38.3682 76.0723 38.7197 75.7266 39.0068C75.3867 39.2939 74.9912 39.5254 74.54 39.7012C74.0889 39.8711 73.6143 40.0029 73.1162 40.0967C72.624 40.1904 72.123 40.252 71.6133 40.2812C71.1094 40.3105 70.6289 40.3252 70.1719 40.3252C68.9766 40.3252 67.8691 40.2256 66.8496 40.0264C65.8359 39.833 64.9395 39.5898 64.1602 39.2969V36.4141C64.9629 36.8594 65.877 37.208 66.9023 37.46C67.9336 37.7119 69.0352 37.8379 70.207 37.8379C70.8984 37.8379 71.4609 37.8027 71.8945 37.7324C72.334 37.6562 72.6768 37.5625 72.9229 37.4512C73.1689 37.334 73.3359 37.208 73.4238 37.0732C73.5117 36.9385 73.5557 36.8096 73.5557 36.6865C73.5557 36.4932 73.4678 36.3262 73.292 36.1855C73.1162 36.0391 72.876 35.9131 72.5713 35.8076C72.2666 35.6963 71.9121 35.5967 71.5078 35.5088C71.1035 35.415 70.6729 35.3242 70.2158 35.2363C69.7646 35.1426 69.2988 35.043 68.8184 34.9375C68.3379 34.832 67.8691 34.709 67.4121 34.5684C66.9609 34.4219 66.5332 34.2549 66.1289 34.0674C65.7246 33.874 65.3701 33.6484 65.0654 33.3906C64.7607 33.127 64.5205 32.8252 64.3447 32.4854C64.1689 32.1396 64.0811 31.7412 64.0811 31.29C64.0811 30.7568 64.1748 30.2969 64.3623 29.9102C64.5498 29.5234 64.8018 29.1953 65.1182 28.9258C65.4404 28.6504 65.8096 28.4277 66.2256 28.2578C66.6475 28.0879 67.0898 27.9561 67.5527 27.8623C68.0156 27.7686 68.4844 27.7041 68.959 27.6689C69.4336 27.6338 69.8848 27.6162 70.3125 27.6162C70.7812 27.6162 71.2617 27.6396 71.7539 27.6865C72.252 27.7334 72.7412 27.8008 73.2217 27.8887C73.7021 27.9707 74.165 28.0674 74.6104 28.1787C75.0615 28.29 75.4775 28.4072 75.8584 28.5303V31.3252ZM86.7217 30.5518V40H83.4609V30.5518H78.3369V27.9238H91.8545V30.5518H86.7217ZM94.0166 40V27.9238H97.2773V40H94.0166ZM116.42 40V31.5186L111.938 40H108.809L104.326 31.5186V40H101.065V27.9238H105.495L110.373 37.0645L115.251 27.9238H119.663V40H116.42ZM133.146 37.7148H126.413L125.279 40H121.641L127.96 27.9238H131.599L137.918 40H134.279L133.146 37.7148ZM127.582 35.3594H131.994L129.797 30.9121L127.582 35.3594ZM145.96 30.5518V40H142.699V30.5518H137.575V27.9238H151.093V30.5518H145.96ZM153.255 40V27.9238H165.48V30.499H156.604V32.4941H165.023V35.0693H156.604V37.4248H165.604V40H153.255ZM189.097 32.0459C189.097 32.6494 189.009 33.2061 188.833 33.7158C188.657 34.2197 188.373 34.6562 187.98 35.0254C187.594 35.3887 187.09 35.6729 186.469 35.8779C185.848 36.083 185.092 36.1855 184.201 36.1855H178.787V40H175.526V27.9238H184.201C185.092 27.9238 185.848 28.0264 186.469 28.2314C187.09 28.4307 187.594 28.7148 187.98 29.084C188.373 29.4473 188.657 29.8809 188.833 30.3848C189.009 30.8887 189.097 31.4424 189.097 32.0459ZM185.801 32.0986C185.801 31.8174 185.76 31.5771 185.678 31.3779C185.602 31.1729 185.473 31.0059 185.291 30.877C185.109 30.748 184.872 30.6543 184.579 30.5957C184.286 30.5312 183.926 30.499 183.498 30.499H178.787V33.6104H183.498C183.926 33.6104 184.286 33.5869 184.579 33.54C184.872 33.4873 185.109 33.4023 185.291 33.2852C185.473 33.1621 185.602 33.0039 185.678 32.8105C185.76 32.6172 185.801 32.3799 185.801 32.0986ZM195.064 40H191.804V27.9238H199.978C200.856 27.9238 201.601 28.0146 202.21 28.1963C202.825 28.3779 203.323 28.6357 203.704 28.9697C204.091 29.3037 204.369 29.708 204.539 30.1826C204.715 30.6514 204.803 31.1758 204.803 31.7559C204.803 32.2656 204.729 32.7109 204.583 33.0918C204.442 33.4727 204.249 33.8008 204.003 34.0762C203.763 34.3457 203.481 34.5742 203.159 34.7617C202.837 34.9492 202.497 35.1045 202.14 35.2275L206.095 40H202.28L198.624 35.5527H195.064V40ZM201.507 31.7383C201.507 31.5039 201.475 31.3047 201.41 31.1406C201.352 30.9766 201.246 30.8447 201.094 30.7451C200.941 30.6396 200.736 30.5635 200.479 30.5166C200.227 30.4697 199.91 30.4463 199.529 30.4463H195.064V33.0303H199.529C199.91 33.0303 200.227 33.0068 200.479 32.96C200.736 32.9131 200.941 32.8398 201.094 32.7402C201.246 32.6348 201.352 32.5 201.41 32.3359C201.475 32.1719 201.507 31.9727 201.507 31.7383ZM223.972 33.9707C223.972 35.0078 223.781 35.9248 223.4 36.7217C223.02 37.5127 222.475 38.1748 221.766 38.708C221.057 39.2412 220.195 39.6455 219.182 39.9209C218.174 40.1904 217.04 40.3252 215.78 40.3252C214.521 40.3252 213.381 40.1904 212.361 39.9209C211.348 39.6455 210.483 39.2412 209.769 38.708C209.054 38.1748 208.503 37.5127 208.116 36.7217C207.729 35.9248 207.536 35.0078 207.536 33.9707C207.536 32.9336 207.729 32.0195 208.116 31.2285C208.503 30.4316 209.054 29.7666 209.769 29.2334C210.483 28.7002 211.348 28.2988 212.361 28.0293C213.381 27.7539 214.521 27.6162 215.78 27.6162C217.04 27.6162 218.174 27.7539 219.182 28.0293C220.195 28.2988 221.057 28.7002 221.766 29.2334C222.475 29.7666 223.02 30.4316 223.4 31.2285C223.781 32.0195 223.972 32.9336 223.972 33.9707ZM220.676 33.9707C220.676 33.5195 220.603 33.0713 220.456 32.626C220.315 32.1748 220.061 31.7705 219.691 31.4131C219.328 31.0557 218.83 30.7656 218.197 30.543C217.564 30.3203 216.759 30.209 215.78 30.209C215.124 30.209 214.547 30.2617 214.049 30.3672C213.551 30.4668 213.12 30.6074 212.757 30.7891C212.394 30.9707 212.089 31.1846 211.843 31.4307C211.597 31.6709 211.4 31.9316 211.254 32.2129C211.107 32.4883 211.002 32.7783 210.938 33.083C210.879 33.3818 210.85 33.6777 210.85 33.9707C210.85 34.2695 210.879 34.5713 210.938 34.876C211.002 35.1807 211.107 35.4736 211.254 35.7549C211.4 36.0303 211.597 36.2881 211.843 36.5283C212.089 36.7686 212.394 36.9795 212.757 37.1611C213.12 37.3369 213.551 37.4775 214.049 37.583C214.547 37.6826 215.124 37.7324 215.78 37.7324C216.759 37.7324 217.564 37.6211 218.197 37.3984C218.83 37.1758 219.328 36.8857 219.691 36.5283C220.061 36.1709 220.315 35.7695 220.456 35.3242C220.603 34.873 220.676 34.4219 220.676 33.9707ZM235.688 35.5352C235.688 36.3379 235.556 37.0293 235.292 37.6094C235.034 38.1895 234.653 38.667 234.149 39.042C233.651 39.417 233.039 39.6953 232.312 39.877C231.586 40.0527 230.757 40.1406 229.825 40.1406C229.386 40.1406 228.935 40.1172 228.472 40.0703C228.009 40.0293 227.563 39.9766 227.136 39.9121C226.708 39.8477 226.312 39.7803 225.949 39.71C225.592 39.6338 225.293 39.5635 225.053 39.499V36.6689C225.299 36.7686 225.568 36.8711 225.861 36.9766C226.154 37.0762 226.479 37.167 226.837 37.249C227.2 37.3311 227.599 37.3984 228.032 37.4512C228.472 37.5039 228.955 37.5303 229.482 37.5303C230.051 37.5303 230.522 37.4688 230.897 37.3457C231.278 37.2168 231.583 37.041 231.812 36.8184C232.04 36.5898 232.201 36.3232 232.295 36.0186C232.389 35.7139 232.436 35.3799 232.436 35.0166V27.9238H235.688V35.5352ZM239.388 40V27.9238H251.613V30.499H242.736V32.4941H251.156V35.0693H242.736V37.4248H251.736V40H239.388ZM268.198 39.1738C267.776 39.3496 267.352 39.5078 266.924 39.6484C266.496 39.7891 266.054 39.9092 265.597 40.0088C265.14 40.1143 264.656 40.1934 264.146 40.2461C263.643 40.2988 263.101 40.3252 262.521 40.3252C261.29 40.3252 260.156 40.1934 259.119 39.9297C258.088 39.666 257.197 39.2705 256.447 38.7432C255.703 38.21 255.123 37.5479 254.707 36.7568C254.291 35.96 254.083 35.0312 254.083 33.9707C254.083 32.9102 254.291 31.9844 254.707 31.1934C255.123 30.3965 255.703 29.7344 256.447 29.207C257.197 28.6738 258.088 28.2754 259.119 28.0117C260.156 27.748 261.29 27.6162 262.521 27.6162C263.101 27.6162 263.643 27.6426 264.146 27.6953C264.656 27.748 265.14 27.8271 265.597 27.9326C266.054 28.0322 266.496 28.1523 266.924 28.293C267.352 28.4336 267.776 28.5918 268.198 28.7676V31.7031C267.864 31.5215 267.513 31.3428 267.144 31.167C266.774 30.9854 266.367 30.8242 265.922 30.6836C265.477 30.5371 264.987 30.4199 264.454 30.332C263.921 30.2383 263.32 30.1914 262.652 30.1914C261.627 30.1914 260.774 30.2969 260.095 30.5078C259.421 30.7188 258.882 31 258.478 31.3516C258.073 31.7031 257.789 32.1074 257.625 32.5645C257.461 33.0156 257.379 33.4844 257.379 33.9707C257.379 34.293 257.414 34.6123 257.484 34.9287C257.555 35.2393 257.672 35.5352 257.836 35.8164C258 36.0918 258.214 36.3467 258.478 36.5811C258.741 36.8154 259.069 37.0176 259.462 37.1875C259.854 37.3574 260.312 37.4922 260.833 37.5918C261.36 37.6855 261.967 37.7324 262.652 37.7324C263.32 37.7324 263.921 37.6914 264.454 37.6094C264.987 37.5215 265.477 37.4072 265.922 37.2666C266.367 37.126 266.774 36.9678 267.144 36.792C267.513 36.6104 267.864 36.4258 268.198 36.2383V39.1738ZM278.007 30.5518V40H274.746V30.5518H269.622V27.9238H283.14V30.5518H278.007Z" fill="#2E2E2E"/>
<path d="M292.875 29H305.875M305.875 29V42M305.875 29L293.875 41" stroke="#2E2E2E" stroke-width="2"/>
</svg>
