<svg width="344" height="246" viewBox="0 0 344 246" fill="none" xmlns="http://www.w3.org/2000/svg">
<rect x="77.6484" y="49.6481" width="265.497" height="196.312" rx="19" fill="#2E2E2E"/>
<rect x="71" y="42.9999" width="261.497" height="192.312" rx="17" fill="#C2D0FF" stroke="#2E2E2E" stroke-width="4"/>
<path d="M71 56.9999C71 49.2679 77.268 42.9999 85 42.9999H316.497C325.334 42.9999 332.497 50.1633 332.497 58.9999V75.3219H71V56.9999Z" fill="white" stroke="#2E2E2E" stroke-width="4"/>
<circle cx="278.285" cy="60.0258" r="5.91849" fill="#69CF9C" stroke="#2E2E2E" stroke-width="2"/>
<circle cx="297.31" cy="60.0258" r="5.91849" fill="#FDD400" stroke="#2E2E2E" stroke-width="2"/>
<circle cx="315.471" cy="60.0258" r="5.91849" fill="#FB9191" stroke="#2E2E2E" stroke-width="2"/>
<line x1="99" y1="161" x2="155" y2="161" stroke="#2E2E2E" stroke-width="4"/>
<line x1="99" y1="170" x2="127" y2="170" stroke="#2E2E2E" stroke-width="4"/>
<rect x="100.5" y="98.5" width="53" height="53" fill="#FF9B9B" stroke="#2E2E2E" stroke-width="3"/>
<line x1="170" y1="161" x2="226" y2="161" stroke="#2E2E2E" stroke-width="4"/>
<line x1="170" y1="170" x2="198" y2="170" stroke="#2E2E2E" stroke-width="4"/>
<rect x="171.5" y="98.5" width="53" height="53" fill="#FFCB9B" stroke="#2E2E2E" stroke-width="3"/>
<line x1="241" y1="161" x2="297" y2="161" stroke="#2E2E2E" stroke-width="4"/>
<line x1="241" y1="170" x2="269" y2="170" stroke="#2E2E2E" stroke-width="4"/>
<rect x="242.5" y="98.5" width="53" height="53" fill="#7ADC8F" stroke="#2E2E2E" stroke-width="3"/>
<path d="M105.276 21.408C106.875 19.982 109.158 19.6149 111.124 20.4673L117.582 23.2672C119.931 24.2857 122.614 24.191 124.885 23.0095L135.616 17.4279C137.613 16.389 140.07 16.9865 141.368 18.8263C143.296 21.5611 146.803 22.687 149.963 21.5859L164.751 16.4329C165.626 16.1278 166.477 16.9473 166.205 17.8336C165.27 20.881 167.992 23.7947 171.096 23.069L186.212 19.5347C186.389 19.4932 186.504 19.5227 186.583 19.5627C186.676 19.6093 186.768 19.6967 186.833 19.8204C186.897 19.9442 186.915 20.0705 186.899 20.1731C186.886 20.261 186.845 20.3714 186.708 20.4925C184.082 22.8284 186.075 27.1521 189.557 26.6734L199.824 25.2619C200.018 25.2352 200.121 25.2816 200.184 25.3248C200.263 25.3794 200.342 25.4787 200.386 25.6168C200.43 25.7548 200.422 25.882 200.389 25.9722C200.363 26.0435 200.306 26.141 200.132 26.2312C196.799 27.9628 198.139 33.0136 201.892 32.8648L205.039 32.7401C205.3 32.7297 205.444 32.8071 205.534 32.8855C205.641 32.9784 205.733 33.1298 205.769 33.3207C205.805 33.5116 205.775 33.6861 205.71 33.8116C205.654 33.9176 205.548 34.0424 205.302 34.1281L204.726 34.3288C201.063 35.6034 201.75 40.9765 205.615 41.2888C205.836 41.3066 205.941 41.3844 206.002 41.4513C206.078 41.534 206.14 41.6657 206.152 41.8289C206.164 41.9921 206.122 42.1316 206.06 42.2245C206.01 42.2997 205.917 42.3923 205.701 42.4425L198.981 44.0117C195.435 44.8395 195.349 49.8559 198.865 50.8047C199.041 50.8523 199.116 50.93 199.158 50.9925C199.209 51.0701 199.244 51.1859 199.235 51.3222C199.227 51.4584 199.177 51.5688 199.116 51.6393C199.068 51.696 198.983 51.7635 198.802 51.7884L185.584 53.6015C182.254 54.0583 181.189 58.3462 183.918 60.3077C184.475 60.7075 184.211 61.5849 183.526 61.6118L167.103 62.2574C163.992 62.3797 161.689 65.1969 162.189 68.2701C162.416 69.6707 161.269 70.9133 159.855 70.7984L145.324 69.6176C142.364 69.3771 139.493 70.6986 137.752 73.1035L135.857 75.7187C134.517 77.5694 132.171 78.3984 129.966 77.8013L120.475 75.2318C118.121 74.5945 115.607 74.999 113.571 76.3424L105.365 81.7586C103.458 83.0175 100.971 82.9658 99.1178 81.6289L96.4989 79.7397C94.0907 78.0024 90.9503 77.6478 88.2153 78.8044L74.7879 84.4828C73.481 85.0355 72.0021 84.2153 71.7789 82.8139C71.2892 79.7392 68.2193 77.7863 65.2269 78.6459L49.4294 83.1835C48.771 83.3727 48.2455 82.6223 48.6483 82.0681C50.6243 79.3497 48.2683 75.6122 44.9635 76.2227L31.8438 78.6464C31.6641 78.6796 31.5625 78.642 31.4984 78.6034C31.4188 78.5555 31.337 78.4663 31.286 78.3396C31.235 78.213 31.2322 78.0919 31.2565 78.0022C31.276 77.93 31.3232 77.8325 31.4758 77.732C34.516 75.7287 32.8612 70.9923 29.235 71.3182L22.3613 71.9358C22.1412 71.9556 22.0239 71.8969 21.9524 71.8413C21.8641 71.7726 21.7805 71.6533 21.7409 71.4945C21.7012 71.3357 21.719 71.1912 21.7647 71.089C21.8016 71.0063 21.8775 70.8994 22.0811 70.8134C25.6534 69.3046 24.6206 63.9872 20.7432 63.9254L20.1329 63.9157C19.8722 63.9115 19.7324 63.8263 19.6466 63.7429C19.5451 63.6443 19.4618 63.4881 19.4363 63.2954C19.4108 63.1028 19.4505 62.9303 19.5228 62.8086C19.5839 62.7058 19.6967 62.5871 19.9473 62.5152L22.9744 61.6468C26.5854 60.6109 26.2739 55.3946 22.5653 54.7958C22.3721 54.7646 22.287 54.6901 22.2399 54.6306C22.1803 54.5552 22.1331 54.4369 22.1314 54.2921C22.1298 54.1472 22.1744 54.0278 22.2323 53.9512C22.2781 53.8907 22.3615 53.8142 22.5539 53.7787L32.7462 51.899C36.2025 51.2616 36.7383 46.5311 33.5122 45.1367C33.3449 45.0644 33.2707 44.9726 33.2307 44.8933C33.1841 44.8006 33.1614 44.6751 33.1835 44.5375C33.2056 44.3998 33.2665 44.2877 33.3398 44.2144C33.4026 44.1516 33.5018 44.0877 33.6834 44.0714L49.145 42.6868C52.32 42.4025 53.9907 38.7822 52.1471 36.1818C51.6108 35.4255 52.1617 34.3805 53.0887 34.3956L68.7465 34.651C72.0924 34.7055 75.0694 32.5365 76.0428 29.3349C76.6977 27.1811 78.8439 25.843 81.0661 26.2031L93.0057 28.1379C95.5331 28.5474 98.1104 27.7959 100.022 26.0921L105.276 21.408Z" fill="#FCEA2B" stroke="#2E2E2E" stroke-width="3"/>
<path d="M65.7733 48.9451L73.0971 47.7669L77.8134 58.3435L78.6514 51.5262L76.5218 47.216L83.8456 46.0378L88.3305 56.6517L89.3992 45.1445L92.4171 44.6471L90.0361 62.6799L84.5848 63.545L80.7123 55.7051L79.519 64.3718L74.0677 65.2369L65.7733 48.9451ZM95.15 53.0027C94.9403 51.6992 94.9569 50.4739 95.1997 49.3271C95.4412 48.1725 95.912 47.1393 96.612 46.2275C97.312 45.3157 98.2443 44.5445 99.409 43.914C100.574 43.2836 101.974 42.8368 103.609 42.5737C105.244 42.3107 106.713 42.2959 108.017 42.5293C109.321 42.7627 110.448 43.2026 111.398 43.8488C112.349 44.4951 113.12 45.3285 113.712 46.3491C114.302 47.362 114.702 48.5202 114.912 49.8237C115.124 51.1427 115.11 52.3834 114.869 53.5457C114.629 54.708 114.159 55.745 113.459 56.6568C112.759 57.5686 111.827 58.3398 110.662 58.9703C109.497 59.6007 108.097 60.0475 106.462 60.3106C104.827 60.5736 103.357 60.5884 102.054 60.355C100.75 60.1216 99.623 59.6818 98.6724 59.0355C97.7217 58.3892 96.9501 57.5519 96.3573 56.5236C95.7646 55.4953 95.3622 54.3217 95.15 53.0027ZM106.077 57.9156C106.54 57.8411 106.935 57.6944 107.264 57.4753C107.593 57.2562 107.839 56.8922 108.002 56.3833C108.166 55.8743 108.241 55.1856 108.228 54.3173C108.215 53.449 108.098 52.3283 107.877 50.9554C107.659 49.5978 107.42 48.5086 107.161 47.6877C106.903 46.8668 106.617 46.2442 106.303 45.8198C105.99 45.3955 105.642 45.1309 105.261 45.026C104.881 44.9211 104.459 44.9059 103.996 44.9803C103.533 45.0548 103.134 45.2021 102.797 45.4224C102.468 45.6415 102.222 46.0016 102.057 46.5029C101.892 47.0042 101.816 47.6851 101.828 48.5457C101.839 49.4063 101.955 50.5154 102.173 51.873C102.394 53.2459 102.634 54.3467 102.894 55.1753C103.154 56.0039 103.441 56.6343 103.756 57.0663C104.071 57.4984 104.419 57.7668 104.8 57.8717C105.188 57.9754 105.614 57.99 106.077 57.9156ZM116.924 40.7166L126.84 39.1215C128.12 38.9155 129.26 38.8706 130.26 38.9867C131.268 39.1016 132.131 39.3505 132.849 39.7334C133.575 40.1152 134.155 40.6193 134.588 41.246C135.021 41.8727 135.304 42.5948 135.435 43.4124C135.598 44.4229 135.503 45.3599 135.151 46.2236C134.798 47.0796 134.189 47.8147 133.322 48.4288L138.077 54.9637L130.521 56.1791L126.786 50.3705L125.374 50.5976L126.378 56.8338L119.69 57.9096L116.924 40.7166ZM125.442 48.4383C125.99 48.3502 126.467 48.1943 126.875 47.9705C127.282 47.7468 127.613 47.4718 127.869 47.1458C128.124 46.812 128.302 46.4392 128.402 46.0275C128.5 45.6081 128.513 45.167 128.438 44.7042C128.364 44.2414 128.214 43.8301 127.99 43.4705C127.765 43.1032 127.48 42.8049 127.134 42.5756C126.788 42.3386 126.386 42.1777 125.929 42.0929C125.472 42.0082 124.97 42.0098 124.422 42.0979L124.029 42.1612L125.037 48.5034L125.442 48.4383ZM138.514 37.2435L145.201 36.1678L146.804 46.1295L152.641 34.971L155.985 34.4331L151.688 42.697L160.453 51.3641L152.921 52.5757L148.211 47.7905L147.345 49.4964L147.967 53.3608L141.28 54.4366L138.514 37.2435Z" fill="#2E2E2E"/>
<rect x="102" y="188" width="194" height="27" fill="white" stroke="#2E2E2E" stroke-width="4"/>
</svg>
