<svg width="275" height="205" viewBox="0 0 275 205" fill="none" xmlns="http://www.w3.org/2000/svg">
<rect x="8.64844" y="8.64795" width="265.497" height="196.312" rx="19" fill="#2E2E2E"/>
<rect x="2" y="2" width="261.497" height="192.312" rx="17" fill="#FFF969" stroke="#2E2E2E" stroke-width="4"/>
<path d="M2 16C2 8.26801 8.26801 2 16 2H247.497C256.334 2 263.497 9.16344 263.497 18V34.3221H2V16Z" fill="white" stroke="#2E2E2E" stroke-width="4"/>
<circle cx="209.285" cy="19.0259" r="5.91849" fill="#69CF9C" stroke="#2E2E2E" stroke-width="2"/>
<circle cx="228.31" cy="19.0259" r="5.91849" fill="#FDD400" stroke="#2E2E2E" stroke-width="2"/>
<circle cx="246.471" cy="19.0259" r="5.91849" fill="#FB9191" stroke="#2E2E2E" stroke-width="2"/>
<rect x="136.5" y="81.5" width="76" height="11" stroke="#2E2E2E" stroke-width="3"/>
<rect x="115.5" y="56.5" width="118" height="118" stroke="#2E2E2E" stroke-width="3"/>
<rect x="136.5" y="102.5" width="76" height="11" stroke="#2E2E2E" stroke-width="3"/>
<rect x="136.5" y="123.5" width="76" height="11" stroke="#2E2E2E" stroke-width="3"/>
<rect x="136.5" y="141.5" width="27" height="8" fill="#2E2E2E" stroke="#2E2E2E" stroke-width="3"/>
<g clip-path="url(#clip0_1_5908)">
<path d="M43.6223 45.9004L45.8695 54.6011C46.9554 58.8089 50.213 62.1049 54.3959 63.2258L63.1677 65.5719L54.6225 67.8991C50.5907 69.0009 47.4086 72.1354 46.2472 76.1723L43.6223 85.2434L41.1106 75.8684C39.9304 71.461 36.3706 68.0985 31.9233 67.1867L24.0674 65.5719L32.8676 63.2353C37.0694 62.1144 40.3458 58.7994 41.4222 54.5536L43.6223 45.9004Z" fill="#FFFEFF" stroke="#1B1B1B" stroke-width="0.877551" stroke-miterlimit="10"/>
</g>
<path d="M39.9653 140.678L39.3353 138.327L27.282 141.557L27.912 143.908L32.4602 142.689L35.8357 155.287L38.731 154.511L35.3555 141.913L39.9653 140.678ZM53.7062 143.665L53.123 141.488C52.9414 140.811 52.7049 140.188 52.4135 139.621C52.1289 139.051 51.799 138.545 51.4237 138.103C51.0855 137.717 50.7128 137.38 50.3058 137.093C49.9056 136.804 49.4687 136.584 48.9952 136.432C48.518 136.266 48.0069 136.18 47.4619 136.172C46.9219 136.155 46.3644 136.224 45.7895 136.378C45.2214 136.53 44.7136 136.743 44.2662 137.017C43.8187 137.291 43.4357 137.614 43.1171 137.985C42.7934 138.365 42.529 138.788 42.3237 139.254C42.1252 139.718 41.9832 140.215 41.8975 140.744C41.8124 141.302 41.7905 141.891 41.8319 142.511C41.8801 143.129 41.9922 143.766 42.1683 144.423L42.7515 146.6C42.9165 147.216 43.1213 147.788 43.3656 148.317C43.6169 148.844 43.9016 149.318 44.2198 149.739C44.5695 150.195 44.9568 150.587 45.3817 150.913C45.8048 151.233 46.2533 151.483 46.7273 151.664C47.2045 151.83 47.7097 151.922 48.2428 151.94C48.776 151.959 49.3335 151.89 49.9152 151.734C50.4628 151.587 50.9544 151.382 51.39 151.119C51.8343 150.86 52.2228 150.558 52.5556 150.212C52.9203 149.821 53.2187 149.374 53.4509 148.872C53.6831 148.37 53.8495 147.841 53.9502 147.286C54.0372 146.734 54.0618 146.155 54.0241 145.549C53.9846 144.936 53.8786 144.308 53.7062 143.665ZM50.1915 142.252L50.7802 144.449C50.8792 144.818 50.954 145.18 51.0047 145.533C51.0621 145.884 51.0918 146.214 51.0935 146.522C51.0967 146.917 51.0556 147.284 50.9702 147.622C50.8898 147.952 50.7589 148.243 50.5776 148.497C50.4349 148.704 50.2548 148.881 50.0373 149.027C49.8197 149.174 49.5672 149.285 49.2798 149.362C48.9786 149.443 48.6963 149.471 48.4329 149.446C48.1764 149.42 47.9337 149.349 47.7049 149.234C47.4568 149.103 47.2181 148.91 46.9887 148.656C46.7642 148.393 46.5658 148.091 46.3933 147.748C46.2478 147.479 46.1165 147.18 45.9992 146.852C45.882 146.524 45.7747 146.179 45.6775 145.816L45.0888 143.619C44.9861 143.236 44.9017 142.866 44.8355 142.509C44.7762 142.151 44.7414 141.816 44.7309 141.503C44.7172 141.096 44.7506 140.727 44.831 140.398C44.9182 140.066 45.0525 139.774 45.2339 139.52C45.3701 139.344 45.5352 139.193 45.729 139.068C45.9297 138.941 46.1635 138.841 46.4305 138.77C46.7111 138.695 46.9744 138.664 47.2205 138.679C47.4734 138.692 47.7106 138.742 47.932 138.83C48.2143 138.952 48.4804 139.138 48.7303 139.386C48.9785 139.628 49.2034 139.919 49.4051 140.262C49.5661 140.534 49.7105 140.84 49.8382 141.18C49.971 141.511 50.0887 141.868 50.1915 142.252ZM63.5651 131.835L60.7006 132.602L63.3451 142.513C63.4685 143 63.5317 143.442 63.535 143.837C63.5382 144.232 63.477 144.579 63.3513 144.877C63.2376 145.164 63.0603 145.406 62.8195 145.602C62.5838 145.79 62.2913 145.931 61.9423 146.025C61.6206 146.111 61.3219 146.132 61.0461 146.089C60.7685 146.038 60.5139 145.923 60.2823 145.743C60.0315 145.546 59.8077 145.272 59.611 144.922C59.4212 144.569 59.2559 144.144 59.1151 143.646L56.4502 133.741L53.5652 134.514L56.2096 144.424C56.4334 145.259 56.7496 145.974 57.1584 146.569C57.5722 147.155 58.0543 147.613 58.6047 147.942C59.1551 148.272 59.7627 148.472 60.4274 148.543C61.0989 148.613 61.8111 148.547 62.564 148.345C63.3648 148.13 64.0455 147.823 64.606 147.424C65.1733 147.022 65.6155 146.537 65.9325 145.968C66.2445 145.407 66.4263 144.772 66.478 144.061C66.5364 143.348 66.4538 142.575 66.2301 141.739L63.5651 131.835ZM79.3653 138.605L76.4803 139.378C76.5739 139.837 76.6023 140.244 76.5653 140.599C76.5283 140.953 76.4312 141.262 76.274 141.524C76.1169 141.786 75.9005 142.006 75.625 142.182C75.3496 142.359 75.0236 142.497 74.6471 142.598C74.3665 142.673 74.1016 142.711 73.8524 142.712C73.6082 142.704 73.3753 142.657 73.1538 142.569C72.9497 142.492 72.7544 142.379 72.568 142.231C72.3885 142.081 72.2187 141.899 72.0587 141.685C71.8282 141.373 71.6164 140.993 71.4233 140.546C71.2351 140.09 71.0613 139.565 70.9017 138.969L70.357 136.936C70.2396 136.498 70.1511 136.086 70.0913 135.698C70.0296 135.304 70.0011 134.937 70.0057 134.599C70.0139 134.164 70.0734 133.77 70.1844 133.417C70.3003 133.056 70.4766 132.756 70.7132 132.516C70.8518 132.376 71.0105 132.257 71.1893 132.158C71.375 132.057 71.5808 131.976 71.8066 131.915C72.231 131.802 72.6094 131.763 72.9417 131.798C73.279 131.825 73.5797 131.921 73.8438 132.085C74.1028 132.257 74.3285 132.498 74.5211 132.805C74.7205 133.112 74.8934 133.483 75.04 133.921L77.9147 133.151C77.6372 132.389 77.285 131.731 76.858 131.178C76.431 130.625 75.9339 130.193 75.3666 129.883C74.7993 129.573 74.1628 129.388 73.457 129.327C72.7581 129.265 71.998 129.344 71.1767 129.564C70.6222 129.713 70.1213 129.924 69.6739 130.198C69.2314 130.463 68.8431 130.78 68.509 131.148C68.1398 131.577 67.8368 132.062 67.6001 132.602C67.3634 133.142 67.2117 133.726 67.1449 134.353C67.0779 134.87 67.0699 135.415 67.1208 135.988C67.1699 136.554 67.2751 137.139 67.4365 137.741L67.9757 139.753C68.1481 140.397 68.3626 140.992 68.6193 141.539C68.8829 142.085 69.1781 142.571 69.505 142.997C69.8387 143.421 70.2059 143.792 70.6066 144.11C71.0142 144.426 71.4472 144.673 71.9057 144.851C72.4039 145.041 72.9351 145.148 73.4993 145.173C74.0685 145.189 74.6611 145.114 75.2771 144.949C76.0574 144.74 76.739 144.437 77.3218 144.038C77.9029 143.633 78.3692 143.156 78.721 142.607C79.0727 142.058 79.3048 141.446 79.4171 140.77C79.5364 140.092 79.5191 139.371 79.3653 138.605ZM92.7346 140.041L88.7291 125.092L85.875 125.857L87.5173 131.986L83.2874 133.12L81.645 126.99L78.7806 127.758L82.786 142.706L85.6505 141.939L83.9146 135.46L88.1445 134.327L89.8804 140.805L92.7346 140.041ZM100.359 132.397L97.918 122.63L94.9919 123.414L97.7614 133.093L100.359 132.397ZM98.4179 137.021C98.5353 137.459 98.7815 137.789 99.1565 138.012C99.5297 138.227 99.9763 138.265 100.497 138.126C101.003 137.99 101.367 137.735 101.59 137.36C101.81 136.978 101.862 136.568 101.744 136.13C101.623 135.678 101.372 135.342 100.99 135.122C100.608 134.901 100.164 134.859 99.6575 134.994C99.1373 135.134 98.7704 135.394 98.5568 135.774C98.3431 136.154 98.2968 136.569 98.4179 137.021Z" fill="white"/>
<path d="M39.9653 140.678L41.0488 144.722L45.0923 143.638L44.0089 139.595L39.9653 140.678ZM39.3353 138.327L43.3789 137.244L42.2954 133.2L38.2519 134.284L39.3353 138.327ZM27.282 141.557L26.1986 137.513L22.155 138.597L23.2385 142.64L27.282 141.557ZM27.912 143.908L23.8685 144.991L24.9519 149.035L28.9955 147.951L27.912 143.908ZM32.4602 142.689L36.5038 141.606L35.4203 137.562L31.3768 138.646L32.4602 142.689ZM35.8357 155.287L31.7921 156.37L32.8756 160.414L36.9192 159.33L35.8357 155.287ZM38.731 154.511L39.8144 158.554L43.858 157.471L42.7745 153.427L38.731 154.511ZM35.3555 141.913L34.272 137.87L30.2285 138.953L31.3119 142.997L35.3555 141.913ZM44.0089 139.595L43.3789 137.244L35.2918 139.411L35.9217 141.762L44.0089 139.595ZM38.2519 134.284L26.1986 137.513L28.3655 145.6L40.4188 142.371L38.2519 134.284ZM23.2385 142.64L23.8685 144.991L31.9556 142.824L31.3256 140.473L23.2385 142.64ZM28.9955 147.951L33.5437 146.733L31.3768 138.646L26.8285 139.864L28.9955 147.951ZM28.4167 143.773L31.7921 156.37L39.8793 154.203L36.5038 141.606L28.4167 143.773ZM36.9192 159.33L39.8144 158.554L37.6475 150.467L34.7522 151.243L36.9192 159.33ZM42.7745 153.427L39.399 140.83L31.3119 142.997L34.6874 155.594L42.7745 153.427ZM36.439 145.957L41.0488 144.722L38.8818 136.635L34.272 137.87L36.439 145.957ZM52.4135 139.621L48.6691 141.492L48.6793 141.513L48.6897 141.533L52.4135 139.621ZM51.4237 138.103L54.6158 135.395L54.5945 135.37L54.5729 135.345L51.4237 138.103ZM50.3058 137.093L47.8555 140.487L47.8742 140.501L47.8931 140.514L50.3058 137.093ZM48.9952 136.432L47.6229 140.387L47.6696 140.403L47.7166 140.418L48.9952 136.432ZM47.4619 136.172L47.3325 140.356L47.3664 140.357L47.4003 140.357L47.4619 136.172ZM43.1171 137.985L39.9395 135.26L39.9345 135.266L39.9295 135.271L43.1171 137.985ZM42.3237 139.254L38.493 137.566L38.4838 137.587L38.4748 137.608L42.3237 139.254ZM41.8975 140.744L37.7651 140.075L37.7621 140.094L37.7592 140.113L41.8975 140.744ZM41.8319 142.511L37.655 142.79L37.6565 142.813L37.6583 142.836L41.8319 142.511ZM43.3656 148.317L39.5657 150.073L39.5762 150.096L39.587 150.119L43.3656 148.317ZM44.2198 149.739L40.8804 152.263L40.8885 152.274L40.8967 152.285L44.2198 149.739ZM45.3817 150.913L42.8319 154.233L42.8454 154.244L42.859 154.254L45.3817 150.913ZM46.7273 151.664L45.2333 155.574L45.2938 155.598L45.355 155.619L46.7273 151.664ZM51.39 151.119L49.2851 147.5L49.2542 147.518L49.2236 147.537L51.39 151.119ZM52.5556 150.212L55.5724 153.115L55.5951 153.091L55.6174 153.067L52.5556 150.212ZM53.9502 147.286L58.0692 148.033L58.0778 147.985L58.0853 147.938L53.9502 147.286ZM54.0241 145.549L58.2022 145.289L58.2016 145.28L54.0241 145.549ZM51.0047 145.533L46.8608 146.127L46.8667 146.168L46.8734 146.209L51.0047 145.533ZM51.0935 146.522L46.9073 146.545L46.9074 146.556L51.0935 146.522ZM50.9702 147.622L46.9113 146.597L46.9072 146.614L46.9032 146.63L50.9702 147.622ZM50.5776 148.497L47.1707 146.065L47.1504 146.093L47.1307 146.122L50.5776 148.497ZM48.4329 149.446L48.0008 153.61L48.0207 153.612L48.0407 153.614L48.4329 149.446ZM47.7049 149.234L45.7425 152.932L45.7851 152.955L45.8283 152.976L47.7049 149.234ZM46.9887 148.656L43.8061 151.375L43.8437 151.419L43.8824 151.462L46.9887 148.656ZM46.3933 147.748L50.1323 145.865L50.1049 145.811L50.0759 145.757L46.3933 147.748ZM44.8355 142.509L40.7056 143.193L40.7122 143.233L40.7196 143.273L44.8355 142.509ZM44.7309 141.503L48.9148 141.364L48.9148 141.362L44.7309 141.503ZM44.831 140.398L40.7826 139.332L40.773 139.369L40.764 139.406L44.831 140.398ZM45.2339 139.52L41.9246 136.956L41.8745 137.02L41.827 137.087L45.2339 139.52ZM45.729 139.068L43.4888 135.531L43.4726 135.542L43.4565 135.552L45.729 139.068ZM47.2205 138.679L46.9697 142.858L46.9881 142.859L47.0066 142.86L47.2205 138.679ZM47.932 138.83L49.5982 134.989L49.5337 134.961L49.4682 134.935L47.932 138.83ZM48.7303 139.386L45.7792 142.355L45.7945 142.37L45.8099 142.385L48.7303 139.386ZM49.4051 140.262L45.7991 142.388L45.8016 142.392L49.4051 140.262ZM49.8382 141.18L45.9197 142.653L45.9357 142.695L45.9526 142.737L49.8382 141.18ZM57.7498 142.581L57.1666 140.405L49.0794 142.572L49.6627 144.748L57.7498 142.581ZM57.1666 140.405C56.9157 139.468 56.5771 138.564 56.1373 137.708L48.6897 141.533C48.8328 141.812 48.9672 142.153 49.0794 142.572L57.1666 140.405ZM56.1579 137.749C55.7378 136.908 55.2279 136.116 54.6158 135.395L48.2316 140.811C48.3701 140.975 48.5201 141.194 48.6691 141.492L56.1579 137.749ZM54.5729 135.345C54.023 134.717 53.4046 134.156 52.7185 133.672L47.8931 140.514C48.021 140.604 48.1479 140.717 48.2745 140.861L54.5729 135.345ZM52.7561 133.699C51.9962 133.15 51.1634 132.731 50.2738 132.446L47.7166 140.418C47.774 140.437 47.815 140.458 47.8555 140.487L52.7561 133.699ZM50.3675 132.477C49.4364 132.154 48.4796 132 47.5235 131.986L47.4003 140.357C47.5342 140.359 47.5996 140.379 47.6229 140.387L50.3675 132.477ZM47.5913 131.987C46.603 131.957 45.6364 132.085 44.706 132.334L46.873 140.421C47.0925 140.362 47.2408 140.353 47.3325 140.356L47.5913 131.987ZM44.706 132.334C43.7959 132.578 42.9092 132.939 42.0803 133.447L46.452 140.587C46.518 140.547 46.6469 140.482 46.873 140.421L44.706 132.334ZM42.0803 133.447C41.2871 133.932 40.5624 134.533 39.9395 135.26L46.2946 140.71C46.309 140.694 46.3503 140.649 46.452 140.587L42.0803 133.447ZM39.9295 135.271C39.3378 135.966 38.8586 136.736 38.493 137.566L46.1543 140.942C46.1993 140.84 46.2491 140.764 46.3047 140.699L39.9295 135.271ZM38.4748 137.608C38.1344 138.404 37.9018 139.23 37.7651 140.075L46.03 141.412C46.0646 141.199 46.1161 141.032 46.1726 140.9L38.4748 137.608ZM37.7592 140.113C37.6238 141 37.5953 141.896 37.655 142.79L46.0088 142.232C45.9857 141.886 46.0009 141.604 46.0359 141.375L37.7592 140.113ZM37.6583 142.836C37.7284 143.734 37.8885 144.625 38.1247 145.507L46.2118 143.34C46.0959 142.907 46.0318 142.524 46.0054 142.185L37.6583 142.836ZM38.1247 145.507L38.7079 147.684L46.795 145.517L46.2118 143.34L38.1247 145.507ZM38.7079 147.684C38.9291 148.509 39.2121 149.309 39.5657 150.073L47.1656 146.561C47.0304 146.268 46.904 145.923 46.795 145.517L38.7079 147.684ZM39.587 150.119C39.9472 150.874 40.3748 151.595 40.8804 152.263L47.5592 147.214C47.4283 147.041 47.2866 146.814 47.1443 146.516L39.587 150.119ZM40.8967 152.285C41.453 153.011 42.096 153.668 42.8319 154.233L47.9315 147.593C47.8176 147.506 47.686 147.38 47.5428 147.193L40.8967 152.285ZM42.859 154.254C43.5823 154.8 44.3751 155.247 45.2333 155.574L48.2213 147.753C48.1315 147.719 48.0272 147.665 47.9044 147.572L42.859 154.254ZM45.355 155.619C46.2491 155.929 47.1697 156.092 48.0974 156.124L48.3882 147.756C48.2496 147.752 48.1599 147.73 48.0996 147.709L45.355 155.619ZM48.0974 156.124C49.0944 156.158 50.0673 156.027 50.9987 155.778L48.8318 147.691C48.5996 147.753 48.4576 147.759 48.3882 147.756L48.0974 156.124ZM50.9987 155.778C51.8845 155.54 52.7475 155.19 53.5563 154.701L49.2236 147.537C49.1613 147.574 49.0411 147.634 48.8318 147.691L50.9987 155.778ZM53.4948 154.737C54.2512 154.297 54.952 153.759 55.5724 153.115L49.5388 147.31C49.4936 147.357 49.4173 147.423 49.2851 147.5L53.4948 154.737ZM55.6174 153.067C56.2953 152.34 56.839 151.519 57.2509 150.628L49.6509 147.116C49.5984 147.229 49.5452 147.302 49.4937 147.358L55.6174 153.067ZM57.2509 150.628C57.6346 149.798 57.9066 148.93 58.0692 148.033L49.8312 146.539C49.7925 146.752 49.7316 146.941 49.6509 147.116L57.2509 150.628ZM58.0853 147.938C58.2238 147.06 58.2572 146.174 58.2022 145.289L49.846 145.809C49.8664 146.137 49.8506 146.409 49.8151 146.634L58.0853 147.938ZM58.2016 145.28C58.1429 144.37 57.9876 143.469 57.7498 142.581L49.6627 144.748C49.7696 145.147 49.8262 145.503 49.8466 145.819L58.2016 145.28ZM46.1479 143.335L46.7366 145.532L54.8237 143.365L54.235 141.168L46.1479 143.335ZM46.7366 145.532C46.7956 145.752 46.8355 145.95 46.8608 146.127L55.1485 144.939C55.0726 144.409 54.9628 143.884 54.8237 143.365L46.7366 145.532ZM46.8734 146.209C46.9009 146.377 46.907 146.487 46.9074 146.545L55.2796 146.498C55.2765 145.941 55.2234 145.392 55.136 144.857L46.8734 146.209ZM46.9074 146.556C46.9081 146.64 46.8987 146.647 46.9113 146.597L55.0291 148.647C55.2125 147.92 55.2853 147.193 55.2796 146.488L46.9074 146.556ZM46.9032 146.63C46.938 146.487 47.0162 146.281 47.1707 146.065L53.9844 150.93C54.5016 150.206 54.8416 149.416 55.0372 148.614L46.9032 146.63ZM47.1307 146.122C47.2989 145.878 47.5018 145.688 47.701 145.554L52.3736 152.501C53.0078 152.074 53.571 151.531 54.0245 150.873L47.1307 146.122ZM47.701 145.554C47.9147 145.41 48.097 145.345 48.1963 145.319L50.3632 153.406C51.0374 153.225 51.7248 152.937 52.3736 152.501L47.701 145.554ZM48.1963 145.319C48.2918 145.293 48.5135 145.249 48.8252 145.278L48.0407 153.614C48.8792 153.693 49.6654 153.593 50.3632 153.406L48.1963 145.319ZM48.865 145.282C49.1076 145.308 49.3547 145.378 49.5815 145.492L45.8283 152.976C46.5127 153.319 47.2452 153.532 48.0008 153.61L48.865 145.282ZM49.6672 145.536C49.9321 145.677 50.067 145.819 50.0949 145.85L43.8824 151.462C44.3692 152.001 44.9816 152.528 45.7425 152.932L49.6672 145.536ZM50.1712 145.936C50.1877 145.956 50.17 145.94 50.1323 145.865L42.6543 149.631C42.9616 150.241 43.3408 150.831 43.8061 151.375L50.1712 145.936ZM50.0759 145.757C50.0443 145.699 49.9965 145.598 49.9412 145.443L42.0572 148.261C42.2364 148.762 42.4513 149.259 42.7106 149.739L50.0759 145.757ZM49.9412 145.443C49.865 145.23 49.7911 144.994 49.7211 144.733L41.634 146.899C41.7583 147.364 41.8989 147.818 42.0572 148.261L49.9412 145.443ZM49.7211 144.733L49.1324 142.535L41.0453 144.702L41.634 146.899L49.7211 144.733ZM49.1324 142.535C49.0553 142.248 48.9959 141.985 48.9514 141.745L40.7196 143.273C40.8075 143.747 40.9169 144.223 41.0453 144.702L49.1324 142.535ZM48.9655 141.826C48.9314 141.62 48.9183 141.468 48.9148 141.364L40.5471 141.642C40.5644 142.164 40.621 142.683 40.7056 143.193L48.9655 141.826ZM48.9148 141.362C48.9132 141.314 48.9152 141.294 48.9148 141.299C48.9144 141.303 48.9112 141.335 48.898 141.39L40.764 139.406C40.5772 140.172 40.523 140.929 40.5471 141.644L48.9148 141.362ZM48.8793 141.463C48.8501 141.574 48.782 141.754 48.6407 141.952L41.827 137.087C41.323 137.793 40.9863 138.558 40.7826 139.332L48.8793 141.463ZM48.5432 142.083C48.3793 142.295 48.1896 142.462 48.0016 142.583L43.4565 135.552C42.8808 135.924 42.361 136.393 41.9246 136.956L48.5432 142.083ZM47.9693 142.604C47.7594 142.737 47.5908 142.793 47.5139 142.813L45.347 134.726C44.7362 134.89 44.1001 135.144 43.4888 135.531L47.9693 142.604ZM47.5139 142.813C47.4356 142.834 47.2448 142.874 46.9697 142.858L47.4713 134.5C46.7041 134.454 45.9866 134.555 45.347 134.726L47.5139 142.813ZM47.0066 142.86C46.835 142.851 46.6228 142.813 46.3958 142.724L49.4682 134.935C48.7983 134.671 48.1117 134.533 47.4343 134.498L47.0066 142.86ZM46.2659 142.67C46.0048 142.557 45.8462 142.422 45.7792 142.355L51.6815 136.417C51.1146 135.853 50.4238 135.347 49.5982 134.989L46.2659 142.67ZM45.8099 142.385C45.7562 142.333 45.7591 142.32 45.7991 142.388L53.0112 138.135C52.6477 137.519 52.2008 136.922 51.6508 136.387L45.8099 142.385ZM45.8016 142.392C45.8221 142.427 45.8653 142.508 45.9197 142.653L53.7568 139.707C53.5556 139.172 53.3101 138.641 53.0086 138.131L45.8016 142.392ZM45.9526 142.737C46.0169 142.898 46.0836 143.095 46.1479 143.335L54.235 141.168C54.0939 140.641 53.9251 140.124 53.7239 139.622L45.9526 142.737ZM63.5651 131.835L67.6075 130.747L66.521 126.709L62.4816 127.791L63.5651 131.835ZM60.7006 132.602L59.6172 128.559L55.5778 129.641L56.656 133.682L60.7006 132.602ZM63.3451 142.513L67.4035 141.486L67.3968 141.46L67.3898 141.433L63.3451 142.513ZM63.3513 144.877L59.4944 143.249L59.4764 143.292L59.4593 143.335L63.3513 144.877ZM62.8195 145.602L65.4285 148.876L65.4478 148.861L65.4669 148.845L62.8195 145.602ZM61.0461 146.089L60.2992 150.208L60.3465 150.216L60.394 150.224L61.0461 146.089ZM60.2823 145.743L57.6975 149.036L57.7055 149.042L57.7135 149.048L60.2823 145.743ZM59.611 144.922L55.9251 146.906L55.9421 146.938L55.9597 146.969L59.611 144.922ZM59.1151 143.646L55.0727 144.734L55.0796 144.759L55.0868 144.785L59.1151 143.646ZM56.4502 133.741L60.4926 132.654L59.4061 128.615L55.3667 129.698L56.4502 133.741ZM53.5652 134.514L52.4817 130.471L48.4423 131.553L49.5205 135.593L53.5652 134.514ZM56.2096 144.424L52.1649 145.504L52.1661 145.508L56.2096 144.424ZM57.1584 146.569L53.7086 148.94L53.7235 148.962L53.7387 148.984L57.1584 146.569ZM60.4274 148.543L59.9807 152.706L59.9886 152.706L59.9965 152.707L60.4274 148.543ZM64.606 147.424L62.188 144.006L62.1819 144.011L62.1758 144.015L64.606 147.424ZM65.9325 145.968L69.5896 148.005L69.5901 148.004L65.9325 145.968ZM66.478 144.061L62.3058 143.718L62.3042 143.738L62.3028 143.758L66.478 144.061ZM66.2301 141.739L70.2736 140.656L70.2725 140.652L66.2301 141.739ZM62.4816 127.791L59.6172 128.559L61.7841 136.646L64.6486 135.878L62.4816 127.791ZM56.656 133.682L59.3004 143.592L67.3898 141.433L64.7453 131.523L56.656 133.682ZM59.2867 143.539C59.3491 143.786 59.349 143.887 59.3489 143.871L67.721 143.803C67.7145 142.997 67.5878 142.215 67.4035 141.486L59.2867 143.539ZM59.3489 143.871C59.3485 143.82 59.3546 143.581 59.4944 143.249L67.2083 146.504C67.5993 145.577 67.7279 144.645 67.721 143.803L59.3489 143.871ZM59.4593 143.335C59.6102 142.954 59.8632 142.612 60.1722 142.36L65.4669 148.845C66.2574 148.2 66.865 147.374 67.2434 146.418L59.4593 143.335ZM60.2106 142.329C60.5052 142.094 60.7603 142.007 60.8588 141.981L63.0257 150.068C63.8224 149.855 64.6623 149.487 65.4285 148.876L60.2106 142.329ZM60.8588 141.981C60.9954 141.944 61.2948 141.89 61.6983 141.954L60.394 150.224C61.3489 150.374 62.2457 150.277 63.0257 150.068L60.8588 141.981ZM61.793 141.97C62.2063 142.045 62.5719 142.221 62.8511 142.438L57.7135 149.048C58.4559 149.625 59.3307 150.032 60.2992 150.208L61.793 141.97ZM62.8671 142.45C63.1477 142.67 63.257 142.865 63.2623 142.874L55.9597 146.969C56.3584 147.68 56.9152 148.422 57.6975 149.036L62.8671 142.45ZM63.2969 142.937C63.2865 142.918 63.2239 142.792 63.1435 142.507L55.0868 144.785C55.2878 145.496 55.5558 146.22 55.9251 146.906L63.2969 142.937ZM63.1576 142.558L60.4926 132.654L52.4077 134.829L55.0727 144.734L63.1576 142.558ZM55.3667 129.698L52.4817 130.471L54.6486 138.558L57.5336 137.785L55.3667 129.698ZM49.5205 135.593L52.1649 145.504L60.2543 143.345L57.6099 133.435L49.5205 135.593ZM52.1661 145.508C52.4893 146.714 52.9827 147.884 53.7086 148.94L60.6083 144.198C60.5166 144.064 60.3774 143.805 60.2532 143.341L52.1661 145.508ZM53.7387 148.984C54.4492 149.99 55.3477 150.872 56.4552 151.534L60.7542 144.35C60.7524 144.349 60.7387 144.341 60.7126 144.316C60.6856 144.29 60.639 144.241 60.5781 144.155L53.7387 148.984ZM56.4552 151.534C57.5474 152.188 58.7399 152.572 59.9807 152.706L60.874 144.381C60.7855 144.371 60.7629 144.355 60.7542 144.35L56.4552 151.534ZM59.9965 152.707C61.2479 152.837 62.4765 152.702 63.6475 152.388L61.4805 144.301C61.1457 144.391 60.9498 144.389 60.8583 144.379L59.9965 152.707ZM63.6475 152.388C64.8355 152.07 65.9945 151.575 67.0361 150.832L62.1758 144.015C62.0964 144.072 61.8942 144.19 61.4805 144.301L63.6475 152.388ZM67.024 150.841C68.0675 150.102 68.9478 149.157 69.5896 148.005L62.2754 143.931C62.275 143.931 62.2745 143.933 62.2688 143.939C62.2625 143.946 62.2397 143.97 62.188 144.006L67.024 150.841ZM69.5901 148.004C70.2303 146.854 70.5623 145.615 70.6532 144.364L62.3028 143.758C62.2962 143.848 62.284 143.899 62.2781 143.919C62.2726 143.939 62.2703 143.94 62.2749 143.932L69.5901 148.004ZM70.6501 144.403C70.7552 143.123 70.5966 141.861 70.2736 140.656L62.1865 142.823C62.311 143.288 62.3177 143.573 62.3058 143.718L70.6501 144.403ZM70.2725 140.652L67.6075 130.747L59.5227 132.922L62.1876 142.827L70.2725 140.652ZM79.3653 138.605L83.4695 137.781L82.5908 133.407L78.2818 134.562L79.3653 138.605ZM76.4803 139.378L75.3968 135.335L71.5909 136.354L72.3786 140.215L76.4803 139.378ZM73.8524 142.712L73.7166 146.896L73.7908 146.899L73.865 146.898L73.8524 142.712ZM73.1538 142.569L74.69 138.675L74.6637 138.665L74.6372 138.655L73.1538 142.569ZM72.568 142.231L69.8847 145.444L69.9238 145.477L69.9637 145.508L72.568 142.231ZM72.0587 141.685L68.6898 144.17L68.6982 144.182L68.7067 144.193L72.0587 141.685ZM71.4233 140.546L67.5538 142.143L67.5668 142.175L67.5804 142.206L71.4233 140.546ZM70.0913 135.698L74.2285 135.06L74.2272 135.052L70.0913 135.698ZM70.0057 134.599L65.8203 134.52L65.8201 134.531L65.8199 134.542L70.0057 134.599ZM70.1844 133.417L66.1986 132.138L66.1949 132.149L66.1913 132.16L70.1844 133.417ZM70.7132 132.516L67.7399 129.57L67.7355 129.574L70.7132 132.516ZM71.1894 132.158L69.1873 128.481L69.1724 128.489L69.1575 128.498L71.1894 132.158ZM72.9417 131.798L72.4951 135.96L72.5514 135.967L72.6079 135.971L72.9417 131.798ZM73.8438 132.085L76.1659 128.602L76.1099 128.564L76.0526 128.529L73.8438 132.085ZM74.5211 132.805L70.9718 135.025L70.9924 135.058L71.0136 135.091L74.5211 132.805ZM75.04 133.921L71.0706 135.251L72.3211 138.983L76.1235 137.964L75.04 133.921ZM77.9147 133.151L78.9982 137.194L83.412 136.012L81.8482 131.718L77.9147 133.151ZM73.457 129.327L73.0862 133.497L73.0934 133.498L73.1005 133.498L73.457 129.327ZM69.6739 130.198L71.8265 133.788L71.8432 133.778L71.8597 133.768L69.6739 130.198ZM68.509 131.148L65.4086 128.335L65.3717 128.376L65.3359 128.418L68.509 131.148ZM67.1449 134.353L71.2964 134.891L71.3025 134.844L71.3075 134.796L67.1449 134.353ZM67.1208 135.988L71.2914 135.627L71.2906 135.618L67.1208 135.988ZM68.6194 141.539L64.8292 143.317L64.8395 143.339L64.8499 143.36L68.6194 141.539ZM69.505 142.997L66.184 145.545L66.1995 145.565L66.2152 145.585L69.505 142.997ZM70.6066 144.11L68.0036 147.389L68.0217 147.403L68.04 147.417L70.6066 144.11ZM71.9057 144.851L70.3912 148.754L70.405 148.759L70.4189 148.765L71.9057 144.851ZM73.4993 145.173L73.3148 149.355L73.3475 149.356L73.3801 149.357L73.4993 145.173ZM77.3218 144.038L79.6835 147.495L79.6999 147.484L79.7161 147.472L77.3218 144.038ZM79.4171 140.77L75.2943 140.044L75.2909 140.064L75.2877 140.083L79.4171 140.77ZM78.2818 134.562L75.3968 135.335L77.5637 143.422L80.4487 142.649L78.2818 134.562ZM72.3786 140.215C72.3939 140.29 72.396 140.323 72.3957 140.318C72.3954 140.314 72.3918 140.259 72.4017 140.164L80.7289 141.033C80.8215 140.145 80.7358 139.295 80.582 138.541L72.3786 140.215ZM72.4017 140.164C72.4175 140.012 72.4784 139.714 72.6834 139.372L79.8646 143.676C80.384 142.81 80.639 141.895 80.7289 141.033L72.4017 140.164ZM72.6834 139.372C72.8816 139.041 73.1372 138.804 73.3666 138.657L77.8835 145.707C78.6639 145.207 79.3521 144.531 79.8646 143.676L72.6834 139.372ZM73.3666 138.657C73.5153 138.562 73.6012 138.545 73.5637 138.555L75.7306 146.642C76.446 146.45 77.1838 146.155 77.8835 145.707L73.3666 138.657ZM73.5637 138.555C73.5761 138.551 73.6734 138.527 73.8397 138.526L73.865 146.898C74.5298 146.896 75.1569 146.796 75.7306 146.642L73.5637 138.555ZM73.9881 138.528C74.2111 138.535 74.453 138.582 74.69 138.675L71.6176 146.463C72.2976 146.732 73.0052 146.873 73.7166 146.896L73.9881 138.528ZM74.6372 138.655C74.8723 138.744 75.0508 138.857 75.1723 138.954L69.9637 145.508C70.458 145.901 71.027 146.24 71.6704 146.484L74.6372 138.655ZM75.2513 139.018C75.3536 139.103 75.4028 139.167 75.4106 139.178L68.7067 144.193C69.0345 144.631 69.4234 145.059 69.8847 145.444L75.2513 139.018ZM75.4275 139.2C75.429 139.202 75.4128 139.18 75.383 139.127C75.3533 139.074 75.3134 138.995 75.2662 138.886L67.5804 142.206C67.8693 142.875 68.2299 143.547 68.6898 144.17L75.4275 139.2ZM75.2927 138.949C75.1882 138.696 75.069 138.347 74.9453 137.886L66.8582 140.053C67.0535 140.782 67.282 141.485 67.5538 142.143L75.2927 138.949ZM74.9453 137.886L74.4006 135.853L66.3135 138.02L66.8582 140.053L74.9453 137.886ZM74.4006 135.853C74.3165 135.539 74.2619 135.276 74.2285 135.06L65.954 136.337C66.0402 136.895 66.1628 137.457 66.3135 138.02L74.4006 135.853ZM74.2272 135.052C74.1957 134.85 74.1906 134.722 74.1915 134.656L65.8199 134.542C65.8116 135.153 65.8635 135.757 65.9553 136.345L74.2272 135.052ZM74.1912 134.677C74.1921 134.626 74.1957 134.603 74.1956 134.603C74.1956 134.604 74.1917 134.629 74.1775 134.674L66.1913 132.16C65.9412 132.955 65.8346 133.754 65.8203 134.52L74.1912 134.677ZM74.1702 134.697C74.111 134.881 73.972 135.174 73.691 135.459L67.7355 129.574C66.9813 130.337 66.4897 131.231 66.1986 132.138L74.1702 134.697ZM73.6866 135.463C73.536 135.615 73.3748 135.732 73.2212 135.818L69.1575 128.498C68.6462 128.781 68.1677 129.138 67.7399 129.57L73.6866 135.463ZM73.1914 135.834C73.0576 135.907 72.9505 135.943 72.8901 135.959L70.7232 127.872C70.2111 128.009 69.6925 128.206 69.1873 128.481L73.1914 135.834ZM72.8901 135.959C72.92 135.951 72.9006 135.958 72.8382 135.965C72.7752 135.971 72.6567 135.978 72.4951 135.96L73.3883 127.636C72.4098 127.531 71.4976 127.664 70.7232 127.872L72.8901 135.959ZM72.6079 135.971C72.3403 135.95 71.987 135.859 71.6349 135.641L76.0526 128.529C75.1724 127.982 74.2178 127.701 73.2755 127.625L72.6079 135.971ZM71.5216 135.568C71.2111 135.361 71.0421 135.138 70.9718 135.025L78.0704 130.586C77.615 129.858 76.9945 129.154 76.1659 128.602L71.5216 135.568ZM71.0136 135.091C70.9929 135.059 70.992 135.052 71.0048 135.08C71.0177 135.107 71.0411 135.162 71.0706 135.251L79.0094 132.591C78.7781 131.901 78.4648 131.19 78.0286 130.52L71.0136 135.091ZM76.1235 137.964L78.9982 137.194L76.8313 129.107L73.9566 129.877L76.1235 137.964ZM81.8482 131.718C81.4463 130.615 80.9003 129.564 80.1718 128.62L73.5442 133.736C73.6696 133.898 73.8281 134.163 73.9813 134.583L81.8482 131.718ZM80.1718 128.62C79.4202 127.646 78.4896 126.819 77.3748 126.21L73.3583 133.556C73.3781 133.567 73.4417 133.603 73.5442 133.736L80.1718 128.62ZM77.3748 126.21C76.2505 125.595 75.0426 125.261 73.8135 125.156L73.1005 133.498C73.2829 133.514 73.348 133.55 73.3583 133.556L77.3748 126.21ZM73.8279 125.157C72.5494 125.044 71.2909 125.2 70.0932 125.521L72.2601 133.608C72.7051 133.488 72.9669 133.486 73.0862 133.497L73.8279 125.157ZM70.0932 125.521C69.1867 125.763 68.3089 126.125 67.488 126.628L71.8597 133.768C71.9338 133.723 72.0578 133.662 72.2601 133.608L70.0932 125.521ZM67.5212 126.608C66.7397 127.076 66.029 127.652 65.4086 128.335L71.6094 133.961C71.6573 133.908 71.7232 133.85 71.8265 133.788L67.5212 126.608ZM65.3359 128.418C64.6841 129.175 64.1624 130.017 63.7658 130.922L71.4344 134.282C71.5112 134.107 71.5955 133.979 71.6821 133.879L65.3359 128.418ZM63.7658 130.922C63.3455 131.881 63.0914 132.885 62.9822 133.909L71.3075 134.796C71.332 134.567 71.3813 134.403 71.4344 134.282L63.7658 130.922ZM62.9933 133.815C62.8836 134.662 62.876 135.513 62.951 136.358L71.2906 135.618C71.2638 135.316 71.2722 135.077 71.2964 134.891L62.9933 133.815ZM62.9502 136.349C63.0223 137.182 63.1742 138.008 63.3929 138.824L71.48 136.657C71.376 136.269 71.3174 135.927 71.2914 135.627L62.9502 136.349ZM63.3929 138.824L63.9321 140.837L72.0192 138.67L71.48 136.657L63.3929 138.824ZM63.9321 140.837C64.162 141.695 64.4578 142.525 64.8292 143.317L72.4095 139.762C72.2675 139.459 72.1341 139.099 72.0192 138.67L63.9321 140.837ZM64.8499 143.36C65.2222 144.131 65.6627 144.866 66.184 145.545L72.826 140.448C72.6936 140.276 72.5437 140.039 72.3888 139.719L64.8499 143.36ZM66.2152 145.585C66.7393 146.251 67.3344 146.857 68.0036 147.389L73.2096 140.832C73.0775 140.727 72.9382 140.59 72.7948 140.408L66.2152 145.585ZM68.04 147.417C68.7518 147.97 69.5369 148.423 70.3912 148.754L73.4201 140.949C73.3574 140.924 73.2765 140.883 73.1733 140.803L68.04 147.417ZM70.4189 148.765C71.3584 149.122 72.3316 149.311 73.3148 149.355L73.6837 140.991C73.5385 140.984 73.4494 140.96 73.3924 140.938L70.4189 148.765ZM73.3801 149.357C74.4002 149.386 75.399 149.251 76.3606 148.993L74.1936 140.906C73.9232 140.978 73.7367 140.992 73.6184 140.988L73.3801 149.357ZM76.3606 148.993C77.5322 148.679 78.659 148.195 79.6835 147.495L74.9601 140.582C74.819 140.678 74.5826 140.802 74.1936 140.906L76.3606 148.993ZM79.7161 147.472C80.7084 146.78 81.5734 145.915 82.246 144.865L75.196 140.349C75.1651 140.397 75.0974 140.486 74.9276 140.604L79.7161 147.472ZM82.246 144.865C82.9188 143.815 83.346 142.663 83.5466 141.457L75.2877 140.083C75.2635 140.228 75.2266 140.301 75.196 140.349L82.246 144.865ZM83.54 141.496C83.7609 140.24 83.7122 138.989 83.4695 137.781L75.261 139.43C75.326 139.753 75.3118 139.945 75.2943 140.044L83.54 141.496ZM92.7346 140.041L93.8181 144.084L97.8616 143.001L96.7782 138.957L92.7346 140.041ZM88.7291 125.092L92.7727 124.009L91.6892 119.965L87.6457 121.048L88.7291 125.092ZM85.875 125.857L84.7915 121.813L80.7479 122.897L81.8314 126.94L85.875 125.857ZM87.5173 131.986L88.6008 136.03L92.6443 134.946L91.5609 130.903L87.5173 131.986ZM83.2874 133.12L79.2438 134.203L80.3273 138.247L84.3708 137.163L83.2874 133.12ZM81.645 126.99L85.6886 125.907L84.6051 121.863L80.5615 122.947L81.645 126.99ZM78.7806 127.758L77.6971 123.714L73.6535 124.798L74.737 128.841L78.7806 127.758ZM82.786 142.706L78.7425 143.79L79.8259 147.833L83.8695 146.75L82.786 142.706ZM85.6505 141.939L86.7339 145.982L90.7775 144.899L89.694 140.855L85.6505 141.939ZM83.9146 135.46L82.8311 131.417L78.7876 132.5L79.871 136.544L83.9146 135.46ZM88.1445 134.327L92.1881 133.243L91.1046 129.2L87.0611 130.283L88.1445 134.327ZM89.8804 140.805L85.8368 141.889L86.9203 145.932L90.9639 144.849L89.8804 140.805ZM96.7782 138.957L92.7727 124.009L84.6856 126.176L88.691 141.124L96.7782 138.957ZM87.6457 121.048L84.7915 121.813L86.9584 129.9L89.8126 129.136L87.6457 121.048ZM81.8314 126.94L83.4737 133.07L91.5609 130.903L89.9185 124.773L81.8314 126.94ZM86.4338 127.943L82.2039 129.076L84.3708 137.163L88.6008 136.03L86.4338 127.943ZM87.3309 132.036L85.6886 125.907L77.6015 128.074L79.2438 134.203L87.3309 132.036ZM80.5615 122.947L77.6971 123.714L79.864 131.801L82.7285 131.034L80.5615 122.947ZM74.737 128.841L78.7425 143.79L86.8296 141.623L82.8241 126.674L74.737 128.841ZM83.8695 146.75L86.7339 145.982L84.567 137.895L81.7025 138.663L83.8695 146.75ZM89.694 140.855L87.9582 134.377L79.871 136.544L81.6069 143.022L89.694 140.855ZM84.9981 139.504L89.228 138.371L87.0611 130.283L82.8311 131.417L84.9981 139.504ZM84.101 135.41L85.8368 141.889L93.924 139.722L92.1881 133.243L84.101 135.41ZM90.9639 144.849L93.8181 144.084L91.6511 135.997L88.7969 136.762L90.9639 144.849ZM100.359 132.397L101.442 136.44L105.418 135.375L104.42 131.382L100.359 132.397ZM97.918 122.63L101.979 121.615L100.947 117.484L96.8345 118.586L97.918 122.63ZM94.9919 123.414L93.9084 119.37L89.796 120.472L90.9672 124.566L94.9919 123.414ZM97.7614 133.093L93.7367 134.244L94.869 138.202L98.8448 137.136L97.7614 133.093ZM99.1565 138.012L97.0218 141.613L97.0425 141.625L97.0634 141.637L99.1565 138.012ZM101.59 137.36L105.191 139.494L105.203 139.474L105.215 139.453L101.59 137.36ZM104.42 131.382L101.979 121.615L93.8567 123.645L96.2976 133.412L104.42 131.382ZM96.8345 118.586L93.9084 119.37L96.0754 127.457L99.0014 126.673L96.8345 118.586ZM90.9672 124.566L93.7367 134.244L101.786 131.941L99.0166 122.262L90.9672 124.566ZM98.8448 137.136L101.442 136.44L99.2754 128.353L96.6779 129.049L98.8448 137.136ZM94.3743 138.105C94.7621 139.552 95.6648 140.808 97.0218 141.613L101.291 134.411C101.551 134.565 101.82 134.791 102.047 135.095C102.271 135.396 102.397 135.696 102.461 135.938L94.3743 138.105ZM97.0634 141.637C98.6251 142.539 100.27 142.52 101.58 142.169L99.4131 134.082C99.5298 134.051 99.7803 134.001 100.127 134.031C100.49 134.062 100.882 134.174 101.25 134.386L97.0634 141.637ZM101.58 142.169C102.914 141.812 104.301 140.996 105.191 139.494L97.9887 135.225C98.1871 134.89 98.453 134.611 98.7473 134.404C99.0298 134.206 99.2765 134.119 99.4131 134.082L101.58 142.169ZM105.215 139.453C106.008 138.079 106.183 136.523 105.788 135.046L97.7008 137.213C97.633 136.961 97.5921 136.626 97.6402 136.244C97.6886 135.859 97.8146 135.526 97.9644 135.267L105.215 139.453ZM105.788 135.046C105.399 133.594 104.489 132.308 103.083 131.496L98.8969 138.747C98.6221 138.588 98.3439 138.355 98.113 138.047C97.8853 137.742 97.7624 137.443 97.7008 137.213L105.788 135.046ZM103.083 131.496C101.561 130.617 99.9351 130.586 98.574 130.951L100.741 139.038C100.595 139.077 100.327 139.125 99.9729 139.092C99.6049 139.057 99.2321 138.94 98.8969 138.747L103.083 131.496ZM98.574 130.951C97.2379 131.309 95.7979 132.138 94.9076 133.722L102.206 137.825C101.999 138.193 101.717 138.494 101.411 138.711C101.118 138.917 100.867 139.004 100.741 139.038L98.574 130.951ZM94.9076 133.722C94.1166 135.129 93.993 136.681 94.3743 138.105L102.461 135.938C102.52 136.157 102.563 136.466 102.522 136.834C102.481 137.207 102.363 137.546 102.206 137.825L94.9076 133.722Z" fill="#2E2E2E"/>
<path d="M32.1178 125.765L30.5285 119.875L25.1794 121.308L25.7572 123.464L28.2315 122.801L28.9475 125.514C28.896 125.623 28.806 125.739 28.6774 125.862C28.5539 125.975 28.4045 126.089 28.2294 126.202C28.0542 126.315 27.8617 126.418 27.6519 126.51C27.442 126.603 27.2242 126.68 26.9983 126.741C26.6268 126.833 26.2793 126.864 25.9556 126.833C25.637 126.794 25.3388 126.694 25.0611 126.533C24.8962 126.438 24.737 126.323 24.5835 126.188C24.4349 126.045 24.293 125.885 24.1577 125.708C23.936 125.401 23.7278 125.035 23.5333 124.61C23.3457 124.183 23.1794 123.7 23.0345 123.159L22.4843 121.106C22.3688 120.674 22.2854 120.268 22.2343 119.885C22.19 119.501 22.1755 119.145 22.1906 118.819C22.2093 118.395 22.2725 118.015 22.3803 117.678C22.4949 117.339 22.6447 117.05 22.8297 116.81C22.9728 116.632 23.1379 116.481 23.3249 116.358C23.5119 116.234 23.7149 116.143 23.9339 116.085C24.3378 115.976 24.6981 115.938 25.0149 115.971C25.3367 115.995 25.6219 116.087 25.8704 116.248C26.0929 116.394 26.2896 116.594 26.4606 116.849C26.6385 117.102 26.8 117.404 26.9451 117.754L29.7582 117C29.4903 116.301 29.1562 115.698 28.7557 115.189C28.3621 114.678 27.8956 114.278 27.3562 113.99C26.8186 113.709 26.2065 113.546 25.52 113.503C24.8403 113.458 24.0795 113.548 23.2376 113.773C22.69 113.92 22.19 114.135 21.7375 114.417C21.2851 114.7 20.8895 115.044 20.5509 115.45C20.2646 115.806 20.0186 116.202 19.8128 116.639C19.6139 117.073 19.4611 117.543 19.3544 118.049C19.2487 118.613 19.2134 119.22 19.2484 119.871C19.2816 120.515 19.3936 121.193 19.5843 121.905L20.129 123.938C20.3289 124.684 20.5792 125.357 20.8798 125.959C21.1872 126.559 21.5389 127.077 21.9347 127.514C22.2834 127.912 22.6663 128.246 23.0834 128.516C23.5073 128.784 23.9507 128.988 24.4138 129.128C24.8818 129.259 25.3718 129.322 25.884 129.317C26.4048 129.317 26.939 129.243 27.4865 129.097C28.1162 128.928 28.6893 128.712 29.2057 128.449C29.7221 128.186 30.177 127.899 30.5706 127.588C30.9591 127.286 31.283 126.975 31.5424 126.656C31.8017 126.338 31.9935 126.04 32.1178 125.765ZM42.3806 117.865L41.7698 115.586L35.6303 117.231L34.6206 113.463L41.7664 111.548L41.1364 109.197L31.0954 111.888L35.1009 126.836L45.1726 124.138L44.5482 121.807L37.3716 123.73L36.241 119.51L42.3806 117.865ZM55.1749 107.956L54.5449 105.605L42.4916 108.834L43.1216 111.185L47.6698 109.967L51.0453 122.564L53.9405 121.788L50.5651 109.191L55.1749 107.956ZM69.4524 101.61L70.0768 103.941L72.9208 103.179L75.68 113.476L72.8361 114.238L73.4578 116.559L82.1025 114.242L81.4808 111.922L78.565 112.703L75.8057 102.406L78.7215 101.624L78.0971 99.2938L69.4524 101.61ZM95.3057 110.705L91.3002 95.756L88.405 96.5318L90.9669 106.134L84.2674 97.6404L81.3619 98.419L85.3674 113.367L88.2729 112.589L85.6897 102.948L92.431 111.475L95.3057 110.705Z" fill="white"/>
<path d="M32.1178 125.765L35.9334 127.487L36.5498 126.121L36.1595 124.674L32.1178 125.765ZM30.5285 119.875L34.5701 118.784L33.4815 114.749L29.445 115.831L30.5285 119.875ZM25.1794 121.308L24.096 117.264L20.0524 118.348L21.1359 122.391L25.1794 121.308ZM25.7572 123.464L21.7136 124.547L22.7971 128.591L26.8406 127.507L25.7572 123.464ZM28.2315 122.801L32.2791 121.733L31.2069 117.67L27.148 118.757L28.2315 122.801ZM28.9475 125.514L32.7341 127.299L33.3841 125.92L32.9951 124.446L28.9475 125.514ZM28.6774 125.862L31.5134 128.941L31.5394 128.917L31.5649 128.893L28.6774 125.862ZM26.9983 126.741L28.0067 130.804L28.0443 130.794L28.0818 130.784L26.9983 126.741ZM25.9556 126.833L25.4428 130.988L25.5018 130.995L25.561 131L25.9556 126.833ZM24.5835 126.188L21.6736 129.198L21.7452 129.267L21.82 129.333L24.5835 126.188ZM24.1577 125.708L20.7627 128.157L20.7985 128.207L20.8356 128.255L24.1577 125.708ZM23.5333 124.61L19.7015 126.296L19.7142 126.324L19.7272 126.353L23.5333 124.61ZM22.2343 119.885L18.0756 120.364L18.08 120.402L18.085 120.44L22.2343 119.885ZM22.1906 118.819L26.3723 119.012L26.3727 119.003L22.1906 118.819ZM22.3803 117.678L18.4148 116.337L18.4036 116.37L18.393 116.403L22.3803 117.678ZM22.8297 116.81L19.5692 114.184L19.5406 114.22L19.5128 114.256L22.8297 116.81ZM25.0149 115.971L24.5879 120.135L24.6469 120.141L24.7061 120.146L25.0149 115.971ZM25.8704 116.248L28.165 112.747L28.155 112.74L28.1449 112.734L25.8704 116.248ZM26.4606 116.849L22.9841 119.181L23.0094 119.219L23.0355 119.256L26.4606 116.849ZM26.9451 117.754L23.0782 119.357L24.4839 122.747L28.0285 121.797L26.9451 117.754ZM29.7582 117L30.8417 121.043L35.331 119.841L33.6669 115.501L29.7582 117ZM28.7557 115.189L25.4399 117.744L25.4528 117.761L25.4659 117.777L28.7557 115.189ZM27.3562 113.99L29.3293 110.298L29.3136 110.29L29.2978 110.281L27.3562 113.99ZM25.52 113.503L25.2417 117.68L25.2555 117.681L25.52 113.503ZM20.5509 115.45L17.3356 112.77L17.3127 112.797L17.2903 112.825L20.5509 115.45ZM19.8128 116.639L16.0262 114.854L16.0161 114.875L16.0062 114.897L19.8128 116.639ZM19.3544 118.049L15.2584 117.185L15.2486 117.231L15.2399 117.278L19.3544 118.049ZM19.2484 119.871L23.4291 119.656L23.4286 119.646L19.2484 119.871ZM20.8798 125.959L17.1349 127.83L17.1446 127.849L17.1544 127.869L20.8798 125.959ZM21.9347 127.514L25.0834 124.756L25.0603 124.729L25.0367 124.703L21.9347 127.514ZM23.0834 128.516L20.8101 132.031L20.8285 132.043L20.8471 132.055L23.0834 128.516ZM24.4138 129.128L23.2019 133.135L23.2421 133.147L23.2826 133.158L24.4138 129.128ZM25.884 129.317L25.8826 125.131L25.8621 125.131L25.8417 125.131L25.884 129.317ZM29.2057 128.449L27.3054 124.719L29.2057 128.449ZM30.5706 127.588L28.0006 124.284L27.9881 124.293L27.9758 124.303L30.5706 127.588ZM36.1595 124.674L34.5701 118.784L26.4868 120.965L28.0761 126.855L36.1595 124.674ZM29.445 115.831L24.096 117.264L26.2629 125.351L31.6119 123.918L29.445 115.831ZM21.1359 122.391L21.7136 124.547L29.8007 122.38L29.223 120.224L21.1359 122.391ZM26.8406 127.507L29.3149 126.844L27.148 118.757L24.6737 119.42L26.8406 127.507ZM24.1838 123.869L24.8998 126.582L32.9951 124.446L32.2791 121.733L24.1838 123.869ZM25.1608 123.729C25.2907 123.454 25.4311 123.249 25.536 123.114C25.6419 122.978 25.7339 122.884 25.79 122.831L31.5649 128.893C31.9072 128.566 32.3844 128.041 32.7341 127.299L25.1608 123.729ZM25.8414 122.782C25.8876 122.74 25.9226 122.712 25.9416 122.698C25.9607 122.683 25.9681 122.679 25.9605 122.684L30.4982 129.72C30.8288 129.506 31.1777 129.25 31.5134 128.941L25.8414 122.782ZM25.9605 122.684C25.9857 122.667 25.9876 122.669 25.9572 122.683L29.3466 130.338C29.7359 130.166 30.1228 129.962 30.4982 129.72L25.9605 122.684ZM25.9572 122.683C25.9489 122.686 25.9356 122.691 25.9148 122.697L28.0818 130.784C28.5127 130.669 28.9352 130.52 29.3466 130.338L25.9572 122.683ZM25.9899 122.678C25.9975 122.676 26.1287 122.644 26.3503 122.665L25.561 131C26.4299 131.083 27.2561 130.99 28.0067 130.804L25.9899 122.678ZM26.4684 122.678C26.706 122.708 26.9453 122.787 27.1542 122.908L22.968 130.159C23.7323 130.6 24.568 130.88 25.4428 130.988L26.4684 122.678ZM27.1542 122.908C27.2448 122.96 27.3084 123.01 27.3469 123.044L21.82 129.333C22.1656 129.636 22.5476 129.916 22.968 130.159L27.1542 122.908ZM27.4933 123.179C27.5042 123.189 27.4988 123.186 27.4797 123.161L20.8356 128.255C21.0873 128.583 21.3656 128.9 21.6736 129.198L27.4933 123.179ZM27.5527 123.259C27.5224 123.217 27.4453 123.098 27.3394 122.867L19.7272 126.353C20.0103 126.971 20.3495 127.584 20.7627 128.157L27.5527 123.259ZM27.3651 122.924C27.2783 122.727 27.1784 122.45 27.0781 122.076L18.991 124.242C19.1804 124.95 19.413 125.64 19.7015 126.296L27.3651 122.924ZM27.0781 122.076L26.5279 120.022L18.4408 122.189L18.991 124.242L27.0781 122.076ZM26.5279 120.022C26.4519 119.738 26.4075 119.51 26.3836 119.331L18.085 120.44C18.1633 121.026 18.2857 121.61 18.4408 122.189L26.5279 120.022ZM26.393 119.406C26.37 119.206 26.3693 119.078 26.3723 119.012L18.0089 118.625C17.9817 119.212 18.0101 119.796 18.0756 120.364L26.393 119.406ZM26.3727 119.003C26.3754 118.943 26.3801 118.911 26.3815 118.903C26.3828 118.895 26.3803 118.913 26.3675 118.953L18.393 116.403C18.1526 117.155 18.0404 117.911 18.0085 118.634L26.3727 119.003ZM26.3457 119.02C26.3383 119.042 26.2885 119.179 26.1467 119.363L19.5128 114.256C19.0009 114.921 18.6514 115.637 18.4148 116.337L26.3457 119.02ZM26.0903 119.435C25.9672 119.588 25.812 119.732 25.6314 119.851L21.0183 112.864C20.4638 113.231 19.9785 113.676 19.5692 114.184L26.0903 119.435ZM25.6314 119.851C25.4384 119.979 25.2277 120.072 25.0174 120.128L22.8505 112.041C22.2021 112.215 21.5853 112.49 21.0183 112.864L25.6314 119.851ZM25.0174 120.128C25.0749 120.113 24.9087 120.168 24.5879 120.135L25.4419 111.807C24.4875 111.709 23.6006 111.84 22.8505 112.041L25.0174 120.128ZM24.7061 120.146C24.3924 120.123 23.9891 120.017 23.5959 119.762L28.1449 112.734C27.2547 112.157 26.281 111.867 25.3237 111.796L24.7061 120.146ZM23.5758 119.749C23.2635 119.545 23.0773 119.32 22.9841 119.181L29.9371 114.517C29.5019 113.868 28.9223 113.243 28.165 112.747L23.5758 119.749ZM23.0355 119.256C23.0179 119.231 23.0155 119.224 23.0249 119.241C23.0342 119.259 23.0528 119.296 23.0782 119.357L30.812 116.15C30.5746 115.578 30.2739 114.995 29.8858 114.442L23.0355 119.256ZM28.0285 121.797L30.8417 121.043L28.6747 112.956L25.8616 113.71L28.0285 121.797ZM33.6669 115.501C33.2714 114.47 32.7425 113.486 32.0455 112.6L25.4659 117.777C25.5699 117.91 25.7093 118.133 25.8495 118.499L33.6669 115.501ZM32.0715 112.633C31.336 111.679 30.42 110.881 29.3293 110.298L25.383 117.682C25.3838 117.683 25.384 117.682 25.3876 117.686C25.3918 117.689 25.41 117.705 25.4399 117.744L32.0715 112.633ZM29.2978 110.281C28.175 109.694 26.9785 109.401 25.7844 109.325L25.2555 117.681C25.3486 117.687 25.4005 117.698 25.4201 117.703C25.4383 117.708 25.4333 117.709 25.4145 117.699L29.2978 110.281ZM25.7983 109.326C24.5528 109.243 23.3218 109.417 22.1541 109.73L24.3211 117.817C24.8372 117.679 25.1277 117.672 25.2417 117.68L25.7983 109.326ZM22.1541 109.73C21.2312 109.977 20.3452 110.351 19.5198 110.867L23.9553 117.968C24.0348 117.918 24.1488 117.863 24.3211 117.817L22.1541 109.73ZM19.5198 110.867C18.6941 111.383 17.961 112.02 17.3356 112.77L23.7662 118.131C23.818 118.069 23.876 118.017 23.9553 117.968L19.5198 110.867ZM17.2903 112.825C16.7844 113.453 16.3653 114.134 16.0262 114.854L23.5995 118.423C23.672 118.27 23.7449 118.159 23.8114 118.076L17.2903 112.825ZM16.0062 114.897C15.6689 115.634 15.4238 116.401 15.2584 117.185L23.4504 118.913C23.4984 118.686 23.5589 118.513 23.6194 118.38L16.0062 114.897ZM15.2399 117.278C15.065 118.211 15.0177 119.156 15.0683 120.096L23.4286 119.646C23.4091 119.284 23.4325 119.015 23.469 118.82L15.2399 117.278ZM15.0678 120.086C15.118 121.062 15.2845 122.032 15.5407 122.988L23.6279 120.821C23.5026 120.354 23.4452 119.968 23.4291 119.656L15.0678 120.086ZM15.5407 122.988L16.0854 125.021L24.1726 122.854L23.6279 120.821L15.5407 122.988ZM16.0854 125.021C16.3477 126 16.6916 126.943 17.1349 127.83L24.6246 124.088C24.4667 123.772 24.3101 123.367 24.1726 122.854L16.0854 125.021ZM17.1544 127.869C17.6057 128.749 18.1581 129.581 18.8326 130.325L25.0367 124.703C24.9196 124.574 24.7687 124.369 24.6052 124.05L17.1544 127.869ZM18.786 130.273C19.3734 130.943 20.047 131.538 20.8101 132.031L25.3567 125.001C25.2856 124.955 25.1934 124.881 25.0834 124.756L18.786 130.273ZM20.8471 132.055C21.5781 132.517 22.3648 132.882 23.2019 133.135L25.6256 125.121C25.5367 125.094 25.4365 125.051 25.3197 124.977L20.8471 132.055ZM23.2826 133.158C24.1524 133.402 25.0389 133.512 25.9263 133.503L25.8417 125.131C25.7048 125.132 25.6112 125.116 25.5449 125.097L23.2826 133.158ZM25.8853 133.503C26.8022 133.503 27.7004 133.373 28.57 133.14L26.4031 125.053C26.1775 125.114 26.0074 125.131 25.8826 125.131L25.8853 133.503ZM28.57 133.14C29.4477 132.905 30.299 132.59 31.106 132.179L27.3054 124.719C27.0795 124.834 26.7848 124.951 26.4031 125.053L28.57 133.14ZM31.106 132.179C31.8309 131.81 32.5252 131.379 33.1654 130.873L27.9758 124.303C27.8288 124.419 27.6132 124.562 27.3054 124.719L31.106 132.179ZM33.1406 130.893C33.732 130.433 34.2961 129.905 34.7902 129.298L28.2945 124.015C28.27 124.045 28.1862 124.139 28.0006 124.284L33.1406 130.893ZM34.7902 129.298C35.2018 128.791 35.6179 128.186 35.9334 127.487L28.3022 124.043C28.3209 124.001 28.3367 123.971 28.3472 123.952C28.3524 123.943 28.3566 123.936 28.3593 123.931C28.3621 123.926 28.3636 123.924 28.3636 123.924C28.3637 123.924 28.3624 123.926 28.3596 123.93C28.3567 123.934 28.3525 123.94 28.3468 123.948C28.3352 123.964 28.3181 123.986 28.2945 124.015L34.7902 129.298ZM42.3806 117.865L43.464 121.909L47.5076 120.825L46.4241 116.782L42.3806 117.865ZM41.7698 115.586L45.8134 114.503L44.7299 110.459L40.6864 111.542L41.7698 115.586ZM35.6303 117.231L31.5867 118.315L32.6702 122.358L36.7137 121.275L35.6303 117.231ZM34.6206 113.463L33.5372 109.42L29.4936 110.503L30.5771 114.547L34.6206 113.463ZM41.7664 111.548L42.8498 115.592L46.8934 114.509L45.8099 110.465L41.7664 111.548ZM41.1364 109.197L45.18 108.114L44.0965 104.07L40.0529 105.154L41.1364 109.197ZM31.0954 111.888L30.0119 107.844L25.9684 108.928L27.0519 112.971L31.0954 111.888ZM35.1009 126.836L31.0573 127.92L32.1408 131.963L36.1843 130.88L35.1009 126.836ZM45.1726 124.138L46.2561 128.181L50.2997 127.098L49.2162 123.054L45.1726 124.138ZM44.5482 121.807L48.5917 120.724L47.5083 116.68L43.4647 117.763L44.5482 121.807ZM37.3716 123.73L33.3281 124.813L34.4115 128.857L38.4551 127.774L37.3716 123.73ZM36.241 119.51L35.1575 115.467L31.1139 116.55L32.1974 120.594L36.241 119.51ZM46.4241 116.782L45.8134 114.503L37.7263 116.669L38.337 118.949L46.4241 116.782ZM40.6864 111.542L34.5468 113.188L36.7137 121.275L42.8533 119.63L40.6864 111.542ZM39.6738 116.148L38.6642 112.38L30.5771 114.547L31.5867 118.315L39.6738 116.148ZM35.7041 117.507L42.8498 115.592L40.6829 107.505L33.5372 109.42L35.7041 117.507ZM45.8099 110.465L45.18 108.114L37.0928 110.281L37.7228 112.632L45.8099 110.465ZM40.0529 105.154L30.0119 107.844L32.1789 115.931L42.2199 113.241L40.0529 105.154ZM27.0519 112.971L31.0573 127.92L39.1444 125.753L35.139 110.804L27.0519 112.971ZM36.1843 130.88L46.2561 128.181L44.0892 120.094L34.0174 122.793L36.1843 130.88ZM49.2162 123.054L48.5917 120.724L40.5046 122.891L41.1291 125.221L49.2162 123.054ZM43.4647 117.763L36.2882 119.686L38.4551 127.774L45.6316 125.851L43.4647 117.763ZM41.4152 122.647L40.2845 118.427L32.1974 120.594L33.3281 124.813L41.4152 122.647ZM37.3244 123.554L43.464 121.909L41.2971 113.822L35.1575 115.467L37.3244 123.554ZM55.1749 107.956L56.2583 111.999L60.3019 110.916L59.2184 106.872L55.1749 107.956ZM54.5449 105.605L58.5885 104.521L57.505 100.478L53.4614 101.561L54.5449 105.605ZM42.4916 108.834L41.4081 104.791L37.3646 105.874L38.4481 109.918L42.4916 108.834ZM43.1216 111.185L39.078 112.269L40.1615 116.312L44.2051 115.229L43.1216 111.185ZM47.6698 109.967L51.7134 108.883L50.6299 104.84L46.5863 105.923L47.6698 109.967ZM51.0453 122.564L47.0017 123.648L48.0852 127.691L52.1288 126.608L51.0453 122.564ZM53.9405 121.788L55.024 125.832L59.0676 124.748L57.9841 120.705L53.9405 121.788ZM50.5651 109.191L49.4816 105.147L45.438 106.231L46.5215 110.274L50.5651 109.191ZM59.2184 106.872L58.5885 104.521L50.5013 106.688L51.1313 109.039L59.2184 106.872ZM53.4614 101.561L41.4081 104.791L43.5751 112.878L55.6284 109.648L53.4614 101.561ZM38.4481 109.918L39.078 112.269L47.1652 110.102L46.5352 107.751L38.4481 109.918ZM44.2051 115.229L48.7533 114.01L46.5863 105.923L42.0381 107.142L44.2051 115.229ZM43.6262 111.05L47.0017 123.648L55.0888 121.481L51.7134 108.883L43.6262 111.05ZM52.1288 126.608L55.024 125.832L52.8571 117.745L49.9618 118.521L52.1288 126.608ZM57.9841 120.705L54.6086 108.107L46.5215 110.274L49.897 122.872L57.9841 120.705ZM51.6485 113.234L56.2583 111.999L54.0914 103.912L49.4816 105.147L51.6485 113.234ZM69.4524 101.61L68.3689 97.5665L64.3253 98.65L65.4088 102.694L69.4524 101.61ZM70.0768 103.941L66.0333 105.024L67.1168 109.068L71.1603 107.984L70.0768 103.941ZM72.9208 103.179L76.9643 102.095L75.8809 98.0516L71.8373 99.1351L72.9208 103.179ZM75.68 113.476L76.7635 117.52L80.807 116.436L79.7236 112.393L75.68 113.476ZM72.8361 114.238L71.7526 110.195L67.7091 111.278L68.7925 115.322L72.8361 114.238ZM73.4578 116.559L69.4143 117.642L70.4977 121.686L74.5413 120.602L73.4578 116.559ZM82.1025 114.242L83.186 118.286L87.2295 117.202L86.1461 113.159L82.1025 114.242ZM81.4808 111.922L85.5243 110.839L84.4409 106.795L80.3973 107.878L81.4808 111.922ZM78.565 112.703L74.5214 113.787L75.6049 117.83L79.6485 116.747L78.565 112.703ZM75.8057 102.406L74.7223 98.3621L70.6787 99.4455L71.7622 103.489L75.8057 102.406ZM78.7215 101.624L79.805 105.668L83.8486 104.584L82.7651 100.541L78.7215 101.624ZM78.0971 99.2938L82.1406 98.2103L81.0572 94.1667L77.0136 95.2502L78.0971 99.2938ZM65.4088 102.694L66.0333 105.024L74.1204 102.857L73.4959 100.527L65.4088 102.694ZM71.1603 107.984L74.0042 107.222L71.8373 99.1351L68.9934 99.8971L71.1603 107.984ZM68.8772 104.262L71.6365 114.56L79.7236 112.393L76.9643 102.095L68.8772 104.262ZM74.5965 109.433L71.7526 110.195L73.9196 118.282L76.7635 117.52L74.5965 109.433ZM68.7925 115.322L69.4143 117.642L77.5014 115.475L76.8797 113.155L68.7925 115.322ZM74.5413 120.602L83.186 118.286L81.019 110.199L72.3744 112.515L74.5413 120.602ZM86.1461 113.159L85.5243 110.839L77.4372 113.005L78.0589 115.326L86.1461 113.159ZM80.3973 107.878L77.4815 108.66L79.6485 116.747L82.5643 115.966L80.3973 107.878ZM82.6086 111.62L79.8493 101.322L71.7622 103.489L74.5214 113.787L82.6086 111.62ZM76.8892 106.449L79.805 105.668L77.6381 97.5808L74.7223 98.3621L76.8892 106.449ZM82.7651 100.541L82.1406 98.2103L74.0535 100.377L74.678 102.708L82.7651 100.541ZM77.0136 95.2502L68.3689 97.5665L70.5358 105.654L79.1805 103.337L77.0136 95.2502ZM95.3057 110.705L96.3891 114.748L100.433 113.665L99.3492 109.621L95.3057 110.705ZM91.3002 95.756L95.3438 94.6725L94.2603 90.629L90.2168 91.7124L91.3002 95.756ZM88.405 96.5318L87.3215 92.4882L83.2823 93.5705L84.3603 97.6109L88.405 96.5318ZM90.9669 106.134L87.6801 108.727L95.0116 105.055L90.9669 106.134ZM84.2674 97.6404L87.5542 95.0479L85.8469 92.8833L83.184 93.5969L84.2674 97.6404ZM81.3619 98.419L80.2784 94.3754L76.2349 95.4589L77.3184 99.5024L81.3619 98.419ZM85.3674 113.367L81.3238 114.451L82.4073 118.495L86.4508 117.411L85.3674 113.367ZM88.2729 112.589L89.3563 116.633L93.3999 115.549L92.3164 111.505L88.2729 112.589ZM85.6897 102.948L88.9735 100.352L81.6461 104.032L85.6897 102.948ZM92.431 111.475L89.1471 114.071L90.8548 116.231L93.5144 115.518L92.431 111.475ZM99.3492 109.621L95.3438 94.6725L87.2567 96.8395L91.2621 111.788L99.3492 109.621ZM90.2168 91.7124L87.3215 92.4882L89.4884 100.575L92.3837 99.7995L90.2168 91.7124ZM84.3603 97.6109L86.9222 107.213L95.0116 105.055L92.4497 95.4526L84.3603 97.6109ZM94.2537 103.542L87.5542 95.0479L80.9806 100.233L87.6801 108.727L94.2537 103.542ZM83.184 93.5969L80.2784 94.3754L82.4454 102.463L85.3509 101.684L83.184 93.5969ZM77.3184 99.5024L81.3238 114.451L89.4109 112.284L85.4055 97.3355L77.3184 99.5024ZM86.4508 117.411L89.3563 116.633L87.1894 108.545L84.2839 109.324L86.4508 117.411ZM92.3164 111.505L89.7333 101.865L81.6461 104.032L84.2293 113.672L92.3164 111.505ZM82.4059 105.545L89.1471 114.071L95.7148 108.879L88.9735 100.352L82.4059 105.545ZM93.5144 115.518L96.3891 114.748L94.2222 106.661L91.3475 107.431L93.5144 115.518Z" fill="#2E2E2E"/>
<defs>
<clipPath id="clip0_1_5908">
<rect width="43" height="43" fill="white" transform="translate(22 52)"/>
</clipPath>
</defs>
</svg>
