<svg width="276" height="205" viewBox="0 0 276 205" fill="none" xmlns="http://www.w3.org/2000/svg">
<rect x="9.58105" y="8.64813" width="265.497" height="196.312" rx="19" fill="#2E2E2E"/>
<rect x="2.93262" y="2" width="261.497" height="192.312" rx="17" fill="white" stroke="#2E2E2E" stroke-width="4"/>
<path d="M2.93262 16C2.93262 8.26801 9.20063 2 16.9326 2H248.43C257.266 2 264.43 9.16344 264.43 18V34.3221H2.93262V16Z" fill="white" stroke="#2E2E2E" stroke-width="4"/>
<circle cx="210.217" cy="19.0259" r="5.91849" fill="#69CF9C" stroke="#2E2E2E" stroke-width="2"/>
<circle cx="229.243" cy="19.0259" r="5.91849" fill="#FDD400" stroke="#2E2E2E" stroke-width="2"/>
<circle cx="247.404" cy="19.0259" r="5.91849" fill="#FB9191" stroke="#2E2E2E" stroke-width="2"/>
<circle cx="64.4963" cy="106.804" r="31.5656" fill="#C4C4C4"/>
<rect x="21.5" y="57.5" width="81" height="112" fill="#FFA2A2" stroke="black" stroke-width="3"/>
<path d="M42.3825 141.862C46.3689 155.44 60.6156 163.219 74.1934 159.226C87.7712 155.239 95.55 140.993 91.557 127.415C87.5706 113.837 73.3306 106.065 59.7527 110.051C46.1682 114.044 38.3961 128.284 42.3825 141.862Z" fill="black"/>
<path d="M42.3825 141.862C46.3689 155.44 60.6156 163.219 74.1934 159.226C87.7712 155.239 95.55 140.993 91.557 127.415C87.5706 113.837 73.3306 106.065 59.7527 110.051C46.1682 114.044 38.3961 128.284 42.3825 141.862Z" stroke="black" stroke-width="2" stroke-miterlimit="10" stroke-linecap="round" stroke-linejoin="round"/>
<path d="M67.8593 129.669C68.9094 133.241 72.6483 135.281 76.22 134.23C79.7917 133.18 81.8317 129.441 80.7816 125.87C79.7315 122.298 75.9926 120.258 72.4209 121.308C68.8559 122.358 66.8092 126.104 67.8593 129.669Z" fill="black" stroke="black" stroke-width="2" stroke-miterlimit="10" stroke-linecap="round" stroke-linejoin="round"/>
<path d="M67.8598 129.669C68.4551 131.702 70.5887 132.866 72.6221 132.271C74.6554 131.675 75.8192 129.542 75.2239 127.508C74.6286 125.475 72.495 124.311 70.4617 124.907C68.4283 125.509 67.2645 127.635 67.8598 129.669Z" fill="black"/>
<path d="M50.6161 134.732C51.6662 138.304 55.4051 140.344 58.9769 139.294C62.5486 138.244 64.5886 134.505 63.5385 130.933C62.4884 127.361 58.7494 125.321 55.1777 126.371C51.6127 127.421 49.566 131.167 50.6161 134.732Z" fill="black" stroke="black" stroke-width="2" stroke-miterlimit="10" stroke-linecap="round" stroke-linejoin="round"/>
<path d="M50.6166 134.732C51.2119 136.765 53.3456 137.929 55.3789 137.334C57.4122 136.739 58.576 134.605 57.9808 132.572C57.3855 130.538 55.2518 129.375 53.2185 129.97C51.1852 130.572 50.0214 132.705 50.6166 134.732Z" fill="black"/>
<path d="M61.4053 141.073C62.5223 144.865 66.4953 147.039 70.2877 145.922C74.0801 144.805 76.2539 140.832 75.1369 137.04" stroke="black" stroke-width="2" stroke-miterlimit="10" stroke-linecap="round" stroke-linejoin="round"/>
<path d="M41.0446 139.856C45.031 153.433 59.2777 161.212 72.8555 157.219C86.4333 153.233 94.2122 138.986 90.2191 125.408C86.2327 111.83 71.9927 104.058 58.4149 108.045C44.8303 112.038 37.0582 126.278 41.0446 139.856Z" fill="#EFD552"/>
<path d="M41.0446 139.856C45.031 153.433 59.2777 161.212 72.8555 157.219C86.4333 153.233 94.2122 138.986 90.2191 125.408C86.2327 111.83 71.9927 104.058 58.4149 108.045C44.8303 112.038 37.0582 126.278 41.0446 139.856Z" stroke="black" stroke-width="2" stroke-miterlimit="10" stroke-linecap="round" stroke-linejoin="round"/>
<path d="M66.5214 127.662C67.5715 131.234 71.3104 133.274 74.8821 132.224C78.4538 131.174 80.4938 127.435 79.4437 123.863C78.3936 120.291 74.6547 118.251 71.083 119.302C67.518 120.352 65.4713 124.097 66.5214 127.662Z" fill="white" stroke="black" stroke-width="2" stroke-miterlimit="10" stroke-linecap="round" stroke-linejoin="round"/>
<path d="M66.5219 127.662C67.1172 129.696 69.2508 130.859 71.2842 130.264C73.3175 129.669 74.4813 127.535 73.886 125.502C73.2908 123.468 71.1571 122.305 69.1238 122.9C67.0904 123.502 65.9266 125.629 66.5219 127.662Z" fill="black"/>
<path d="M49.2782 132.725C50.3283 136.297 54.0673 138.337 57.639 137.287C61.2107 136.237 63.2507 132.498 62.2006 128.926C61.1505 125.355 57.4115 123.315 53.8398 124.365C50.2748 125.415 48.2281 129.16 49.2782 132.725Z" fill="white" stroke="black" stroke-width="2" stroke-miterlimit="10" stroke-linecap="round" stroke-linejoin="round"/>
<path d="M49.2778 132.725C49.8731 134.759 52.0067 135.923 54.04 135.327C56.0734 134.732 57.2372 132.598 56.6419 130.565C56.0466 128.532 53.913 127.368 51.8796 127.963C49.8463 128.565 48.6825 130.699 49.2778 132.725Z" fill="black"/>
<path d="M60.0664 139.066C61.1834 142.859 65.1564 145.033 68.9488 143.916C72.7413 142.799 74.9151 138.826 73.7981 135.033" stroke="black" stroke-width="2" stroke-miterlimit="10" stroke-linecap="round" stroke-linejoin="round"/>
<line x1="118" y1="83" x2="195.833" y2="83" stroke="#2E2E2E" stroke-width="4"/>
<line x1="117.682" y1="95.3181" x2="236.161" y2="95.3181" stroke="#2E2E2E" stroke-width="4"/>
<line x1="117.682" y1="107.425" x2="236.161" y2="107.425" stroke="#2E2E2E" stroke-width="4"/>
<line x1="117.682" y1="118.668" x2="236.161" y2="118.668" stroke="#2E2E2E" stroke-width="4"/>
<line x1="117.682" y1="130.775" x2="195.515" y2="130.775" stroke="#2E2E2E" stroke-width="4"/>
<rect x="10.0671" y="62.6144" width="141.223" height="44.0964" rx="22.0482" transform="rotate(-19.2446 10.0671 62.6144)" fill="#B4FAFF" stroke="#2E2E2E" stroke-width="4.81591"/>
<rect x="12.0671" y="58.6144" width="141.223" height="44.0964" rx="22.0482" transform="rotate(-19.2446 12.0671 58.6144)" fill="#B4FAFF" stroke="#2E2E2E" stroke-width="4.81591"/>
<path d="M45.9477 64.1304L47.2156 75.7306L44.0112 76.8768L39.7459 70.3382L40.58 78.104L37.3756 79.2502L30.9987 69.4775L33.8101 68.4719L37.9538 75.7188L37.0599 67.3095L39.8865 66.2984L44.5289 73.367L43.1513 65.1306L45.9477 64.1304ZM56.5401 60.3416L60.3625 71.0281L57.7627 71.958L56.1678 67.499L52.1169 68.948L53.7118 73.407L51.1271 74.3315L47.3047 63.645L49.8894 62.7205L51.3708 66.8621L55.4217 65.4131L53.9403 61.2716L56.5401 60.3416ZM63.3356 57.7234C64.3433 57.363 65.34 57.2736 66.3256 57.4553C67.3177 57.6232 68.2001 58.0407 68.9729 58.7077C69.7421 59.3646 70.3141 60.217 70.6889 61.265C71.0638 62.313 71.1589 63.3417 70.9744 64.3511C70.8 65.3568 70.3843 66.2443 69.7274 67.0135C69.077 67.769 68.253 68.3251 67.2554 68.682C66.2577 69.0388 65.2629 69.1332 64.2708 68.9652C63.2852 68.7836 62.4009 68.3611 61.6181 67.6977C60.8453 67.0307 60.2715 66.1732 59.8967 65.1253C59.5218 64.0773 59.4234 63.0554 59.6015 62.0597C59.786 61.0503 60.2035 60.1679 60.8539 59.4124C61.5108 58.6433 62.338 58.0803 63.3356 57.7234ZM64.1953 60.1267C63.3488 60.4295 62.7728 60.9481 62.4672 61.6826C62.1681 62.4033 62.1879 63.2373 62.5267 64.1845C62.8619 65.1217 63.3755 65.779 64.0675 66.1567C64.7696 66.5307 65.5439 66.5663 66.3903 66.2635C67.2267 65.9644 67.7977 65.4476 68.1033 64.7131C68.4089 63.9787 68.3941 63.1429 68.0589 62.2057C67.7237 61.2686 67.205 60.613 66.5029 60.239C65.8109 59.8614 65.0417 59.824 64.1953 60.1267ZM87.7949 49.1622L89.0629 60.7623L85.8585 61.9085L81.5932 55.37L82.4273 63.1358L79.2229 64.282L72.846 54.5092L75.6574 53.5036L79.8011 60.7506L78.9072 52.3412L81.7337 51.3302L86.3762 58.3988L84.9986 50.1624L87.7949 49.1622ZM92.472 49.8079L93.2722 52.045L96.8847 50.7528L97.5821 52.7027L93.9696 53.9948L94.8184 56.3679L98.8844 54.9136L99.6251 56.9844L92.9744 59.3632L89.152 48.6768L95.8027 46.2979L96.538 48.3536L92.472 49.8079ZM110.042 51.0591L106.036 52.4918L106.069 54.6795L103.348 55.6527L103.468 43.6415L106.445 42.5765L114.155 51.7871L111.404 52.771L110.042 51.0591ZM108.674 49.332L105.938 45.8778L105.999 50.2889L108.674 49.332ZM120.647 49.4651L116.891 46.2566L116.301 46.4674L117.745 50.5032L115.16 51.4277L111.338 40.7412L115.751 39.1625C116.598 38.8598 117.366 38.75 118.054 38.8331C118.743 38.9163 119.326 39.1626 119.802 39.572C120.274 39.9713 120.628 40.4985 120.862 41.1535C121.14 41.9294 121.159 42.6669 120.92 43.366C120.692 44.0616 120.205 44.6561 119.461 45.1496L123.504 48.4433L120.647 49.4651ZM115.669 44.6989L117.271 44.1258C117.785 43.942 118.123 43.696 118.286 43.3878C118.445 43.0695 118.445 42.6887 118.286 42.2453C118.135 41.8221 117.89 41.5346 117.551 41.3829C117.223 41.2276 116.807 41.24 116.303 41.4202L114.701 41.9933L115.669 44.6989ZM124.267 38.4352L125.067 40.6723L128.68 39.3801L129.377 41.33L125.765 42.6221L126.614 44.9952L130.679 43.5409L131.42 45.6117L124.769 47.9905L120.947 37.3041L127.598 34.9252L128.333 36.9809L124.267 38.4352ZM131.934 32.5048C133.002 32.1227 133.953 32.0952 134.786 32.4224C135.615 32.7395 136.214 33.4119 136.581 34.4398C136.924 35.3971 136.88 36.2595 136.45 37.0271C136.03 37.7911 135.304 38.3688 134.274 38.7602L134.755 40.1055L132.321 40.976L131.245 37.968L132.258 37.6058C132.984 37.3463 133.512 37.0437 133.843 36.698C134.17 36.3422 134.238 35.8972 134.047 35.3632C133.925 35.0206 133.734 34.7878 133.474 34.6648C133.214 34.5418 132.923 34.538 132.6 34.6533C132.237 34.7831 131.99 34.9967 131.857 35.294C131.732 35.5777 131.728 35.8859 131.847 36.2184L129.414 37.0888C129.177 36.4914 129.107 35.8972 129.202 35.3061C129.304 34.7014 129.587 34.157 130.05 33.673C130.51 33.1789 131.138 32.7895 131.934 32.5048ZM135.334 41.2963L136.259 43.881L133.568 44.8434L132.644 42.2587L135.334 41.2963Z" fill="#2E2E2E"/>
</svg>
