<svg width="303" height="205" viewBox="0 0 303 205" fill="none" xmlns="http://www.w3.org/2000/svg">
<rect x="8.71582" y="8.64819" width="265.497" height="196.312" rx="19" fill="#2E2E2E"/>
<path d="M2.06738 38H263.067V177C263.067 186.389 255.456 194 246.067 194H19.0674C9.67855 194 2.06738 186.389 2.06738 177V38Z" fill="#FF5151" stroke="#2E2E2E" stroke-width="4"/>
<path d="M16.0674 2H247.564C256.401 2 263.564 9.16344 263.564 18V34.3221H2.06738V16C2.06738 8.26801 8.3354 2 16.0674 2Z" fill="white" stroke="#2E2E2E" stroke-width="4"/>
<circle cx="209.352" cy="19.0259" r="5.91849" fill="#69CF9C" stroke="#2E2E2E" stroke-width="2"/>
<circle cx="228.377" cy="19.0259" r="5.91849" fill="#FDD400" stroke="#2E2E2E" stroke-width="2"/>
<circle cx="246.539" cy="19.0259" r="5.91849" fill="#FB9191" stroke="#2E2E2E" stroke-width="2"/>
<line x1="143" y1="118.5" x2="209" y2="118.5" stroke="white" stroke-width="5"/>
<line x1="143" y1="128.5" x2="209" y2="128.5" stroke="white" stroke-width="5"/>
<line x1="143" y1="138.5" x2="209" y2="138.5" stroke="white" stroke-width="5"/>
<line x1="143" y1="148.5" x2="187" y2="148.5" stroke="white" stroke-width="5"/>
<rect x="27" y="63" width="100" height="97" fill="white" stroke="#2E2E2E" stroke-width="4"/>
<path d="M77.0005 103.426L81.8109 118.231H97.3779L84.784 127.381L89.5944 142.186L77.0005 133.036L64.4066 142.186L69.2169 127.381L56.623 118.231H72.19L77.0005 103.426Z" fill="#FCEA2B"/>
<path d="M95.3337 86.231V79.8524H58.667V86.231L77.0003 99.7589L95.3337 86.231Z" fill="#EA5A47"/>
<path d="M77.0005 103.426L81.8109 118.231H97.3779L84.784 127.381L89.5944 142.186L77.0005 133.036L64.4066 142.186L69.2169 127.381L56.623 118.231H72.19L77.0005 103.426Z" stroke="black" stroke-width="2" stroke-miterlimit="10" stroke-linecap="round" stroke-linejoin="round"/>
<path d="M77 95.4756V79.8524" stroke="black" stroke-width="2" stroke-miterlimit="10" stroke-linecap="round" stroke-linejoin="round"/>
<path d="M95.3337 86.231V79.8524H58.667V86.231L77.0003 99.7589L95.3337 86.231Z" stroke="black" stroke-width="2" stroke-miterlimit="10" stroke-linecap="round" stroke-linejoin="round"/>
<path d="M77.0005 103.426L81.8109 118.231H97.3779L84.784 127.381L89.5944 142.186L77.0005 133.036L64.4066 142.186L69.2169 127.381L56.623 118.231H72.19L77.0005 103.426Z" stroke="black" stroke-width="2" stroke-miterlimit="10" stroke-linecap="round" stroke-linejoin="round"/>
<path d="M77 95.4756V79.8524" stroke="black" stroke-width="2" stroke-miterlimit="10" stroke-linecap="round" stroke-linejoin="round"/>
<path d="M95.3337 86.231V79.8524H58.667V86.231L77.0003 99.7589L95.3337 86.231Z" stroke="black" stroke-width="2" stroke-miterlimit="10" stroke-linecap="round" stroke-linejoin="round"/>
<path d="M293.005 63.1341C293.501 66.0099 292.381 69.3406 289.239 73.0368C286.108 76.7206 281.175 80.5047 274.697 84.1291C261.76 91.3675 243.11 97.7219 221.825 101.39C200.539 105.057 180.838 105.311 166.225 102.819C158.907 101.572 152.992 99.6571 148.808 97.2336C144.611 94.8019 142.441 92.038 141.946 89.1622C141.45 86.2863 142.57 82.9556 145.711 79.2594C148.842 75.5756 153.776 71.7916 160.254 68.1671C173.191 60.9287 191.841 54.5743 213.126 50.9067C234.412 47.2391 254.113 46.9856 268.726 49.477C276.043 50.7244 281.959 52.6392 286.142 55.0627C290.34 57.4943 292.51 60.2583 293.005 63.1341Z" fill="#FF8DC4" stroke="#2E2E2E" stroke-width="4.49499"/>
<path d="M295.417 53.8379C295.913 56.7137 294.793 60.0444 291.651 63.7407C288.52 67.4245 283.587 71.2085 277.109 74.8329C264.172 82.0713 245.522 88.4258 224.237 92.0934C202.951 95.761 183.25 96.0144 168.637 93.5231C161.319 92.2756 155.404 90.3609 151.221 87.9374C147.023 85.5057 144.853 82.7418 144.358 79.866C143.862 76.9902 144.982 73.6595 148.124 69.9633C151.255 66.2795 156.188 62.4954 162.666 58.871C175.603 51.6326 194.253 45.2782 215.538 41.6106C236.824 37.943 256.525 37.6895 271.138 40.1808C278.456 41.4283 284.371 43.343 288.554 45.7665C292.752 48.1982 294.922 50.9621 295.417 53.8379Z" fill="#A2ABFF" stroke="#2E2E2E" stroke-width="4.49499"/>
<path d="M170.166 72.4656L167.791 69.2185L173.609 68.0301L183.466 80.8164L177.228 82.0907L175.712 80.0315L170.114 81.175L169.537 83.6616L167.119 84.1553L170.166 72.4656ZM174.262 78.0485L171.67 74.5172L170.679 78.7802L174.262 78.0485ZM181.09 66.5021L187.138 65.2669L191.428 73.8954L191.887 68.1984L189.966 64.6893L196.014 63.4541L200.113 72.1216L200.6 62.5174L203.091 61.9985L201.741 77.0738L197.24 77.9834L193.746 71.6006L193.057 78.8477L188.555 79.7572L181.09 66.5021ZM209.701 64.3908L207.326 61.1436L213.144 59.9552L223.001 72.7415L216.763 74.0158L215.247 71.9566L209.648 73.1001L209.071 75.5867L206.654 76.0804L209.701 64.3908ZM213.797 69.9736L211.205 66.4424L210.214 70.7054L213.797 69.9736ZM222.049 58.1365L230.237 56.4642C231.294 56.2482 232.24 56.171 233.076 56.2327C233.917 56.293 234.643 56.4698 235.254 56.7631C235.871 57.0551 236.37 57.454 236.752 57.9599C237.134 58.4657 237.394 59.0562 237.532 59.7314C237.703 60.5658 237.657 61.3482 237.395 62.0785C237.131 62.8025 236.65 63.4349 235.951 63.9758L240.132 69.2427L233.893 70.517L230.584 65.8183L229.419 66.0563L230.471 71.206L224.948 72.3339L222.049 58.1365ZM229.4 64.2588C229.852 64.1664 230.244 64.0201 230.574 63.8198C230.905 63.6196 231.171 63.3795 231.373 63.0994C231.573 62.813 231.708 62.4969 231.776 62.1511C231.844 61.799 231.838 61.4318 231.76 61.0497C231.682 60.6675 231.544 60.3308 231.345 60.0397C231.145 59.7422 230.897 59.5041 230.602 59.3256C230.305 59.1406 229.966 59.0209 229.583 58.9664C229.2 58.9118 228.783 58.9307 228.331 59.0231L228.006 59.0894L229.066 64.327L229.4 64.2588ZM239.877 54.4952L245.714 53.3029C247.357 52.9673 248.813 52.8326 250.08 52.8988C251.347 52.9586 252.436 53.2073 253.348 53.6447C254.26 54.0821 254.996 54.6981 255.557 55.4926C256.117 56.2872 256.512 57.2481 256.743 58.3755C256.948 59.3819 256.949 60.3604 256.745 61.3111C256.54 62.2554 256.109 63.133 255.452 63.944C254.793 64.7486 253.9 65.4586 252.771 66.0739C251.643 66.6892 250.257 67.1647 248.614 67.5003L242.776 68.6926L239.877 54.4952ZM247.873 65.4819C248.51 65.3518 249.063 65.136 249.532 64.8345C250.002 64.533 250.369 64.1394 250.635 63.6538C250.907 63.167 251.07 62.5862 251.125 61.9116C251.185 61.2292 251.124 60.4422 250.941 59.5505C250.761 58.6651 250.511 57.9299 250.192 57.3447C249.874 56.7595 249.496 56.3059 249.058 55.9839C248.62 55.6554 248.127 55.4541 247.582 55.3798C247.041 55.2979 246.458 55.3207 245.834 55.4481L247.873 65.4819ZM260.553 61.7775C261.298 61.9835 262.058 62.0971 262.832 62.1181C263.606 62.1392 264.311 62.0847 264.948 61.9546C265.681 61.805 266.194 61.5906 266.489 61.3115C266.79 61.031 266.903 60.7093 266.829 60.3462C266.806 60.2316 266.759 60.1183 266.69 60.0064C266.627 59.8932 266.523 59.7916 266.379 59.7017C266.24 59.6041 266.053 59.5194 265.82 59.4477C265.591 59.3683 265.299 59.3051 264.945 59.2581L263.116 59.0246C261.807 58.854 260.771 58.4751 260.007 57.8879C259.242 57.2944 258.759 56.504 258.557 55.5167C258.427 54.8798 258.436 54.241 258.584 53.6004C258.731 52.9534 259.029 52.3517 259.479 51.7952C259.928 51.2324 260.536 50.7333 261.303 50.298C262.077 49.8614 263.018 49.5299 264.126 49.3035C264.674 49.1916 265.206 49.1162 265.722 49.0771C266.238 49.038 266.726 49.0245 267.187 49.0367C267.653 49.0475 268.085 49.0821 268.482 49.1404C268.877 49.1923 269.228 49.2534 269.534 49.3235L268.883 51.3973C268.653 51.3116 268.414 51.2443 268.165 51.1956C267.923 51.1456 267.68 51.1122 267.438 51.0953C267.202 51.0772 266.972 51.0743 266.749 51.0867C266.526 51.099 266.326 51.1234 266.147 51.1599C265.841 51.2223 265.582 51.3184 265.37 51.448C265.156 51.5713 264.984 51.716 264.852 51.8823C264.725 52.0409 264.637 52.2115 264.588 52.394C264.544 52.5688 264.538 52.7359 264.571 52.8951C264.599 53.0353 264.659 53.1657 264.75 53.2864C264.846 53.3995 264.987 53.5035 265.172 53.5984C265.363 53.6855 265.601 53.7662 265.888 53.8402C266.181 53.9066 266.538 53.9663 266.96 54.0194L268.185 54.1674C269.511 54.3278 270.577 54.704 271.381 55.2961C272.186 55.8882 272.693 56.7002 272.904 57.732C273.047 58.4327 273.02 59.1117 272.822 59.7691C272.631 60.4252 272.268 61.0336 271.732 61.5942C271.195 62.1484 270.486 62.6415 269.606 63.0735C268.73 63.4978 267.681 63.8348 266.458 64.0846C265.872 64.2043 265.299 64.2882 264.738 64.3364C264.185 64.3897 263.635 64.4091 263.088 64.3948C262.547 64.3791 262.006 64.3303 261.465 64.2484C260.925 64.1665 260.377 64.0527 259.823 63.907L260.553 61.7775Z" fill="#2E2E2E"/>
<path d="M170.166 72.4656L173.789 73.41L174.238 71.6898L173.188 70.255L170.166 72.4656ZM167.791 69.2185L167.042 65.5497L161.323 66.7178L164.769 71.4291L167.791 69.2185ZM173.609 68.0301L176.575 65.7439L175.149 63.8938L172.86 64.3613L173.609 68.0301ZM183.466 80.8164L184.216 84.4852L190.097 83.284L186.432 78.5302L183.466 80.8164ZM177.228 82.0907L174.212 84.3101L175.631 86.2386L177.977 85.7595L177.228 82.0907ZM175.712 80.0315L178.728 77.8121L177.309 75.8835L174.963 76.3627L175.712 80.0315ZM170.114 81.175L169.364 77.5062L167.009 77.9872L166.466 80.3286L170.114 81.175ZM169.537 83.6616L170.286 87.3303L172.641 86.8493L173.184 84.5079L169.537 83.6616ZM167.119 84.1553L163.496 83.2109L161.98 89.0268L167.869 87.824L167.119 84.1553ZM174.262 78.0485L175.012 81.7172L180.742 80.5469L177.281 75.8325L174.262 78.0485ZM171.67 74.5172L174.688 72.3013L169.866 65.7331L168.022 73.6698L171.67 74.5172ZM170.679 78.7802L167.032 77.9328L165.711 83.6167L171.429 82.449L170.679 78.7802ZM173.188 70.255L170.813 67.0078L164.769 71.4291L167.144 74.6763L173.188 70.255ZM168.54 72.8873L174.359 71.6989L172.86 64.3613L167.042 65.5497L168.54 72.8873ZM170.644 70.3163L180.501 83.1026L186.432 78.5302L176.575 65.7439L170.644 70.3163ZM182.717 77.1476L176.478 78.4219L177.977 85.7595L184.216 84.4852L182.717 77.1476ZM180.244 79.8713L178.728 77.8121L172.696 82.2509L174.212 84.3101L180.244 79.8713ZM174.963 76.3627L169.364 77.5062L170.863 84.8437L176.462 83.7002L174.963 76.3627ZM166.466 80.3286L165.889 82.8152L173.184 84.5079L173.761 82.0213L166.466 80.3286ZM168.787 79.9928L166.37 80.4865L167.869 87.824L170.286 87.3303L168.787 79.9928ZM170.743 85.0996L173.789 73.41L166.542 71.5213L163.496 83.2109L170.743 85.0996ZM177.281 75.8325L174.688 72.3013L168.651 76.7332L171.244 80.2644L177.281 75.8325ZM168.022 73.6698L167.032 77.9328L174.327 79.6277L175.317 75.3647L168.022 73.6698ZM171.429 82.449L175.012 81.7172L173.513 74.3797L169.93 75.1115L171.429 82.449ZM181.09 66.5021L180.341 62.8334L175.306 63.8618L177.827 68.3396L181.09 66.5021ZM187.138 65.2669L190.491 63.5997L189.209 61.022L186.389 61.5981L187.138 65.2669ZM191.428 73.8954L188.075 75.5626L194.079 87.6361L195.161 74.1959L191.428 73.8954ZM191.887 68.1984L195.619 68.4989L195.709 67.3826L195.172 66.4003L191.887 68.1984ZM189.966 64.6893L189.217 61.0205L184.245 62.036L186.681 66.4874L189.966 64.6893ZM196.014 63.4541L199.399 61.8531L198.143 59.1974L195.264 59.7853L196.014 63.4541ZM200.113 72.1216L196.728 73.7225L203.853 72.3111L200.113 72.1216ZM200.6 62.5174L199.836 58.8515L197.006 59.4408L196.86 62.3279L200.6 62.5174ZM203.091 61.9985L206.821 62.3325L207.271 57.3032L202.328 58.3326L203.091 61.9985ZM201.741 77.0738L202.483 80.7442L205.222 80.1909L205.471 77.4078L201.741 77.0738ZM197.24 77.9834L193.955 79.7811L195.279 82.1998L197.981 81.6538L197.24 77.9834ZM193.746 71.6006L197.031 69.8029L191.174 59.1012L190.019 71.246L193.746 71.6006ZM193.057 78.8477L193.798 82.518L196.521 81.9679L196.784 79.2023L193.057 78.8477ZM188.555 79.7572L185.292 81.5946L186.628 83.9667L189.296 83.4276L188.555 79.7572ZM181.84 70.1709L187.887 68.9357L186.389 61.5981L180.341 62.8334L181.84 70.1709ZM183.785 66.9341L188.075 75.5626L194.781 72.2283L190.491 63.5997L183.785 66.9341ZM195.161 74.1959L195.619 68.4989L188.155 67.8979L187.696 73.5949L195.161 74.1959ZM195.172 66.4003L193.251 62.8912L186.681 66.4874L188.602 69.9965L195.172 66.4003ZM190.715 68.3581L196.763 67.1228L195.264 59.7853L189.217 61.0205L190.715 68.3581ZM192.629 65.055L196.728 73.7225L203.498 70.5207L199.399 61.8531L192.629 65.055ZM203.853 72.3111L204.339 62.7069L196.86 62.3279L196.373 71.9321L203.853 72.3111ZM201.363 66.1833L203.855 65.6644L202.328 58.3326L199.836 58.8515L201.363 66.1833ZM199.362 61.6646L198.012 76.7399L205.471 77.4078L206.821 62.3325L199.362 61.6646ZM201 73.4035L196.498 74.313L197.981 81.6538L202.483 80.7442L201 73.4035ZM200.524 76.1857L197.031 69.8029L190.462 73.3984L193.955 79.7811L200.524 76.1857ZM190.019 71.246L189.329 78.493L196.784 79.2023L197.474 71.9553L190.019 71.246ZM192.315 75.1773L187.813 76.0869L189.296 83.4276L193.798 82.518L192.315 75.1773ZM191.818 77.9198L184.353 64.6647L177.827 68.3396L185.292 81.5946L191.818 77.9198ZM209.701 64.3908L213.324 65.3351L213.773 63.6149L212.723 62.1801L209.701 64.3908ZM207.326 61.1436L206.576 57.4748L200.857 58.6429L204.303 63.3542L207.326 61.1436ZM213.144 59.9552L216.11 57.669L214.684 55.819L212.395 56.2864L213.144 59.9552ZM223.001 72.7416L223.751 76.4103L229.632 75.2092L225.967 70.4553L223.001 72.7416ZM216.763 74.0158L213.747 76.2352L215.166 78.1638L217.512 77.6846L216.763 74.0158ZM215.247 71.9566L218.263 69.7372L216.844 67.8086L214.498 68.2878L215.247 71.9566ZM209.648 73.1001L208.899 69.4313L206.544 69.9123L206.001 72.2537L209.648 73.1001ZM209.071 75.5867L209.821 79.2555L212.176 78.7745L212.719 76.433L209.071 75.5867ZM206.654 76.0804L203.031 75.136L201.515 80.9519L207.404 79.7492L206.654 76.0804ZM213.797 69.9736L214.546 73.6424L220.276 72.472L216.816 67.7577L213.797 69.9736ZM211.205 66.4424L214.223 64.2265L209.401 57.6583L207.557 65.595L211.205 66.4424ZM210.214 70.7054L206.567 69.8579L205.246 75.5419L210.964 74.3741L210.214 70.7054ZM212.723 62.1801L210.348 58.933L204.303 63.3542L206.679 66.6014L212.723 62.1801ZM208.075 64.8124L213.894 63.624L212.395 56.2864L206.576 57.4748L208.075 64.8124ZM210.179 62.2414L220.036 75.0278L225.967 70.4553L216.11 57.669L210.179 62.2414ZM222.252 69.0728L216.013 70.347L217.512 77.6846L223.751 76.4103L222.252 69.0728ZM219.778 71.7964L218.263 69.7372L212.231 74.176L213.747 76.2352L219.778 71.7964ZM214.498 68.2878L208.899 69.4313L210.398 76.7689L215.996 75.6254L214.498 68.2878ZM206.001 72.2537L205.424 74.7403L212.719 76.433L213.296 73.9465L206.001 72.2537ZM208.322 71.9179L205.905 72.4116L207.404 79.7492L209.821 79.2555L208.322 71.9179ZM210.278 77.0247L213.324 65.3351L206.077 63.4464L203.031 75.136L210.278 77.0247ZM216.816 67.7577L214.223 64.2265L208.186 68.6583L210.779 72.1895L216.816 67.7577ZM207.557 65.595L206.567 69.8579L213.862 71.5528L214.852 67.2898L207.557 65.595ZM210.964 74.3741L214.546 73.6424L213.048 66.3048L209.465 67.0366L210.964 74.3741ZM222.049 58.1365L221.299 54.4677L217.631 55.2171L218.38 58.8858L222.049 58.1365ZM233.076 56.2327L232.8 59.967L232.808 59.9676L233.076 56.2327ZM235.254 56.7631L233.633 60.1384L233.642 60.1431L233.652 60.1477L235.254 56.7631ZM237.395 62.0785L240.913 63.3592L240.916 63.3515L240.919 63.3438L237.395 62.0785ZM235.951 63.9758L233.659 61.0143L230.661 63.3344L233.018 66.3039L235.951 63.9758ZM240.132 69.2427L240.881 72.9115L246.856 71.6911L243.065 66.9146L240.132 69.2427ZM233.893 70.517L230.831 72.6728L232.242 74.676L234.642 74.1857L233.893 70.517ZM230.584 65.8183L233.646 63.6624L232.236 61.6592L229.835 62.1495L230.584 65.8183ZM229.419 66.0563L228.67 62.3876L225.001 63.1369L225.75 66.8057L229.419 66.0563ZM230.471 71.206L231.22 74.8748L234.889 74.1254L234.139 70.4567L230.471 71.206ZM224.948 72.3339L221.28 73.0832L222.029 76.752L225.698 76.0027L224.948 72.3339ZM231.373 63.0994L234.412 65.287L234.427 65.2662L234.441 65.2453L231.373 63.0994ZM231.776 62.1511L235.449 62.8809L235.452 62.868L235.454 62.8551L231.776 62.1511ZM231.345 60.0397L228.238 62.1295L228.245 62.1404L228.253 62.1512L231.345 60.0397ZM230.602 59.3256L228.621 62.5029L228.642 62.5164L228.664 62.5296L230.602 59.3256ZM228.006 59.0894L227.257 55.4207L223.594 56.1686L224.336 59.8321L228.006 59.0894ZM229.066 64.327L225.396 65.0697L226.14 68.7465L229.815 67.9958L229.066 64.327ZM222.798 61.8053L230.986 60.1329L229.487 52.7954L221.299 54.4677L222.798 61.8053ZM230.986 60.1329C231.798 59.9671 232.39 59.9368 232.8 59.967L233.351 52.4983C232.09 52.4053 230.79 52.5293 229.487 52.7954L230.986 60.1329ZM232.808 59.9676C233.291 60.0022 233.537 60.0924 233.633 60.1384L236.875 53.3877C235.75 52.8472 234.543 52.5837 233.343 52.4977L232.808 59.9676ZM233.652 60.1477C233.716 60.1781 233.746 60.2003 233.755 60.2071C233.762 60.2132 233.763 60.215 233.764 60.2164L239.741 55.7034C238.967 54.6784 237.976 53.9087 236.856 53.3784L233.652 60.1477ZM233.764 60.2164C233.781 60.2391 233.827 60.304 233.864 60.4807L241.201 58.9821C240.961 57.8084 240.488 56.6924 239.741 55.7034L233.764 60.2164ZM233.864 60.4807C233.911 60.7107 233.879 60.7905 233.87 60.8132L240.919 63.3438C241.435 61.9058 241.495 60.4209 241.201 58.9821L233.864 60.4807ZM233.876 60.7978C233.876 60.7984 233.875 60.7993 233.874 60.8021C233.872 60.8049 233.867 60.8135 233.856 60.8282C233.834 60.8568 233.779 60.922 233.659 61.0143L238.242 66.9372C239.417 66.0285 240.374 64.8417 240.913 63.3592L233.876 60.7978ZM233.018 66.3039L237.199 71.5708L243.065 66.9146L238.884 61.6477L233.018 66.3039ZM239.383 65.5739L233.144 66.8482L234.642 74.1857L240.881 72.9115L239.383 65.5739ZM236.955 68.3611L233.646 63.6624L227.523 67.9741L230.831 72.6728L236.955 68.3611ZM229.835 62.1495L228.67 62.3876L230.168 69.7251L231.334 69.487L229.835 62.1495ZM225.75 66.8057L226.802 71.9553L234.139 70.4567L233.088 65.307L225.75 66.8057ZM229.721 67.5372L224.199 68.6651L225.698 76.0027L231.22 74.8748L229.721 67.5372ZM228.617 71.5846L225.717 57.3872L218.38 58.8858L221.28 73.0832L228.617 71.5846ZM230.149 67.9275C230.943 67.7655 231.753 67.4838 232.514 67.0229L228.635 60.6168C228.684 60.5868 228.716 60.5742 228.722 60.5722C228.727 60.5704 228.705 60.5788 228.651 60.59L230.149 67.9275ZM232.514 67.0229C233.224 66.593 233.882 66.0226 234.412 65.287L228.334 60.9119C228.46 60.7364 228.586 60.6462 228.635 60.6168L232.514 67.0229ZM234.441 65.2453C234.942 64.5299 235.28 63.7309 235.449 62.8809L228.104 61.4213C228.135 61.263 228.204 61.0961 228.304 60.9536L234.441 65.2453ZM235.454 62.8551C235.621 61.9819 235.596 61.1193 235.429 60.3003L228.092 61.799C228.08 61.7443 228.066 61.6161 228.099 61.4471L235.454 62.8551ZM235.429 60.3003C235.262 59.4823 234.945 58.6722 234.437 57.9281L228.253 62.1512C228.142 61.9894 228.102 61.8526 228.092 61.799L235.429 60.3003ZM234.452 57.9499C233.96 57.2185 233.32 56.5931 232.54 56.1215L228.664 62.5296C228.475 62.4151 228.33 62.2658 228.238 62.1295L234.452 57.9499ZM232.583 56.1483C231.8 55.6595 230.955 55.3795 230.111 55.2593L229.055 62.6734C228.977 62.6623 228.811 62.6217 228.621 62.5029L232.583 56.1483ZM230.111 55.2593C229.23 55.1337 228.375 55.1923 227.581 55.3543L229.08 62.6919C229.135 62.6807 229.158 62.6801 229.152 62.6803C229.147 62.6806 229.112 62.6816 229.055 62.6734L230.111 55.2593ZM227.581 55.3543L227.257 55.4207L228.755 62.7582L229.08 62.6919L227.581 55.3543ZM224.336 59.8321L225.396 65.0697L232.736 63.5844L231.676 58.3468L224.336 59.8321ZM229.815 67.9958L230.149 67.9275L228.651 60.59L228.316 60.6583L229.815 67.9958ZM239.877 54.4952L239.127 50.8264L235.458 51.5758L236.208 55.2445L239.877 54.4952ZM250.08 52.8988L249.885 56.6382L249.894 56.6387L249.904 56.6391L250.08 52.8988ZM256.745 61.3111L260.404 62.1064L260.406 62.0965L256.745 61.3111ZM255.452 63.944L258.35 66.3154L258.355 66.3084L258.361 66.3013L255.452 63.944ZM242.776 68.6926L239.108 69.4419L239.857 73.1107L243.526 72.3614L242.776 68.6926ZM247.873 65.4819L244.204 66.2278L244.95 69.9007L248.623 69.1507L247.873 65.4819ZM250.635 63.6538L247.366 61.8269L247.358 61.8415L247.35 61.8561L250.635 63.6538ZM251.125 61.9116L247.395 61.5852L247.394 61.5973L247.393 61.6094L251.125 61.9116ZM249.058 55.9839L246.814 58.9813L246.826 58.9902L246.838 58.9991L249.058 55.9839ZM247.582 55.3798L247.021 59.0821L247.049 59.0863L247.077 59.0902L247.582 55.3798ZM245.834 55.4481L245.084 51.7794L241.419 52.528L242.164 56.194L245.834 55.4481ZM240.626 58.164L246.464 56.9717L244.965 49.6341L239.127 50.8264L240.626 58.164ZM246.464 56.9717C247.889 56.6805 249.017 56.5928 249.885 56.6382L250.276 49.1594C248.609 49.0723 246.826 49.2541 244.965 49.6341L246.464 56.9717ZM249.904 56.6391C250.792 56.6811 251.367 56.8475 251.729 57.021L254.967 50.2683C253.505 49.567 251.901 49.2362 250.257 49.1584L249.904 56.6391ZM251.729 57.021C252.089 57.1936 252.32 57.4001 252.497 57.6508L258.617 53.3344C257.673 51.996 256.431 50.9706 254.967 50.2683L251.729 57.021ZM252.497 57.6508C252.71 57.9526 252.928 58.4125 253.074 59.1249L260.411 57.6262C260.096 56.0838 259.525 54.6218 258.617 53.3344L252.497 57.6508ZM253.074 59.1249C253.182 59.6537 253.173 60.1088 253.084 60.5257L260.406 62.0965C260.725 60.612 260.715 59.1101 260.411 57.6262L253.074 59.1249ZM253.086 60.5158C253.015 60.8429 252.861 61.1934 252.542 61.5867L258.361 66.3013C259.356 65.0727 260.065 63.6679 260.404 62.1064L253.086 60.5158ZM252.554 61.5727C252.264 61.9266 251.78 62.3495 250.979 62.7864L254.564 69.3614C256.02 68.5677 257.322 67.5707 258.35 66.3154L252.554 61.5727ZM250.979 62.7864C250.259 63.1786 249.248 63.549 247.865 63.8315L249.363 71.1691C251.267 70.7803 253.027 70.1997 254.564 69.3614L250.979 62.7864ZM247.865 63.8315L242.027 65.0238L243.526 72.3614L249.363 71.1691L247.865 63.8315ZM246.445 67.9433L243.545 53.7459L236.208 55.2445L239.108 69.4419L246.445 67.9433ZM248.623 69.1507C249.639 68.9431 250.64 68.5741 251.557 67.9846L247.508 61.6843C247.487 61.6979 247.381 61.7606 247.124 61.8131L248.623 69.1507ZM251.557 67.9846C252.548 67.3475 253.351 66.4906 253.92 65.4516L247.35 61.8561C247.363 61.8321 247.387 61.7959 247.423 61.7575C247.459 61.7193 247.491 61.6954 247.508 61.6843L251.557 67.9846ZM253.904 65.4808C254.488 64.4356 254.768 63.3119 254.857 62.2137L247.393 61.6094C247.372 61.8606 247.326 61.8983 247.366 61.8269L253.904 65.4808ZM254.855 62.2379C254.955 61.1 254.842 59.938 254.61 58.8011L247.273 60.2998C247.405 60.9464 247.415 61.3584 247.395 61.5852L254.855 62.2379ZM254.61 58.8011C254.38 57.6722 254.028 56.5584 253.481 55.5543L246.904 59.1351C246.994 59.3013 247.142 59.6581 247.273 60.2998L254.61 58.8011ZM253.481 55.5543C252.958 54.5944 252.246 53.681 251.279 52.9686L246.838 58.9991C246.745 58.9309 246.789 58.9247 246.904 59.1351L253.481 55.5543ZM251.303 52.9864C250.351 52.2741 249.26 51.8291 248.086 51.6695L247.077 59.0902C247.048 59.0862 247 59.0757 246.943 59.0524C246.886 59.0291 246.842 59.0019 246.814 58.9813L251.303 52.9864ZM248.142 51.6775C247.101 51.5198 246.07 51.578 245.084 51.7794L246.583 59.1169C246.846 59.0633 246.98 59.076 247.021 59.0821L248.142 51.6775ZM242.164 56.194L244.204 66.2278L251.543 64.7361L249.503 54.7023L242.164 56.194ZM260.553 61.7775L261.55 58.1683L258.153 57.2291L257.01 60.564L260.553 61.7775ZM266.489 61.3115L263.936 58.5717L263.925 58.5824L263.914 58.5931L266.489 61.3115ZM266.69 60.0064L263.417 61.8257L263.46 61.9028L263.507 61.9778L266.69 60.0064ZM266.379 59.7017L264.231 62.7688L264.314 62.8269L264.4 62.8804L266.379 59.7017ZM265.82 59.4477L264.591 62.9849L264.655 63.0073L264.721 63.0273L265.82 59.4477ZM264.945 59.2581L265.437 55.5461L265.428 55.5449L265.419 55.5437L264.945 59.2581ZM263.116 59.0246L262.632 62.7377L262.641 62.739L263.116 59.0246ZM260.007 57.8879L257.711 60.8461L257.718 60.8512L257.724 60.8562L260.007 57.8879ZM258.584 53.6004L262.233 54.4423L262.234 54.4349L262.236 54.4275L258.584 53.6004ZM259.479 51.7952L262.39 54.1509L262.398 54.1408L262.406 54.1306L259.479 51.7952ZM261.303 50.298L259.462 47.0373L259.455 47.0415L261.303 50.298ZM267.187 49.0367L267.088 52.7799L267.1 52.7802L267.187 49.0367ZM268.482 49.1404L267.937 52.8451L267.966 52.8493L267.994 52.853L268.482 49.1404ZM269.534 49.3235L273.107 50.4455L274.321 46.5784L270.37 45.6735L269.534 49.3235ZM268.883 51.3973L267.574 54.9056L271.273 56.2856L272.455 52.5193L268.883 51.3973ZM268.165 51.1956L267.408 54.8629L267.427 54.8668L267.446 54.8704L268.165 51.1956ZM267.438 51.0953L267.15 54.8288L267.164 54.8299L267.178 54.8308L267.438 51.0953ZM265.37 51.448L267.241 54.6915L267.281 54.6683L267.321 54.6442L265.37 51.448ZM264.852 51.8823L267.776 54.221L267.781 54.2153L267.785 54.2095L264.852 51.8823ZM264.588 52.394L260.971 51.4235L260.963 51.4527L260.956 51.482L264.588 52.394ZM264.75 53.2864L261.76 55.5403L261.826 55.6277L261.897 55.7111L264.75 53.2864ZM265.172 53.5984L263.466 56.9313L263.538 56.9686L263.613 57.0026L265.172 53.5984ZM265.888 53.8402L264.953 57.4661L265.006 57.4797L265.059 57.4917L265.888 53.8402ZM266.96 54.0194L266.493 57.7347L266.502 57.7358L266.511 57.7369L266.96 54.0194ZM272.822 59.7691L269.236 58.6918L269.232 58.7068L269.227 58.7219L272.822 59.7691ZM271.732 61.5942L274.421 64.1999L274.43 64.1906L274.439 64.1812L271.732 61.5942ZM269.606 63.0735L271.239 66.4431L271.247 66.4392L271.255 66.4352L269.606 63.0735ZM264.738 64.3364L264.417 60.6056L264.398 60.6073L264.379 60.6091L264.738 64.3364ZM263.088 64.3948L262.979 68.1377L262.99 68.138L263.088 64.3948ZM259.823 63.907L256.281 62.6936L254.975 66.5043L258.871 67.5285L259.823 63.907ZM259.555 65.3866C260.593 65.6735 261.653 65.832 262.73 65.8613L262.934 58.375C262.462 58.3622 262.003 58.2935 261.55 58.1683L259.555 65.3866ZM262.73 65.8613C263.737 65.8887 264.733 65.8203 265.698 65.6234L264.199 58.2858C263.889 58.3491 263.475 58.3897 262.934 58.375L262.73 65.8613ZM265.698 65.6234C266.623 65.4344 267.991 65.047 269.064 64.0298L263.914 58.5931C264.059 58.4554 264.188 58.366 264.275 58.3129C264.362 58.2597 264.422 58.2336 264.44 58.2261C264.468 58.2144 264.403 58.2441 264.199 58.2858L265.698 65.6234ZM269.041 64.0512C270.171 62.9989 270.866 61.398 270.498 59.5969L263.16 61.0956C263.074 60.6714 263.08 60.1487 263.268 59.6148C263.45 59.0998 263.735 58.7593 263.936 58.5717L269.041 64.0512ZM270.498 59.5969C270.376 58.9989 270.147 58.4759 269.874 58.0349L263.507 61.9778C263.372 61.7607 263.236 61.4643 263.16 61.0956L270.498 59.5969ZM269.963 58.1871C269.509 57.3709 268.878 56.8468 268.358 56.523L264.4 62.8804C264.169 62.7364 263.745 62.4154 263.417 61.8257L269.963 58.1871ZM268.527 56.6345C267.96 56.2377 267.378 56.0091 266.919 55.8681L264.721 63.0273C264.713 63.0248 264.664 63.0097 264.587 62.9746C264.511 62.9401 264.384 62.8759 264.231 62.7688L268.527 56.6345ZM267.048 55.9105C266.497 55.7189 265.935 55.6121 265.437 55.5461L264.453 62.9702C264.548 62.9828 264.607 62.994 264.636 63.0003C264.667 63.007 264.647 63.0045 264.591 62.9849L267.048 55.9105ZM265.419 55.5437L263.59 55.3102L262.641 62.739L264.471 62.9725L265.419 55.5437ZM263.6 55.3115C262.713 55.196 262.371 54.9822 262.29 54.9196L257.724 60.8562C259.17 61.968 260.9 62.512 262.632 62.7377L263.6 55.3115ZM262.303 54.9297C262.28 54.9116 262.269 54.9007 262.267 54.8981C262.266 54.8965 262.265 54.896 262.265 54.8963C262.266 54.8966 262.266 54.8968 262.266 54.8968C262.266 54.8966 262.265 54.8953 262.263 54.8921C262.262 54.8889 262.259 54.8831 262.256 54.874C262.249 54.8564 262.237 54.8224 262.226 54.7674L254.889 56.2661C255.261 58.091 256.209 59.6801 257.711 60.8461L262.303 54.9297ZM262.226 54.7674C262.205 54.6623 262.204 54.5662 262.233 54.4423L254.935 52.7584C254.668 53.9158 254.65 55.0972 254.889 56.2661L262.226 54.7674ZM262.236 54.4275C262.246 54.3835 262.272 54.2973 262.39 54.1509L256.569 49.4395C255.786 50.406 255.215 51.5232 254.932 52.7733L262.236 54.4275ZM262.406 54.1306C262.499 54.0143 262.709 53.8058 263.152 53.5546L259.455 47.0415C258.364 47.6609 257.358 48.4505 256.552 49.4599L262.406 54.1306ZM263.144 53.5587C263.499 53.3585 264.05 53.1408 264.875 52.9723L263.377 45.6347C261.985 45.919 260.655 46.3642 259.462 47.0373L263.144 53.5587ZM264.875 52.9723C265.281 52.8894 265.657 52.8372 266.004 52.8109L265.439 45.3432C264.754 45.3951 264.066 45.4939 263.377 45.6347L264.875 52.9723ZM266.004 52.8109C266.409 52.7803 266.769 52.7715 267.088 52.7799L267.285 45.2935C266.683 45.2776 266.067 45.2957 265.439 45.3432L266.004 52.8109ZM267.1 52.7802C267.437 52.788 267.714 52.8124 267.937 52.8451L269.026 45.4357C268.456 45.3518 267.869 45.307 267.274 45.2932L267.1 52.7802ZM267.994 52.853C268.302 52.8935 268.533 52.9356 268.698 52.9735L270.37 45.6735C269.923 45.5711 269.452 45.4912 268.969 45.4278L267.994 52.853ZM265.962 48.2015L265.31 50.2753L272.455 52.5193L273.107 50.4455L265.962 48.2015ZM270.192 47.8891C269.764 47.7294 269.327 47.6076 268.884 47.5209L267.446 54.8704C267.5 54.8811 267.542 54.8937 267.574 54.9056L270.192 47.8891ZM268.921 47.5283C268.518 47.4452 268.11 47.3885 267.698 47.3598L267.178 54.8308C267.25 54.8358 267.327 54.8461 267.408 54.8629L268.921 47.5283ZM267.725 47.3618C267.334 47.3317 266.939 47.3258 266.542 47.3479L266.957 54.8254C267.006 54.8227 267.07 54.8226 267.15 54.8288L267.725 47.3618ZM266.542 47.3479C266.176 47.3682 265.79 47.4111 265.398 47.4911L266.897 54.8286C266.877 54.8326 266.872 54.8328 266.883 54.8314C266.895 54.83 266.919 54.8275 266.957 54.8254L266.542 47.3479ZM265.398 47.4911C264.771 47.6192 264.082 47.8471 263.419 48.2518L267.321 54.6442C267.083 54.7896 266.912 54.8255 266.897 54.8286L265.398 47.4911ZM263.499 48.2044C262.942 48.5258 262.387 48.9643 261.918 49.5551L267.785 54.2095C267.58 54.4678 267.371 54.6167 267.241 54.6915L263.499 48.2044ZM261.927 49.5436C261.502 50.0751 261.164 50.7056 260.971 51.4235L268.204 53.3645C268.11 53.7174 267.947 54.0068 267.776 54.221L261.927 49.5436ZM260.956 51.482C260.791 52.1408 260.745 52.8781 260.902 53.6445L268.24 52.1458C268.331 52.5937 268.297 52.9969 268.22 53.3061L260.956 51.482ZM260.902 53.6445C261.048 54.3614 261.353 55.0008 261.76 55.5403L267.74 51.0326C267.965 51.3306 268.15 51.7091 268.24 52.1458L260.902 53.6445ZM261.897 55.7111C262.412 56.3179 263.006 56.6959 263.466 56.9313L266.879 50.2654C266.968 50.3111 267.28 50.4811 267.604 50.8618L261.897 55.7111ZM263.613 57.0026C264.068 57.2112 264.533 57.3576 264.953 57.4661L266.823 50.2143C266.754 50.1963 266.711 50.183 266.692 50.1765C266.672 50.1697 266.688 50.1741 266.732 50.1941L263.613 57.0026ZM265.059 57.4917C265.509 57.5939 265.995 57.6721 266.493 57.7347L267.427 50.3042C267.081 50.2606 266.853 50.2193 266.718 50.1887L265.059 57.4917ZM266.511 57.7369L267.735 57.8849L268.634 50.45L267.409 50.302L266.511 57.7369ZM267.735 57.8849C268.63 57.993 269.023 58.21 269.161 58.3117L273.601 52.2805C272.13 51.1979 270.393 50.6625 268.634 50.45L267.735 57.8849ZM269.161 58.3117C269.184 58.3283 269.192 58.3375 269.193 58.3378C269.193 58.338 269.191 58.3359 269.19 58.334C269.189 58.3322 269.193 58.3388 269.201 58.3586C269.209 58.3791 269.222 58.4182 269.235 58.4814L276.573 56.9827C276.187 55.0962 275.196 53.4544 273.601 52.2805L269.161 58.3117ZM269.235 58.4814C269.26 58.6019 269.248 58.6522 269.236 58.6918L276.408 60.8464C276.792 59.5712 276.834 58.2634 276.573 56.9827L269.235 58.4814ZM269.227 58.7219C269.226 58.7272 269.202 58.822 269.025 59.0071L274.439 64.1812C275.334 63.2451 276.037 62.1232 276.417 60.8163L269.227 58.7219ZM269.043 58.9884C268.875 59.1615 268.549 59.4208 267.956 59.7117L271.255 66.4352C272.423 65.8622 273.515 65.1353 274.421 64.1999L269.043 58.9884ZM267.972 59.7039C267.444 59.96 266.707 60.2119 265.709 60.4158L267.207 67.7534C268.655 67.4578 270.016 67.0356 271.239 66.4431L267.972 59.7039ZM265.709 60.4158C265.256 60.5084 264.826 60.5706 264.417 60.6056L265.059 68.0672C265.772 68.0059 266.489 67.9002 267.207 67.7534L265.709 60.4158ZM264.379 60.6091C263.976 60.648 263.578 60.6618 263.186 60.6515L262.99 68.138C263.692 68.1564 264.394 68.1313 265.097 68.0637L264.379 60.6091ZM263.196 60.6518C262.809 60.6406 262.419 60.6056 262.026 60.5461L260.905 67.9507C261.594 68.0551 262.286 68.1177 262.979 68.1377L263.196 60.6518ZM262.026 60.5461C261.623 60.4851 261.206 60.3989 260.775 60.2856L258.871 67.5285C259.548 67.7064 260.226 67.8479 260.905 67.9507L262.026 60.5461ZM263.366 65.1205L264.095 62.991L257.01 60.564L256.281 62.6936L263.366 65.1205Z" fill="white"/>
</svg>
