<svg width="289" height="227" viewBox="0 0 289 227" fill="none" xmlns="http://www.w3.org/2000/svg">
<rect x="24.6484" y="32.6481" width="261.497" height="192.312" rx="17" fill="white" stroke="#2E2E2E" stroke-width="4"/>
<path d="M16 60H277V199C277 208.389 269.389 216 260 216H33C23.6112 216 16 208.389 16 199V60Z" fill="#2E2E2E" stroke="#2E2E2E" stroke-width="4"/>
<path d="M16 38C16 30.268 22.268 24 30 24H261.497C270.334 24 277.497 31.1634 277.497 40V56.3221H16V38Z" fill="white" stroke="#2E2E2E" stroke-width="4"/>
<circle cx="223.285" cy="41.0258" r="5.91849" fill="#69CF9C" stroke="#2E2E2E" stroke-width="2"/>
<circle cx="242.31" cy="41.0258" r="5.91849" fill="#FDD400" stroke="#2E2E2E" stroke-width="2"/>
<circle cx="260.471" cy="41.0258" r="5.91849" fill="#FB9191" stroke="#2E2E2E" stroke-width="2"/>
<path d="M92.5199 122.465C97.4556 117.529 97.4556 109.527 92.5199 104.591C87.5841 99.6551 79.5817 99.6551 74.6459 104.591C69.7102 109.527 69.7102 117.529 74.6459 122.465C79.5817 127.401 87.5841 127.401 92.5199 122.465Z" fill="#FCEA2B"/>
<path d="M84.3492 124.508C83.7794 125.077 83.187 125.61 82.5811 126.119C86.141 126.4 89.7971 125.188 92.5203 122.465C97.4561 117.529 97.4561 109.527 92.5203 104.591C92.4359 104.506 92.344 104.435 92.2578 104.354C92.5253 111.615 89.8928 118.964 84.3492 124.508Z" fill="#F1B31C"/>
<path d="M67.8072 128.085C70.0635 125.829 70.0635 122.171 67.8072 119.914C65.5508 117.658 61.8926 117.658 59.6362 119.914C57.3799 122.171 57.3799 125.829 59.6362 128.085C61.8926 130.342 65.5508 130.342 67.8072 128.085Z" fill="#FCEA2B"/>
<path d="M64.072 129.019C63.8115 129.28 63.5406 129.523 63.2637 129.756C64.8911 129.885 66.5624 129.33 67.8073 128.085C70.0637 125.829 70.0637 122.171 67.8073 119.914C67.7688 119.876 67.7267 119.843 67.6874 119.806C67.8096 123.126 66.6062 126.485 64.072 129.019Z" fill="#F1B31C"/>
<path d="M68.6172 105.784C71.7197 102.682 71.7197 97.6516 68.6172 94.5491C65.5147 91.4466 60.4846 91.4466 57.3822 94.5491C54.2797 97.6516 54.2797 102.682 57.3822 105.784C60.4846 108.887 65.5147 108.887 68.6172 105.784Z" fill="#FCEA2B"/>
<path d="M63.4815 107.068C63.1233 107.426 62.751 107.761 62.3701 108.081C64.6079 108.258 66.906 107.496 68.6176 105.784C71.7202 102.682 71.7202 97.6515 68.6176 94.5491C68.5646 94.4961 68.5068 94.4512 68.4527 94.4C68.6208 98.9645 66.9661 103.584 63.4815 107.068Z" fill="#F1B31C"/>
<path d="M63.7221 129.778C66.9131 129.778 69.4999 127.191 69.4999 124C69.4999 120.809 66.9131 118.222 63.7221 118.222C60.5311 118.222 57.9443 120.809 57.9443 124C57.9443 127.191 60.5311 129.778 63.7221 129.778Z" stroke="white" stroke-width="2" stroke-miterlimit="10" stroke-linecap="round" stroke-linejoin="round"/>
<path d="M83.5832 126.167C90.5635 126.167 96.2221 120.508 96.2221 113.528C96.2221 106.547 90.5635 100.889 83.5832 100.889C76.603 100.889 70.9443 106.547 70.9443 113.528C70.9443 120.508 76.603 126.167 83.5832 126.167Z" stroke="white" stroke-width="2" stroke-miterlimit="10" stroke-linecap="round" stroke-linejoin="round"/>
<path d="M63.0001 108.111C67.3877 108.111 70.9446 104.554 70.9446 100.167C70.9446 95.779 67.3877 92.2222 63.0001 92.2222C58.6125 92.2222 55.0557 95.779 55.0557 100.167C55.0557 104.554 58.6125 108.111 63.0001 108.111Z" stroke="white" stroke-width="2" stroke-miterlimit="10" stroke-linecap="round" stroke-linejoin="round"/>
<line x1="43" y1="150.5" x2="109" y2="150.5" stroke="white" stroke-width="5"/>
<line x1="43" y1="160.5" x2="109" y2="160.5" stroke="white" stroke-width="5"/>
<line x1="43" y1="170.5" x2="109" y2="170.5" stroke="white" stroke-width="5"/>
<line x1="54" y1="180.5" x2="98" y2="180.5" stroke="white" stroke-width="5"/>
<line x1="119" y1="150.5" x2="185" y2="150.5" stroke="white" stroke-width="5"/>
<line x1="119" y1="160.5" x2="185" y2="160.5" stroke="white" stroke-width="5"/>
<line x1="119" y1="170.5" x2="185" y2="170.5" stroke="white" stroke-width="5"/>
<line x1="130" y1="180.5" x2="174" y2="180.5" stroke="white" stroke-width="5"/>
<path d="M157.232 114.306L161.646 121.277C161.692 121.349 161.711 121.435 161.701 121.52C161.691 121.604 161.652 121.683 161.591 121.742C161.53 121.802 161.45 121.838 161.365 121.845C161.28 121.853 161.195 121.831 161.124 121.783L154.444 117.247C154.393 117.212 154.334 117.191 154.273 117.185C154.212 117.178 154.15 117.188 154.093 117.211C154.037 117.235 153.986 117.272 153.948 117.32C153.909 117.367 153.882 117.424 153.871 117.484L152.365 125.381C152.349 125.465 152.303 125.542 152.237 125.597C152.17 125.652 152.087 125.682 152 125.682C151.914 125.682 151.831 125.652 151.764 125.597C151.698 125.542 151.652 125.465 151.636 125.381L150.129 117.484C150.117 117.424 150.091 117.367 150.052 117.32C150.013 117.272 149.963 117.235 149.906 117.211C149.849 117.188 149.788 117.178 149.726 117.185C149.665 117.191 149.607 117.212 149.556 117.247L142.877 121.783C142.806 121.831 142.721 121.853 142.636 121.846C142.551 121.838 142.471 121.802 142.41 121.743C142.349 121.683 142.31 121.605 142.3 121.52C142.29 121.435 142.309 121.35 142.355 121.277L146.768 114.306C146.8 114.255 146.82 114.196 146.824 114.136C146.829 114.075 146.818 114.014 146.794 113.959C146.769 113.903 146.732 113.854 146.684 113.817C146.636 113.779 146.58 113.754 146.52 113.743L138.911 112.366C138.826 112.35 138.748 112.305 138.693 112.238C138.637 112.172 138.606 112.088 138.606 112.001C138.606 111.914 138.637 111.83 138.693 111.763C138.748 111.696 138.826 111.651 138.911 111.636L146.521 110.257C146.58 110.246 146.637 110.221 146.684 110.183C146.732 110.146 146.77 110.097 146.794 110.041C146.819 109.986 146.829 109.925 146.825 109.864C146.82 109.804 146.801 109.745 146.768 109.694L142.355 102.722C142.309 102.65 142.29 102.565 142.3 102.48C142.31 102.396 142.349 102.317 142.41 102.258C142.471 102.198 142.551 102.162 142.636 102.155C142.721 102.147 142.806 102.169 142.876 102.217L149.556 106.753C149.607 106.788 149.665 106.809 149.726 106.815C149.788 106.822 149.849 106.812 149.906 106.789C149.963 106.765 150.013 106.728 150.052 106.68C150.091 106.633 150.117 106.576 150.128 106.516L151.636 98.6193C151.652 98.5345 151.697 98.4581 151.764 98.4031C151.83 98.3481 151.914 98.318 152 98.318C152.087 98.318 152.17 98.3481 152.237 98.4031C152.303 98.4581 152.348 98.5345 152.365 98.6193L153.871 106.516C153.882 106.576 153.909 106.633 153.948 106.68C153.986 106.728 154.037 106.765 154.093 106.789C154.15 106.812 154.212 106.821 154.273 106.815C154.334 106.809 154.393 106.788 154.444 106.753L161.124 102.217C161.195 102.169 161.28 102.147 161.365 102.154C161.45 102.162 161.53 102.198 161.591 102.257C161.652 102.317 161.691 102.395 161.701 102.48C161.711 102.565 161.692 102.65 161.646 102.722L157.232 109.694C157.199 109.745 157.18 109.803 157.175 109.864C157.171 109.925 157.181 109.985 157.205 110.041C157.23 110.097 157.268 110.146 157.315 110.183C157.363 110.221 157.419 110.246 157.479 110.257L165.089 111.636C165.174 111.651 165.251 111.696 165.307 111.763C165.363 111.83 165.393 111.914 165.393 112.001C165.393 112.088 165.363 112.172 165.307 112.238C165.251 112.305 165.174 112.35 165.089 112.366L157.479 113.743C157.419 113.754 157.363 113.779 157.315 113.817C157.268 113.854 157.23 113.903 157.205 113.959C157.181 114.015 157.171 114.075 157.175 114.136C157.18 114.197 157.199 114.255 157.232 114.306V114.306Z" stroke="black" stroke-width="2" stroke-miterlimit="10"/>
<path d="M170 130.719H134C133.9 130.725 133.8 130.709 133.706 130.674C133.613 130.638 133.527 130.583 133.457 130.512C133.386 130.442 133.331 130.356 133.295 130.263C133.26 130.169 133.244 130.069 133.25 129.969V93.9687C133.244 93.8686 133.26 93.7684 133.295 93.6747C133.331 93.581 133.386 93.4958 133.457 93.425C133.527 93.3541 133.613 93.299 133.706 93.2635C133.8 93.2279 133.9 93.2127 134 93.2187H170C170.1 93.2127 170.201 93.2279 170.294 93.2635C170.388 93.299 170.473 93.3541 170.544 93.425C170.615 93.4958 170.67 93.581 170.706 93.6747C170.741 93.7684 170.756 93.8686 170.75 93.9687V129.969C170.756 130.069 170.741 130.169 170.706 130.263C170.67 130.356 170.615 130.442 170.544 130.512C170.473 130.583 170.388 130.638 170.294 130.674C170.201 130.709 170.1 130.725 170 130.719Z" fill="#F4AA41"/>
<path d="M157.233 114.275L161.647 121.246C161.693 121.318 161.712 121.404 161.702 121.489C161.692 121.573 161.653 121.652 161.592 121.711C161.531 121.77 161.451 121.807 161.366 121.814C161.281 121.822 161.196 121.799 161.125 121.752L154.445 117.216C154.394 117.181 154.335 117.16 154.274 117.153C154.213 117.147 154.151 117.156 154.094 117.18C154.037 117.203 153.987 117.241 153.949 117.288C153.91 117.336 153.883 117.393 153.872 117.453L152.366 125.349C152.35 125.434 152.304 125.511 152.238 125.566C152.171 125.621 152.088 125.651 152.001 125.651C151.915 125.651 151.832 125.621 151.765 125.566C151.699 125.511 151.653 125.434 151.637 125.349L150.13 117.453C150.118 117.392 150.092 117.336 150.053 117.288C150.014 117.241 149.964 117.203 149.907 117.18C149.85 117.156 149.789 117.147 149.727 117.153C149.666 117.16 149.608 117.181 149.557 117.216L142.878 121.752C142.807 121.799 142.722 121.821 142.637 121.814C142.552 121.807 142.473 121.77 142.411 121.711C142.35 121.652 142.311 121.573 142.301 121.488C142.291 121.404 142.31 121.318 142.356 121.246L146.769 114.275C146.801 114.224 146.821 114.165 146.825 114.105C146.83 114.044 146.819 113.983 146.795 113.928C146.771 113.872 146.733 113.823 146.685 113.786C146.637 113.748 146.581 113.723 146.521 113.712L138.912 112.334C138.827 112.319 138.749 112.274 138.694 112.207C138.638 112.14 138.607 112.056 138.607 111.969C138.607 111.883 138.638 111.798 138.694 111.732C138.749 111.665 138.827 111.62 138.912 111.604L146.522 110.226C146.582 110.215 146.638 110.19 146.685 110.152C146.733 110.114 146.771 110.065 146.795 110.01C146.82 109.954 146.83 109.893 146.826 109.833C146.821 109.772 146.802 109.714 146.769 109.662L142.356 102.691C142.31 102.619 142.291 102.533 142.301 102.449C142.311 102.364 142.35 102.286 142.411 102.226C142.472 102.167 142.552 102.131 142.637 102.123C142.722 102.116 142.807 102.138 142.877 102.186L149.557 106.722C149.608 106.756 149.666 106.778 149.727 106.784C149.788 106.79 149.85 106.781 149.907 106.758C149.964 106.734 150.014 106.697 150.053 106.649C150.092 106.601 150.118 106.545 150.129 106.484L151.637 98.5879C151.653 98.5031 151.698 98.4267 151.765 98.3717C151.831 98.3167 151.915 98.2866 152.001 98.2866C152.088 98.2866 152.171 98.3167 152.238 98.3717C152.304 98.4267 152.349 98.5031 152.366 98.5879L153.872 106.484C153.883 106.545 153.91 106.601 153.949 106.649C153.987 106.697 154.037 106.734 154.094 106.757C154.151 106.781 154.213 106.79 154.274 106.784C154.335 106.778 154.394 106.756 154.445 106.722L161.125 102.186C161.196 102.138 161.281 102.116 161.366 102.123C161.451 102.13 161.531 102.167 161.592 102.226C161.653 102.286 161.692 102.364 161.702 102.449C161.712 102.533 161.693 102.619 161.647 102.691L157.233 109.662C157.2 109.714 157.181 109.772 157.176 109.833C157.172 109.893 157.182 109.954 157.206 110.01C157.231 110.065 157.269 110.114 157.316 110.152C157.364 110.19 157.42 110.215 157.48 110.226L165.09 111.604C165.175 111.62 165.252 111.665 165.308 111.732C165.364 111.798 165.394 111.883 165.394 111.969C165.394 112.056 165.364 112.14 165.308 112.207C165.252 112.274 165.175 112.319 165.09 112.334L157.48 113.712C157.42 113.723 157.364 113.748 157.316 113.786C157.269 113.823 157.231 113.872 157.206 113.928C157.182 113.983 157.172 114.044 157.176 114.105C157.181 114.165 157.2 114.224 157.233 114.275Z" fill="white" stroke="white" stroke-width="2" stroke-miterlimit="10"/>
<path d="M170 130.719H134C133.9 130.725 133.8 130.709 133.706 130.674C133.613 130.638 133.527 130.583 133.457 130.512C133.386 130.442 133.331 130.356 133.295 130.263C133.26 130.169 133.244 130.069 133.25 129.969V93.9687C133.244 93.8686 133.26 93.7684 133.295 93.6747C133.331 93.581 133.386 93.4958 133.457 93.425C133.527 93.3541 133.613 93.299 133.706 93.2635C133.8 93.2279 133.9 93.2127 134 93.2187H170C170.1 93.2127 170.201 93.2279 170.294 93.2635C170.388 93.299 170.473 93.3541 170.544 93.425C170.615 93.4958 170.67 93.581 170.706 93.6747C170.741 93.7684 170.756 93.8686 170.75 93.9687V129.969C170.756 130.069 170.741 130.169 170.706 130.263C170.67 130.356 170.615 130.442 170.544 130.512C170.473 130.583 170.388 130.638 170.294 130.674C170.201 130.709 170.1 130.725 170 130.719V130.719Z" stroke="white" stroke-width="2" stroke-linecap="round" stroke-linejoin="round"/>
<line x1="194" y1="150.5" x2="260" y2="150.5" stroke="white" stroke-width="5"/>
<line x1="194" y1="160.5" x2="260" y2="160.5" stroke="white" stroke-width="5"/>
<line x1="194" y1="170.5" x2="260" y2="170.5" stroke="white" stroke-width="5"/>
<line x1="205" y1="180.5" x2="249" y2="180.5" stroke="white" stroke-width="5"/>
<path d="M245.542 101.769L239.087 95.3146L218.376 116.025L210.917 108.566L204.462 115.021L218.495 129.07L245.542 101.769Z" fill="#B1CC33"/>
<path d="M204.458 115.029L218.491 129.078L245.541 101.778L239.086 95.3226L218.376 116.033L210.916 108.574L204.458 115.029Z" stroke="white" stroke-width="2" stroke-miterlimit="10" stroke-linecap="round" stroke-linejoin="round"/>
<rect x="2" y="14" width="159" height="44" fill="#FC7777" stroke="#2E2E2E" stroke-width="4"/>
<rect x="13" y="2" width="159" height="44" fill="#D4C5FF" stroke="#2E2E2E" stroke-width="4"/>
<path d="M34.0625 28.7773C34.7526 29.1289 35.4753 29.3926 36.2305 29.5684C36.9857 29.7441 37.6888 29.832 38.3398 29.832C39.0885 29.832 39.6354 29.7246 39.9805 29.5098C40.332 29.2949 40.5078 29.002 40.5078 28.6309C40.5078 28.5137 40.485 28.3932 40.4395 28.2695C40.4004 28.1458 40.319 28.0254 40.1953 27.9082C40.0781 27.7845 39.9121 27.6641 39.6973 27.5469C39.4889 27.4232 39.2155 27.3027 38.877 27.1855L37.1289 26.5898C35.8789 26.1602 34.9382 25.5807 34.3066 24.8516C33.6751 24.1159 33.3594 23.2435 33.3594 22.2344C33.3594 21.5833 33.4961 20.9583 33.7695 20.3594C34.043 19.7539 34.4564 19.2233 35.0098 18.7676C35.5632 18.3053 36.2598 17.9375 37.0996 17.6641C37.946 17.3906 38.9355 17.2539 40.0684 17.2539C40.6283 17.2539 41.1654 17.2865 41.6797 17.3516C42.194 17.4167 42.6758 17.5013 43.125 17.6055C43.5807 17.7096 43.9974 17.8301 44.375 17.9668C44.7526 18.097 45.0846 18.2272 45.3711 18.3574L44.3164 20.2617C44.1081 20.1315 43.8867 20.0176 43.6523 19.9199C43.4245 19.8223 43.1934 19.7409 42.959 19.6758C42.7311 19.6107 42.5065 19.5618 42.2852 19.5293C42.0638 19.4967 41.862 19.4805 41.6797 19.4805C41.3672 19.4805 41.0938 19.5228 40.8594 19.6074C40.625 19.6855 40.4264 19.793 40.2637 19.9297C40.1074 20.0599 39.987 20.2096 39.9023 20.3789C39.8242 20.5417 39.7852 20.7044 39.7852 20.8672C39.7852 21.0104 39.8177 21.1504 39.8828 21.2871C39.9544 21.4173 40.0716 21.5475 40.2344 21.6777C40.4036 21.8014 40.6217 21.9284 40.8887 22.0586C41.1621 22.1823 41.5007 22.3125 41.9043 22.4492L43.0762 22.8398C44.3457 23.263 45.3158 23.8457 45.9863 24.5879C46.6569 25.3301 46.9922 26.2285 46.9922 27.2832C46.9922 27.9993 46.8294 28.6602 46.5039 29.2656C46.1849 29.8711 45.7064 30.3952 45.0684 30.8379C44.4303 31.2741 43.6361 31.6159 42.6855 31.8633C41.7415 32.1042 40.6445 32.2246 39.3945 32.2246C38.7956 32.2246 38.2161 32.1921 37.6562 32.127C37.1029 32.0684 36.5592 31.9772 36.0254 31.8535C35.498 31.7298 34.9772 31.5736 34.4629 31.3848C33.9486 31.196 33.4342 30.9746 32.9199 30.7207L34.0625 28.7773ZM49.707 17.4883H61.9727V19.7246H55.3613L55.3516 23.6406H60.4102V25.877H55.3516V29.7637H61.9727V32H49.707V17.4883ZM64.8828 17.4883H73.252C74.3327 17.4883 75.2767 17.6022 76.084 17.8301C76.8978 18.0579 77.5749 18.377 78.1152 18.7871C78.6621 19.1973 79.0723 19.6888 79.3457 20.2617C79.6191 20.8346 79.7559 21.4661 79.7559 22.1562C79.7559 23.0091 79.554 23.7676 79.1504 24.4316C78.7467 25.0892 78.1478 25.6133 77.3535 26.0039L80.4004 32.0098H74.0234L71.7188 26.7363H70.5273V32H64.8828V17.4883ZM70.8691 24.9688C71.3314 24.9688 71.7448 24.9036 72.1094 24.7734C72.474 24.6432 72.7832 24.4609 73.0371 24.2266C73.291 23.9857 73.4863 23.7025 73.623 23.377C73.7598 23.0449 73.8281 22.6836 73.8281 22.293C73.8281 21.9023 73.7598 21.5443 73.623 21.2188C73.4863 20.8867 73.291 20.6035 73.0371 20.3691C72.7832 20.1283 72.474 19.9427 72.1094 19.8125C71.7448 19.6823 71.3314 19.6172 70.8691 19.6172H70.5371L70.5273 24.9688H70.8691ZM81.6504 17.4883H87.832L91.2305 26.8145L94.375 17.4883L96.9238 17.4785L91.8359 32L87.2363 31.9902L81.6504 17.4883ZM98.9062 17.4883H104.561L104.551 32H98.9062V17.4883ZM107.432 24.7539C107.432 24.0638 107.52 23.3997 107.695 22.7617C107.878 22.1172 108.141 21.5182 108.486 20.9648C108.831 20.4115 109.255 19.9069 109.756 19.4512C110.257 18.9954 110.827 18.6048 111.465 18.2793C112.109 17.9538 112.819 17.7031 113.594 17.5273C114.368 17.3451 115.202 17.2539 116.094 17.2539C116.667 17.2539 117.214 17.2897 117.734 17.3613C118.262 17.4329 118.757 17.5339 119.219 17.6641C119.681 17.7878 120.107 17.9342 120.498 18.1035C120.895 18.2663 121.253 18.4388 121.572 18.6211L120.732 20.2617C120.368 20.0859 119.951 19.9395 119.482 19.8223C119.02 19.6986 118.538 19.6367 118.037 19.6367C117.367 19.6367 116.745 19.7572 116.172 19.998C115.599 20.2389 115.104 20.5807 114.688 21.0234C114.271 21.4661 113.942 22.0033 113.701 22.6348C113.467 23.2598 113.35 23.9629 113.35 24.7441C113.35 25.5189 113.467 26.222 113.701 26.8535C113.936 27.4785 114.258 28.0156 114.668 28.4648C115.085 28.9076 115.576 29.2526 116.143 29.5C116.715 29.7409 117.334 29.8613 117.998 29.8613C118.467 29.8613 118.936 29.806 119.404 29.6953C119.873 29.5781 120.303 29.4251 120.693 29.2363L121.533 30.877C121.214 31.0658 120.859 31.2415 120.469 31.4043C120.078 31.5671 119.655 31.7135 119.199 31.8438C118.743 31.9674 118.255 32.0651 117.734 32.1367C117.214 32.2083 116.667 32.2441 116.094 32.2441C114.759 32.2441 113.555 32.0488 112.48 31.6582C111.413 31.2611 110.505 30.724 109.756 30.0469C109.007 29.3633 108.431 28.569 108.027 27.6641C107.63 26.7526 107.432 25.7826 107.432 24.7539ZM123.828 17.4883H136.094V19.7246H129.482L129.473 23.6406H134.531V25.877H129.473V29.7637H136.094V32H123.828V17.4883ZM139.199 28.7773C139.889 29.1289 140.612 29.3926 141.367 29.5684C142.122 29.7441 142.826 29.832 143.477 29.832C144.225 29.832 144.772 29.7246 145.117 29.5098C145.469 29.2949 145.645 29.002 145.645 28.6309C145.645 28.5137 145.622 28.3932 145.576 28.2695C145.537 28.1458 145.456 28.0254 145.332 27.9082C145.215 27.7845 145.049 27.6641 144.834 27.5469C144.626 27.4232 144.352 27.3027 144.014 27.1855L142.266 26.5898C141.016 26.1602 140.075 25.5807 139.443 24.8516C138.812 24.1159 138.496 23.2435 138.496 22.2344C138.496 21.5833 138.633 20.9583 138.906 20.3594C139.18 19.7539 139.593 19.2233 140.146 18.7676C140.7 18.3053 141.396 17.9375 142.236 17.6641C143.083 17.3906 144.072 17.2539 145.205 17.2539C145.765 17.2539 146.302 17.2865 146.816 17.3516C147.331 17.4167 147.812 17.5013 148.262 17.6055C148.717 17.7096 149.134 17.8301 149.512 17.9668C149.889 18.097 150.221 18.2272 150.508 18.3574L149.453 20.2617C149.245 20.1315 149.023 20.0176 148.789 19.9199C148.561 19.8223 148.33 19.7409 148.096 19.6758C147.868 19.6107 147.643 19.5618 147.422 19.5293C147.201 19.4967 146.999 19.4805 146.816 19.4805C146.504 19.4805 146.23 19.5228 145.996 19.6074C145.762 19.6855 145.563 19.793 145.4 19.9297C145.244 20.0599 145.124 20.2096 145.039 20.3789C144.961 20.5417 144.922 20.7044 144.922 20.8672C144.922 21.0104 144.954 21.1504 145.02 21.2871C145.091 21.4173 145.208 21.5475 145.371 21.6777C145.54 21.8014 145.758 21.9284 146.025 22.0586C146.299 22.1823 146.637 22.3125 147.041 22.4492L148.213 22.8398C149.482 23.263 150.452 23.8457 151.123 24.5879C151.794 25.3301 152.129 26.2285 152.129 27.2832C152.129 27.9993 151.966 28.6602 151.641 29.2656C151.322 29.8711 150.843 30.3952 150.205 30.8379C149.567 31.2741 148.773 31.6159 147.822 31.8633C146.878 32.1042 145.781 32.2246 144.531 32.2246C143.932 32.2246 143.353 32.1921 142.793 32.127C142.24 32.0684 141.696 31.9772 141.162 31.8535C140.635 31.7298 140.114 31.5736 139.6 31.3848C139.085 31.196 138.571 30.9746 138.057 30.7207L139.199 28.7773Z" fill="#2E2E2E"/>
</svg>
