<svg width="268" height="84" viewBox="0 0 268 84" fill="none" xmlns="http://www.w3.org/2000/svg">
<rect x="1.5" y="12.5063" width="254" height="69" fill="white" stroke="#2E2E2E" stroke-width="3"/>
<rect width="256" height="71" transform="translate(12 0.774902)" fill="#2E2E2E"/>
<path d="M57.1582 28.3911C58.3418 28.3911 59.4404 28.4937 60.4541 28.6987C61.4736 28.8979 62.4082 29.1558 63.2578 29.4722V32.4253C62.9238 32.2378 62.5459 32.0562 62.124 31.8804C61.708 31.7046 61.2539 31.5493 60.7617 31.4146C60.2695 31.2798 59.7422 31.1714 59.1797 31.0894C58.6172 31.0073 58.0254 30.9663 57.4043 30.9663C56.6309 30.9663 55.957 31.022 55.3828 31.1333C54.8086 31.2446 54.3164 31.394 53.9062 31.5815C53.4961 31.769 53.1592 31.9888 52.8955 32.2407C52.6318 32.4868 52.4238 32.7505 52.2715 33.0317C52.1191 33.313 52.0137 33.6001 51.9551 33.8931C51.8965 34.186 51.8672 34.4702 51.8672 34.7456C51.8672 34.9858 51.8906 35.2466 51.9375 35.5278C51.9902 35.8091 52.084 36.0903 52.2188 36.3716C52.3594 36.6528 52.5527 36.9224 52.7988 37.1802C53.0449 37.438 53.3643 37.6665 53.7568 37.8657C54.1553 38.0649 54.6328 38.2261 55.1895 38.3491C55.7461 38.4663 56.4082 38.5249 57.1758 38.5249C57.5625 38.5249 57.8994 38.5132 58.1865 38.4897C58.4736 38.4663 58.7344 38.4341 58.9688 38.3931C59.209 38.3521 59.4316 38.3022 59.6367 38.2437C59.8477 38.1851 60.0645 38.1235 60.2871 38.0591V36.6001H56.6309V33.9546H63.5479V40.1245C63.1143 40.271 62.6279 40.4058 62.0889 40.5288C61.5557 40.646 61.002 40.7456 60.4277 40.8276C59.8594 40.9155 59.2881 40.9829 58.7139 41.0298C58.1396 41.0767 57.5977 41.1001 57.0879 41.1001C56.2969 41.1001 55.5381 41.0474 54.8115 40.9419C54.085 40.8364 53.4053 40.6753 52.7725 40.4585C52.1455 40.2358 51.5713 39.9546 51.0498 39.6147C50.5342 39.2749 50.0918 38.8706 49.7227 38.4019C49.3594 37.9331 49.0752 37.397 48.8701 36.7935C48.6709 36.1841 48.5713 35.5015 48.5713 34.7456C48.5713 33.9956 48.6768 33.3159 48.8877 32.7065C49.0986 32.0972 49.3916 31.5581 49.7666 31.0894C50.1475 30.6206 50.6016 30.2163 51.1289 29.8765C51.6621 29.5366 52.2451 29.2583 52.8779 29.0415C53.5166 28.8188 54.1963 28.6548 54.917 28.5493C55.6436 28.4438 56.3906 28.3911 57.1582 28.3911ZM67.0635 40.7749V28.6987H79.2891V31.2739H70.4121V33.269H78.832V35.8442H70.4121V38.1997H79.4121V40.7749H67.0635ZM89.335 31.3267V40.7749H86.0742V31.3267H80.9502V28.6987H94.4678V31.3267H89.335ZM114.524 32.1001C114.296 31.9888 113.994 31.8628 113.619 31.7222C113.244 31.5815 112.819 31.4497 112.345 31.3267C111.87 31.1978 111.354 31.0923 110.798 31.0103C110.241 30.9224 109.67 30.8784 109.084 30.8784C108.615 30.8784 108.214 30.8931 107.88 30.9224C107.552 30.9517 107.273 30.9897 107.045 31.0366C106.822 31.0835 106.644 31.1392 106.509 31.2036C106.38 31.2622 106.28 31.3237 106.21 31.3882C106.14 31.4526 106.093 31.5171 106.069 31.5815C106.052 31.646 106.043 31.7046 106.043 31.7573C106.043 31.9331 106.131 32.0884 106.307 32.2231C106.482 32.3521 106.723 32.4692 107.027 32.5747C107.332 32.6743 107.687 32.771 108.091 32.8647C108.495 32.9526 108.923 33.0464 109.374 33.146C109.831 33.2397 110.3 33.3452 110.78 33.4624C111.267 33.5737 111.735 33.7056 112.187 33.8579C112.644 34.0103 113.074 34.189 113.479 34.394C113.883 34.5933 114.237 34.8276 114.542 35.0972C114.847 35.3667 115.087 35.6772 115.263 36.0288C115.438 36.3804 115.526 36.7817 115.526 37.2329C115.526 37.813 115.424 38.311 115.219 38.7271C115.014 39.1431 114.738 39.4946 114.393 39.7817C114.053 40.0688 113.657 40.3003 113.206 40.4761C112.755 40.646 112.28 40.7778 111.782 40.8716C111.29 40.9653 110.789 41.0269 110.279 41.0562C109.775 41.0854 109.295 41.1001 108.838 41.1001C107.643 41.1001 106.535 41.0005 105.516 40.8013C104.502 40.6079 103.605 40.3647 102.826 40.0718V37.189C103.629 37.6343 104.543 37.9829 105.568 38.2349C106.6 38.4868 107.701 38.6128 108.873 38.6128C109.564 38.6128 110.127 38.5776 110.561 38.5073C111 38.4312 111.343 38.3374 111.589 38.2261C111.835 38.1089 112.002 37.9829 112.09 37.8481C112.178 37.7134 112.222 37.5845 112.222 37.4614C112.222 37.2681 112.134 37.1011 111.958 36.9604C111.782 36.814 111.542 36.688 111.237 36.5825C110.933 36.4712 110.578 36.3716 110.174 36.2837C109.77 36.1899 109.339 36.0991 108.882 36.0112C108.431 35.9175 107.965 35.8179 107.484 35.7124C107.004 35.6069 106.535 35.4839 106.078 35.3433C105.627 35.1968 105.199 35.0298 104.795 34.8423C104.391 34.6489 104.036 34.4233 103.731 34.1655C103.427 33.9019 103.187 33.6001 103.011 33.2603C102.835 32.9146 102.747 32.5161 102.747 32.0649C102.747 31.5317 102.841 31.0718 103.028 30.6851C103.216 30.2983 103.468 29.9702 103.784 29.7007C104.106 29.4253 104.476 29.2026 104.892 29.0327C105.313 28.8628 105.756 28.731 106.219 28.6372C106.682 28.5435 107.15 28.479 107.625 28.4438C108.1 28.4087 108.551 28.3911 108.979 28.3911C109.447 28.3911 109.928 28.4146 110.42 28.4614C110.918 28.5083 111.407 28.5757 111.888 28.6636C112.368 28.7456 112.831 28.8423 113.276 28.9536C113.728 29.0649 114.144 29.1821 114.524 29.3052V32.1001ZM125.388 31.3267V40.7749H122.127V31.3267H117.003V28.6987H130.521V31.3267H125.388ZM141.683 38.4897H134.95L133.816 40.7749H130.178L136.497 28.6987H140.136L146.455 40.7749H142.816L141.683 38.4897ZM136.119 36.1343H140.531L138.334 31.687L136.119 36.1343ZM151.693 40.7749H148.433V28.6987H156.606C157.485 28.6987 158.229 28.7896 158.839 28.9712C159.454 29.1528 159.952 29.4106 160.333 29.7446C160.72 30.0786 160.998 30.4829 161.168 30.9575C161.344 31.4263 161.432 31.9507 161.432 32.5308C161.432 33.0405 161.358 33.4858 161.212 33.8667C161.071 34.2476 160.878 34.5757 160.632 34.8511C160.392 35.1206 160.11 35.3491 159.788 35.5366C159.466 35.7241 159.126 35.8794 158.769 36.0024L162.724 40.7749H158.909L155.253 36.3276H151.693V40.7749ZM158.136 32.5132C158.136 32.2788 158.104 32.0796 158.039 31.9155C157.98 31.7515 157.875 31.6196 157.723 31.52C157.57 31.4146 157.365 31.3384 157.107 31.2915C156.855 31.2446 156.539 31.2212 156.158 31.2212H151.693V33.8052H156.158C156.539 33.8052 156.855 33.7817 157.107 33.7349C157.365 33.688 157.57 33.6147 157.723 33.5151C157.875 33.4097 157.98 33.2749 158.039 33.1108C158.104 32.9468 158.136 32.7476 158.136 32.5132ZM171.829 31.3267V40.7749H168.568V31.3267H163.444V28.6987H176.962V31.3267H171.829ZM179.124 40.7749V28.6987H191.35V31.2739H182.473V33.269H190.893V35.8442H182.473V38.1997H191.473V40.7749H179.124ZM209.42 34.728C209.42 35.5015 209.335 36.1899 209.165 36.7935C208.995 37.3911 208.755 37.9126 208.444 38.3579C208.14 38.8032 207.771 39.1812 207.337 39.4917C206.909 39.8022 206.432 40.0513 205.904 40.2388C205.377 40.4263 204.809 40.564 204.199 40.6519C203.59 40.7339 202.954 40.7749 202.292 40.7749H194.628V28.6987H202.274C202.937 28.6987 203.572 28.7427 204.182 28.8306C204.791 28.9126 205.359 29.0474 205.887 29.2349C206.42 29.4224 206.903 29.6714 207.337 29.9819C207.771 30.2866 208.14 30.6646 208.444 31.1157C208.755 31.561 208.995 32.0825 209.165 32.6802C209.335 33.2778 209.42 33.9604 209.42 34.728ZM206.133 34.728C206.133 34.1479 206.057 33.644 205.904 33.2163C205.758 32.7886 205.518 32.437 205.184 32.1616C204.855 31.8804 204.425 31.6724 203.892 31.5376C203.358 31.397 202.708 31.3267 201.94 31.3267H197.889V38.147H201.94C202.708 38.147 203.358 38.0796 203.892 37.9448C204.425 37.8042 204.855 37.5933 205.184 37.312C205.518 37.0249 205.758 36.6675 205.904 36.2397C206.057 35.812 206.133 35.3081 206.133 34.728Z" fill="white"/>
<path d="M220 29.7749H233M233 29.7749V42.7749M233 29.7749L221 41.7749" stroke="#FFF969" stroke-width="2"/>
</svg>
