<svg width="92" height="92" viewBox="0 0 92 92" fill="none" xmlns="http://www.w3.org/2000/svg">
<circle cx="46" cy="46" r="44" fill="white" stroke="#2E2E2E" stroke-width="4"/>
<path d="M27 43.5H67M55 34V31C55 30.2044 54.6629 29.4413 54.0627 28.8787C53.4626 28.3161 52.6487 28 51.8 28H42.2C41.3513 28 40.5374 28.3161 39.9373 28.8787C39.3371 29.4413 39 30.2044 39 31V34M28.6667 34H65.3333C66.2538 34 67 34.7462 67 35.6667V62.3333C67 63.2538 66.2538 64 65.3333 64H28.6667C27.7462 64 27 63.2538 27 62.3333V35.6667C27 34.7462 27.7462 34 28.6667 34Z" stroke="#2E2E2E" stroke-width="3" stroke-linecap="round" stroke-linejoin="round"/>
</svg>
