<svg width="92" height="92" viewBox="0 0 92 92" fill="none" xmlns="http://www.w3.org/2000/svg">
<circle cx="46" cy="46" r="44" fill="white" stroke="#2E2E2E" stroke-width="4"/>
<path d="M34.625 51.6262V58.9996C34.625 59.4306 34.7962 59.8439 35.1009 60.1487C35.4057 60.4534 35.819 60.6246 36.25 60.6246H42.75C43.181 60.6246 43.5943 60.4534 43.899 60.1487C44.2038 59.8439 44.375 59.4306 44.375 58.9996V34.2793M65.5 30.2976V58.4507C65.5003 58.7024 65.4421 58.9508 65.33 59.1761C65.2179 59.4015 65.055 59.5977 64.8541 59.7494C64.6532 59.9011 64.4198 60.004 64.1723 60.05C63.9249 60.0961 63.6701 60.084 63.4281 60.0148L27.6781 49.5945C27.3384 49.4973 27.0396 49.2921 26.827 49.0098C26.6144 48.7276 26.4996 48.3838 26.5 48.0304V40.7179C26.4996 40.3646 26.6144 40.0208 26.827 39.7385C27.0396 39.4563 27.3384 39.251 27.6781 39.1539L63.4281 28.7336C63.6701 28.6643 63.9249 28.6523 64.1723 28.6983C64.4198 28.7444 64.6532 28.8473 64.8541 28.999C65.055 29.1506 65.2179 29.3469 65.33 29.5722C65.4421 29.7976 65.5003 30.0459 65.5 30.2976Z" stroke="#2E2E2E" stroke-width="3" stroke-linecap="round" stroke-linejoin="round"/>
</svg>
