<svg width="96" height="96" viewBox="0 0 96 96" fill="none" xmlns="http://www.w3.org/2000/svg">
<circle cx="46" cy="50" r="44" fill="#2E2E2E" stroke="#2E2E2E" stroke-width="4"/>
<circle cx="50" cy="46" r="44" fill="#FFF969" stroke="#2E2E2E" stroke-width="4"/>
<path d="M62.4673 31.1159C68.6122 29.4448 73.2264 29.5987 74.6018 31.9295C77.0421 36.1293 68.0132 45.8483 54.4367 53.6103C40.8602 61.3723 27.8605 64.2748 25.3981 60.0749C24.0449 57.7441 26.2189 53.6982 30.7444 49.2565M69 46C69 56.4934 60.4934 65 50 65C39.5066 65 31 56.4934 31 46C31 35.5066 39.5066 27 50 27C60.4934 27 69 35.5066 69 46Z" stroke="#2E2E2E" stroke-width="3" stroke-linecap="round" stroke-linejoin="round"/>
</svg>
