<svg width="50" height="50" viewBox="0 0 50 50" fill="none" xmlns="http://www.w3.org/2000/svg">
<rect y="5" width="45" height="45" fill="#2E2E2E"/>
<rect x="5" width="45" height="45" fill="#FFB9DB"/>
<path fill-rule="evenodd" clip-rule="evenodd" d="M38.222 22.6995C38.222 16.7909 33.2468 12 27.111 12C20.9751 12 16 16.7909 16 22.6995C16 28.0396 20.0625 32.4661 25.3749 33.2695L25.3749 25.7932H22.553V22.6995H25.3749V20.3422C25.3749 17.6612 27.0341 16.179 29.5718 16.179C30.7875 16.179 32.0593 16.3882 32.0593 16.3882V19.0215H30.6576C29.2781 19.0215 28.8466 19.846 28.8466 20.6933V22.6995H31.9279L31.4358 25.7932H28.8471L28.8471 33.2704C34.1595 32.4675 38.222 28.0411 38.222 22.6995Z" fill="#2E2E2E"/>
</svg>
