<svg width="349" height="47" viewBox="0 0 349 47" fill="none" xmlns="http://www.w3.org/2000/svg">
<path d="M87.5757 9.51855L93.5742 25.8223L100.068 9.51855H106.648L97.2144 33H90.1733L84.0381 17.209L77.9199 33H70.8789L61.4282 9.51855H68.0249L74.3823 25.4805L80.5176 9.51855H87.5757ZM140.913 21.2764C140.913 23.293 140.543 25.076 139.802 26.6255C139.062 28.1636 138.002 29.451 136.624 30.4878C135.245 31.5246 133.57 32.3107 131.599 32.8462C129.639 33.3703 127.435 33.6323 124.985 33.6323C122.536 33.6323 120.32 33.3703 118.337 32.8462C116.366 32.3107 114.686 31.5246 113.296 30.4878C111.906 29.451 110.835 28.1636 110.083 26.6255C109.331 25.076 108.955 23.293 108.955 21.2764C108.955 19.2598 109.331 17.4824 110.083 15.9443C110.835 14.3949 111.906 13.1017 113.296 12.0649C114.686 11.0282 116.366 10.2477 118.337 9.72363C120.32 9.18815 122.536 8.92041 124.985 8.92041C127.435 8.92041 129.639 9.18815 131.599 9.72363C133.57 10.2477 135.245 11.0282 136.624 12.0649C138.002 13.1017 139.062 14.3949 139.802 15.9443C140.543 17.4824 140.913 19.2598 140.913 21.2764ZM134.504 21.2764C134.504 20.3991 134.362 19.5275 134.077 18.6616C133.804 17.7843 133.308 16.9982 132.59 16.3032C131.884 15.6082 130.916 15.0443 129.685 14.6113C128.455 14.1784 126.888 13.9619 124.985 13.9619C123.709 13.9619 122.587 14.0645 121.619 14.2695C120.65 14.4632 119.813 14.7367 119.106 15.0898C118.4 15.443 117.808 15.8589 117.329 16.3374C116.851 16.8045 116.469 17.3115 116.184 17.8584C115.899 18.3939 115.694 18.9578 115.569 19.5503C115.455 20.1313 115.398 20.7067 115.398 21.2764C115.398 21.8574 115.455 22.4442 115.569 23.0366C115.694 23.6291 115.899 24.1987 116.184 24.7456C116.469 25.2811 116.851 25.7824 117.329 26.2495C117.808 26.7166 118.4 27.1268 119.106 27.48C119.813 27.8218 120.65 28.0952 121.619 28.3003C122.587 28.494 123.709 28.5908 124.985 28.5908C126.888 28.5908 128.455 28.3743 129.685 27.9414C130.916 27.5085 131.884 26.9445 132.59 26.2495C133.308 25.5545 133.804 24.7741 134.077 23.9082C134.362 23.0309 134.504 22.1536 134.504 21.2764ZM168.291 14.8335C168.12 14.7765 167.869 14.7025 167.539 14.6113C167.22 14.5088 166.844 14.4119 166.411 14.3208C165.978 14.2183 165.5 14.1328 164.976 14.0645C164.463 13.9961 163.933 13.9619 163.386 13.9619C162.247 13.9619 161.182 14.1043 160.19 14.3892C159.211 14.6626 158.293 15.0329 157.439 15.5C156.584 15.9557 155.787 16.4798 155.046 17.0723C154.317 17.6533 153.645 18.2515 153.03 18.8667V33H146.689V9.51855H153.03V13.3296C153.793 12.7599 154.574 12.2131 155.371 11.689C156.18 11.1535 157.017 10.6807 157.883 10.2705C158.761 9.86035 159.683 9.53564 160.652 9.29639C161.62 9.04574 162.646 8.92041 163.728 8.92041C164.138 8.92041 164.554 8.9432 164.976 8.98877C165.409 9.02295 165.824 9.06852 166.223 9.12549C166.633 9.18245 167.015 9.24512 167.368 9.31348C167.721 9.38184 168.029 9.4502 168.291 9.51855V14.8335ZM194.626 33C194.513 31.724 194.205 30.6074 193.704 29.6504C193.202 28.682 192.57 27.8503 191.807 27.1553C191.055 26.4603 190.2 25.8849 189.243 25.4292C188.298 24.9735 187.323 24.6146 186.321 24.3525C185.318 24.0791 184.316 23.8911 183.313 23.7886C182.322 23.6746 181.399 23.6177 180.544 23.6177H178.665V33H172.324V9.51855H178.665V18.5762H179.963C180.841 18.5762 181.758 18.5078 182.715 18.3711C183.672 18.2344 184.618 18.0179 185.552 17.7217C186.497 17.4255 187.403 17.0438 188.269 16.5767C189.135 16.1095 189.91 15.5399 190.593 14.8677C191.277 14.1955 191.847 13.4207 192.302 12.5435C192.758 11.6548 193.043 10.6465 193.157 9.51855H199.617C199.503 10.7604 199.252 11.8826 198.865 12.8853C198.489 13.8879 198.016 14.7879 197.446 15.5854C196.888 16.3716 196.261 17.0609 195.566 17.6533C194.871 18.2458 194.159 18.7585 193.43 19.1914C192.701 19.613 191.972 19.9661 191.243 20.251C190.525 20.5244 189.853 20.7352 189.226 20.8833C190.024 21.0086 190.85 21.208 191.704 21.4814C192.57 21.7435 193.424 22.0967 194.268 22.541C195.111 22.974 195.914 23.5094 196.677 24.1475C197.452 24.7855 198.147 25.5317 198.762 26.3862C199.377 27.2407 199.89 28.2148 200.3 29.3086C200.71 30.4023 200.972 31.6328 201.086 33H194.626ZM212.878 9.51855V12.0991C213.437 11.7459 214.041 11.3813 214.69 11.0054C215.351 10.6294 216.063 10.2876 216.826 9.97998C217.601 9.67236 218.427 9.42171 219.304 9.22803C220.193 9.02295 221.15 8.92041 222.175 8.92041C223.178 8.92041 224.055 9.02865 224.807 9.24512C225.559 9.4502 226.208 9.72363 226.755 10.0654C227.314 10.3958 227.786 10.7718 228.174 11.1934C228.561 11.6035 228.897 12.0137 229.182 12.4238C229.991 11.8997 230.789 11.4212 231.575 10.9883C232.361 10.5553 233.153 10.1851 233.95 9.87744C234.748 9.56982 235.562 9.33626 236.394 9.17676C237.226 9.00586 238.092 8.92041 238.992 8.92041C240.427 8.92041 241.709 9.11979 242.837 9.51855C243.976 9.91732 244.939 10.4642 245.725 11.1592C246.511 11.8542 247.109 12.6745 247.52 13.6201C247.941 14.5544 248.152 15.557 248.152 16.6279V33H241.812V17.5337C241.812 16.9071 241.715 16.3659 241.521 15.9102C241.327 15.4544 241.065 15.0841 240.735 14.7993C240.416 14.5145 240.034 14.3037 239.59 14.167C239.157 14.0303 238.695 13.9619 238.206 13.9619C235.927 13.9619 233.329 14.9873 230.413 17.0381C230.447 17.2318 230.47 17.4596 230.481 17.7217C230.504 17.9837 230.515 18.2458 230.515 18.5078V33H224.175V17.397C224.175 16.7703 224.078 16.2406 223.884 15.8076C223.691 15.3633 223.423 15.0044 223.081 14.731C222.751 14.4575 222.363 14.2638 221.919 14.1499C221.486 14.0246 221.025 13.9619 220.535 13.9619C219.942 13.9619 219.316 14.0474 218.655 14.2183C218.005 14.3892 217.345 14.6284 216.672 14.936C216.012 15.2437 215.356 15.6082 214.707 16.0298C214.069 16.4513 213.459 16.9071 212.878 17.397V33H206.538V9.51855H212.878ZM281.597 31.8379C279.671 32.4759 277.746 32.9316 275.82 33.2051C273.906 33.4899 271.947 33.6323 269.941 33.6323C267.378 33.6323 265.094 33.3589 263.088 32.812C261.095 32.2537 259.414 31.4505 258.047 30.4023C256.68 29.3542 255.637 28.0724 254.919 26.5571C254.202 25.0418 253.843 23.3271 253.843 21.4131C253.843 19.6357 254.202 17.9894 254.919 16.4741C255.649 14.9474 256.674 13.6258 257.996 12.5093C259.329 11.3813 260.935 10.5041 262.815 9.87744C264.695 9.23942 266.791 8.92041 269.104 8.92041C271.235 8.92041 273.183 9.21094 274.949 9.79199C276.726 10.3617 278.247 11.2104 279.512 12.3384C280.788 13.4663 281.773 14.8563 282.468 16.5083C283.175 18.1603 283.528 20.063 283.528 22.2163V23.7886H260.388C260.593 24.5291 260.929 25.207 261.396 25.8223C261.875 26.4375 262.519 26.9616 263.328 27.3945C264.137 27.8275 265.128 28.1636 266.301 28.4028C267.486 28.6421 268.899 28.7617 270.54 28.7617C271.702 28.7617 272.841 28.6934 273.958 28.5566C275.074 28.4085 276.117 28.2205 277.085 27.9927C278.053 27.7534 278.925 27.4914 279.7 27.2065C280.486 26.9217 281.118 26.6369 281.597 26.3521V31.8379ZM277.222 19.1401C277.165 18.5591 276.988 17.9609 276.692 17.3457C276.407 16.7191 275.951 16.1551 275.325 15.6538C274.698 15.1525 273.878 14.7424 272.864 14.4233C271.85 14.0929 270.585 13.9277 269.07 13.9277C267.646 13.9277 266.415 14.1043 265.378 14.4575C264.342 14.8107 263.47 15.2493 262.764 15.7734C262.069 16.2975 261.528 16.8615 261.14 17.4653C260.753 18.0692 260.502 18.6274 260.388 19.1401H277.222ZM311.658 33V19.8408C311.658 18.9635 311.584 18.1717 311.436 17.4653C311.287 16.7476 311.008 16.138 310.598 15.6367C310.199 15.124 309.635 14.731 308.906 14.4575C308.188 14.1727 307.26 14.0303 306.121 14.0303C305.255 14.0303 304.343 14.1499 303.386 14.3892C302.441 14.617 301.501 14.9246 300.566 15.312C299.632 15.6994 298.738 16.1494 297.883 16.6621C297.04 17.1748 296.288 17.7103 295.627 18.2686V33H289.287V9.51855H295.627V12.7314C296.425 12.2757 297.274 11.8257 298.174 11.3813C299.074 10.9256 300.031 10.5155 301.045 10.1509C302.059 9.7863 303.136 9.49007 304.275 9.26221C305.414 9.03434 306.616 8.92041 307.881 8.92041C309.465 8.92041 310.877 9.1141 312.119 9.50146C313.372 9.87744 314.432 10.4186 315.298 11.125C316.164 11.82 316.825 12.6688 317.28 13.6714C317.747 14.6626 317.981 15.7734 317.981 17.0039V33H311.658ZM338.403 14.6284V33H332.063V14.6284H322.1V9.51855H348.384V14.6284H338.403Z" fill="black"/>
<path d="M22.656 4.35056C22.836 3.42256 24.164 3.42256 24.344 4.35056L26.2011 13.9235C26.3247 14.5605 27.0823 14.8363 27.5864 14.4278L35.1625 8.28817C35.8969 7.693 36.9142 8.54658 36.4556 9.37319L31.7248 17.9003C31.41 18.4676 31.8132 19.1659 32.4619 19.177L42.212 19.3436C43.1571 19.3597 43.3877 20.6675 42.5051 21.0059L33.4 24.4972C32.7942 24.7295 32.6542 25.5235 33.144 25.949L40.5059 32.3438C41.2196 32.9637 40.5556 34.1137 39.6619 33.8056L30.4429 30.6275C29.8295 30.416 29.2118 30.9343 29.3136 31.5751L30.8426 41.2059C30.9908 42.1395 29.743 42.5937 29.2564 41.7833L24.2371 33.4228C23.9031 32.8665 23.0969 32.8665 22.7629 33.4228L17.7436 41.7833C17.257 42.5937 16.0092 42.1395 16.1574 41.2059L17.6864 31.5751C17.7882 30.9343 17.1705 30.416 16.5571 30.6275L7.3381 33.8056C6.44441 34.1137 5.78044 32.9637 6.4941 32.3438L13.856 25.949C14.3458 25.5235 14.2058 24.7295 13.6 24.4972L4.49492 21.0059C3.61228 20.6675 3.84288 19.3597 4.78804 19.3436L14.5381 19.177C15.1868 19.1659 15.59 18.4676 15.2752 17.9003L10.5444 9.37319C10.0858 8.54658 11.1031 7.693 11.8375 8.28817L19.4136 14.4278C19.9177 14.8363 20.6753 14.5605 20.7989 13.9235L22.656 4.35056Z" fill="black"/>
</svg>
