<svg width="50" height="50" viewBox="0 0 50 50" fill="none" xmlns="http://www.w3.org/2000/svg">
<rect y="5" width="45" height="45" fill="#2E2E2E"/>
<rect x="5" width="45" height="45" fill="#FFB9DB"/>
<path d="M27.2899 12C21.0552 12 16 17.053 16 23.2848C16 27.9045 18.7821 31.8744 22.7588 33.6225C22.7286 32.8366 22.7538 31.8895 22.9554 31.0331C23.1721 30.1162 24.4069 24.8818 24.4069 24.8818C24.4069 24.8818 24.044 24.1614 24.044 23.0984C24.044 21.4259 25.0117 20.1765 26.2214 20.1765C27.2495 20.1765 27.7435 20.9473 27.7435 21.8692C27.7435 22.9019 27.0832 24.4435 26.7455 25.8743C26.4633 27.0733 27.3453 28.0456 28.5297 28.0456C30.6667 28.0456 32.1082 25.3 32.1082 22.0455C32.1082 19.5719 30.4399 17.723 27.4108 17.723C23.9886 17.723 21.8516 20.2772 21.8516 23.1286C21.8516 24.111 22.1439 24.8063 22.5975 25.3403C22.8042 25.5871 22.8344 25.6879 22.7588 25.97C22.7034 26.1766 22.5824 26.6753 22.527 26.8768C22.4514 27.164 22.2195 27.2647 21.9625 27.1589C20.3849 26.5141 19.649 24.7911 19.649 22.8465C19.649 19.6424 22.3556 15.7986 27.7183 15.7986C32.0276 15.7986 34.8652 18.917 34.8652 22.2621C34.8652 26.6904 32.4005 29.9953 28.7717 29.9953C27.5519 29.9953 26.4078 29.3353 26.0147 28.5897C26.0147 28.5897 25.3595 31.1892 25.2184 31.693C24.9815 32.5646 24.5128 33.4311 24.0843 34.1112C25.1236 34.4176 26.2013 34.5737 27.2848 34.5747C33.5194 34.5747 38.5747 29.5217 38.5747 23.2899C38.5747 17.058 33.5245 12 27.2899 12Z" fill="#2E2E2E"/>
</svg>
