<svg width="50" height="50" viewBox="0 0 50 50" fill="none" xmlns="http://www.w3.org/2000/svg">
<rect y="5" width="45" height="45" fill="#2E2E2E"/>
<rect x="5" width="45" height="45" fill="#FFB9DB"/>
<path d="M38.8092 15.2569C37.9161 15.645 36.9712 15.9007 36.0042 16.0158C37.0204 15.4208 37.7846 14.4755 38.1535 13.3571C37.1927 13.9189 36.1434 14.3131 35.0504 14.5228C34.5901 14.0404 34.0365 13.6567 33.4234 13.3949C32.8102 13.1331 32.1502 12.9988 31.4834 13C28.7841 13 26.5996 15.1528 26.5996 17.8065C26.5976 18.1756 26.6399 18.5436 26.7256 18.9027C24.7899 18.812 22.8945 18.3182 21.1606 17.453C19.4268 16.5877 17.8926 15.3701 16.6562 13.878C16.2225 14.6092 15.9931 15.4435 15.9921 16.2936C15.9921 17.9603 16.8616 19.4335 18.1746 20.2965C17.3967 20.2781 16.6347 20.0722 15.9534 19.6964V19.7559C15.9534 22.0872 17.6398 24.0267 19.872 24.4681C19.4522 24.58 19.0197 24.6367 18.5853 24.6368C18.277 24.6373 17.9695 24.6074 17.6671 24.5475C18.2877 26.4572 20.0937 27.8461 22.233 27.8857C20.4947 29.2255 18.3604 29.9496 16.1657 29.9442C15.7761 29.9437 15.3869 29.9205 15 29.8748C17.2327 31.3005 19.828 32.0546 22.4771 32.0474C31.473 32.0474 36.3876 24.7211 36.3876 18.367C36.3876 18.1587 36.3822 17.9503 36.3723 17.747C37.3262 17.0684 38.1514 16.2252 38.8092 15.2569Z" fill="#2E2E2E"/>
</svg>
