<svg width="288" height="26" viewBox="0 0 288 26" fill="none" xmlns="http://www.w3.org/2000/svg">
<path d="M26.5757 1.51855L32.5742 17.8223L39.0684 1.51855H45.6479L36.2144 25H29.1733L23.0381 9.20898L16.9199 25H9.87891L0.428223 1.51855H7.0249L13.3823 17.4805L19.5176 1.51855H26.5757ZM79.9131 13.2764C79.9131 15.293 79.5428 17.076 78.8022 18.6255C78.0617 20.1636 77.0021 21.451 75.6235 22.4878C74.245 23.5246 72.5701 24.3107 70.5991 24.8462C68.6395 25.3703 66.4349 25.6323 63.9854 25.6323C61.5358 25.6323 59.3198 25.3703 57.3374 24.8462C55.3664 24.3107 53.6859 23.5246 52.2959 22.4878C50.9059 21.451 49.835 20.1636 49.083 18.6255C48.3311 17.076 47.9551 15.293 47.9551 13.2764C47.9551 11.2598 48.3311 9.48242 49.083 7.94434C49.835 6.39486 50.9059 5.10173 52.2959 4.06494C53.6859 3.02816 55.3664 2.24772 57.3374 1.72363C59.3198 1.18815 61.5358 0.92041 63.9854 0.92041C66.4349 0.92041 68.6395 1.18815 70.5991 1.72363C72.5701 2.24772 74.245 3.02816 75.6235 4.06494C77.0021 5.10173 78.0617 6.39486 78.8022 7.94434C79.5428 9.48242 79.9131 11.2598 79.9131 13.2764ZM73.5044 13.2764C73.5044 12.3991 73.362 11.5275 73.0771 10.6616C72.8037 9.78434 72.3081 8.99821 71.5903 8.30322C70.884 7.60824 69.9155 7.04427 68.6851 6.61133C67.4546 6.17839 65.888 5.96191 63.9854 5.96191C62.7093 5.96191 61.5871 6.06445 60.6187 6.26953C59.6502 6.46322 58.8128 6.73665 58.1064 7.08984C57.4001 7.44303 56.8076 7.85889 56.3291 8.3374C55.8506 8.80452 55.4689 9.31152 55.1841 9.8584C54.8993 10.3939 54.6942 10.9578 54.5688 11.5503C54.4549 12.1313 54.3979 12.7067 54.3979 13.2764C54.3979 13.8574 54.4549 14.4442 54.5688 15.0366C54.6942 15.6291 54.8993 16.1987 55.1841 16.7456C55.4689 17.2811 55.8506 17.7824 56.3291 18.2495C56.8076 18.7166 57.4001 19.1268 58.1064 19.48C58.8128 19.8218 59.6502 20.0952 60.6187 20.3003C61.5871 20.494 62.7093 20.5908 63.9854 20.5908C65.888 20.5908 67.4546 20.3743 68.6851 19.9414C69.9155 19.5085 70.884 18.9445 71.5903 18.2495C72.3081 17.5545 72.8037 16.7741 73.0771 15.9082C73.362 15.0309 73.5044 14.1536 73.5044 13.2764ZM107.291 6.8335C107.12 6.77653 106.869 6.70247 106.539 6.61133C106.22 6.50879 105.844 6.41195 105.411 6.3208C104.978 6.21826 104.5 6.13281 103.976 6.06445C103.463 5.99609 102.933 5.96191 102.386 5.96191C101.247 5.96191 100.182 6.10433 99.1904 6.38916C98.2106 6.6626 97.2935 7.03288 96.439 7.5C95.5845 7.95573 94.7869 8.47982 94.0464 9.07227C93.3172 9.65332 92.645 10.2515 92.0298 10.8667V25H85.6895V1.51855H92.0298V5.32959C92.7931 4.75993 93.5736 4.21305 94.3711 3.68896C95.18 3.15348 96.0174 2.68066 96.8833 2.27051C97.7606 1.86035 98.6834 1.53564 99.6519 1.29639C100.62 1.04574 101.646 0.92041 102.728 0.92041C103.138 0.92041 103.554 0.943197 103.976 0.98877C104.409 1.02295 104.824 1.06852 105.223 1.12549C105.633 1.18245 106.015 1.24512 106.368 1.31348C106.721 1.38184 107.029 1.4502 107.291 1.51855V6.8335ZM133.626 25C133.513 23.724 133.205 22.6074 132.704 21.6504C132.202 20.682 131.57 19.8503 130.807 19.1553C130.055 18.4603 129.2 17.8849 128.243 17.4292C127.298 16.9735 126.323 16.6146 125.321 16.3525C124.318 16.0791 123.316 15.8911 122.313 15.7886C121.322 15.6746 120.399 15.6177 119.544 15.6177H117.665V25H111.324V1.51855H117.665V10.5762H118.963C119.841 10.5762 120.758 10.5078 121.715 10.3711C122.672 10.2344 123.618 10.0179 124.552 9.72168C125.497 9.42546 126.403 9.04378 127.269 8.57666C128.135 8.10954 128.91 7.53988 129.593 6.86768C130.277 6.19548 130.847 5.42074 131.302 4.54346C131.758 3.65479 132.043 2.64648 132.157 1.51855H138.617C138.503 2.76042 138.252 3.88265 137.865 4.88525C137.489 5.88786 137.016 6.78792 136.446 7.58545C135.888 8.37158 135.261 9.06087 134.566 9.65332C133.871 10.2458 133.159 10.7585 132.43 11.1914C131.701 11.613 130.972 11.9661 130.243 12.251C129.525 12.5244 128.853 12.7352 128.226 12.8833C129.024 13.0086 129.85 13.208 130.704 13.4814C131.57 13.7435 132.424 14.0967 133.268 14.541C134.111 14.974 134.914 15.5094 135.677 16.1475C136.452 16.7855 137.147 17.5317 137.762 18.3862C138.377 19.2407 138.89 20.2148 139.3 21.3086C139.71 22.4023 139.972 23.6328 140.086 25H133.626ZM151.878 1.51855V4.09912C152.437 3.74593 153.041 3.38135 153.69 3.00537C154.351 2.62939 155.063 2.2876 155.826 1.97998C156.601 1.67236 157.427 1.42171 158.304 1.22803C159.193 1.02295 160.15 0.92041 161.175 0.92041C162.178 0.92041 163.055 1.02865 163.807 1.24512C164.559 1.4502 165.208 1.72363 165.755 2.06543C166.314 2.39583 166.786 2.77181 167.174 3.19336C167.561 3.60352 167.897 4.01367 168.182 4.42383C168.991 3.89974 169.789 3.42122 170.575 2.98828C171.361 2.55534 172.153 2.18506 172.95 1.87744C173.748 1.56982 174.562 1.33626 175.394 1.17676C176.226 1.00586 177.092 0.92041 177.992 0.92041C179.427 0.92041 180.709 1.11979 181.837 1.51855C182.976 1.91732 183.939 2.46419 184.725 3.15918C185.511 3.85417 186.109 4.67448 186.52 5.62012C186.941 6.55436 187.152 7.55697 187.152 8.62793V25H180.812V9.53369C180.812 8.90706 180.715 8.36589 180.521 7.91016C180.327 7.45443 180.065 7.08415 179.735 6.79932C179.416 6.51449 179.034 6.30371 178.59 6.16699C178.157 6.03027 177.695 5.96191 177.206 5.96191C174.927 5.96191 172.329 6.9873 169.413 9.03809C169.447 9.23177 169.47 9.45964 169.481 9.72168C169.504 9.98372 169.515 10.2458 169.515 10.5078V25H163.175V9.39697C163.175 8.77035 163.078 8.24056 162.884 7.80762C162.691 7.36328 162.423 7.00439 162.081 6.73096C161.751 6.45752 161.363 6.26383 160.919 6.1499C160.486 6.02458 160.025 5.96191 159.535 5.96191C158.942 5.96191 158.316 6.04736 157.655 6.21826C157.005 6.38916 156.345 6.62842 155.672 6.93604C155.012 7.24365 154.356 7.60824 153.707 8.02979C153.069 8.45133 152.459 8.90706 151.878 9.39697V25H145.538V1.51855H151.878ZM220.597 23.8379C218.671 24.4759 216.746 24.9316 214.82 25.2051C212.906 25.4899 210.947 25.6323 208.941 25.6323C206.378 25.6323 204.094 25.3589 202.088 24.812C200.095 24.2537 198.414 23.4505 197.047 22.4023C195.68 21.3542 194.637 20.0724 193.919 18.5571C193.202 17.0418 192.843 15.3271 192.843 13.4131C192.843 11.6357 193.202 9.98942 193.919 8.47412C194.649 6.94743 195.674 5.62581 196.996 4.50928C198.329 3.38135 199.935 2.50407 201.815 1.87744C203.695 1.23942 205.791 0.92041 208.104 0.92041C210.235 0.92041 212.183 1.21094 213.949 1.79199C215.726 2.36165 217.247 3.21045 218.512 4.33838C219.788 5.46631 220.773 6.85628 221.468 8.5083C222.175 10.1603 222.528 12.063 222.528 14.2163V15.7886H199.388C199.593 16.5291 199.929 17.207 200.396 17.8223C200.875 18.4375 201.519 18.9616 202.328 19.3945C203.137 19.8275 204.128 20.1636 205.301 20.4028C206.486 20.6421 207.899 20.7617 209.54 20.7617C210.702 20.7617 211.841 20.6934 212.958 20.5566C214.074 20.4085 215.117 20.2205 216.085 19.9927C217.053 19.7534 217.925 19.4914 218.7 19.2065C219.486 18.9217 220.118 18.6369 220.597 18.3521V23.8379ZM216.222 11.1401C216.165 10.5591 215.988 9.96094 215.692 9.3457C215.407 8.71908 214.951 8.15511 214.325 7.65381C213.698 7.15251 212.878 6.74235 211.864 6.42334C210.85 6.09294 209.585 5.92773 208.07 5.92773C206.646 5.92773 205.415 6.10433 204.378 6.45752C203.342 6.81071 202.47 7.24935 201.764 7.77344C201.069 8.29753 200.528 8.86149 200.14 9.46533C199.753 10.0692 199.502 10.6274 199.388 11.1401H216.222ZM250.658 25V11.8408C250.658 10.9635 250.584 10.1717 250.436 9.46533C250.287 8.74756 250.008 8.13802 249.598 7.63672C249.199 7.12402 248.635 6.73096 247.906 6.45752C247.188 6.17269 246.26 6.03027 245.121 6.03027C244.255 6.03027 243.343 6.1499 242.386 6.38916C241.441 6.61702 240.501 6.92464 239.566 7.31201C238.632 7.69938 237.738 8.14941 236.883 8.66211C236.04 9.1748 235.288 9.71029 234.627 10.2686V25H228.287V1.51855H234.627V4.73145C235.425 4.27572 236.274 3.82568 237.174 3.38135C238.074 2.92562 239.031 2.51546 240.045 2.15088C241.059 1.7863 242.136 1.49007 243.275 1.26221C244.414 1.03434 245.616 0.92041 246.881 0.92041C248.465 0.92041 249.877 1.1141 251.119 1.50146C252.372 1.87744 253.432 2.41862 254.298 3.125C255.164 3.81999 255.825 4.66878 256.28 5.67139C256.747 6.6626 256.981 7.77344 256.981 9.00391V25H250.658ZM277.403 6.62842V25H271.063V6.62842H261.1V1.51855H287.384V6.62842H277.403Z" fill="#2E2E2E"/>
</svg>
