<svg width="50" height="50" viewBox="0 0 50 50" fill="none" xmlns="http://www.w3.org/2000/svg">
<rect y="5" width="45" height="45" fill="#2E2E2E"/>
<rect x="5" width="45" height="45" fill="#FFB9DB"/>
<path d="M31.7404 13.7831C32.9672 13.7866 34.1427 14.2575 35.0102 15.0928C35.8777 15.9282 36.3666 17.0601 36.3703 18.2415V27.1574C36.3666 28.3388 35.8777 29.4707 35.0102 30.3061C34.1427 31.1415 32.9672 31.6123 31.7404 31.6158L22.4816 31.6158C21.2548 31.6123 20.0793 31.1415 19.2118 30.3061C18.3443 29.4707 17.8553 28.3388 17.8517 27.1574L17.8517 18.2415C17.8553 17.0601 18.3443 15.9282 19.2118 15.0928C20.0793 14.2575 21.2548 13.7866 22.4816 13.7831H31.7404ZM31.7404 12H22.4816C18.9166 12 16 14.8086 16 18.2415V27.1574C16 30.5903 18.9166 33.3989 22.4816 33.3989H31.7404C35.3053 33.3989 38.222 30.5903 38.222 27.1574V18.2415C38.222 14.8086 35.3053 12 31.7404 12Z" fill="#2E2E2E"/>
<path d="M33.1294 18.2418C32.8547 18.2418 32.5862 18.1633 32.3578 18.0164C32.1294 17.8694 31.9514 17.6605 31.8463 17.4161C31.7412 17.1718 31.7137 16.9028 31.7672 16.6434C31.8208 16.384 31.9531 16.1457 32.1474 15.9586C32.3416 15.7716 32.5891 15.6442 32.8585 15.5926C33.1279 15.541 33.4071 15.5675 33.6609 15.6687C33.9147 15.7699 34.1316 15.9414 34.2842 16.1613C34.4368 16.3812 34.5183 16.6398 34.5183 16.9043C34.5187 17.0801 34.483 17.2542 34.4134 17.4166C34.3437 17.579 34.2414 17.7266 34.1124 17.8509C33.9833 17.9751 33.8301 18.0736 33.6614 18.1407C33.4927 18.2078 33.3119 18.2421 33.1294 18.2418ZM27.1112 19.1331C27.8437 19.1331 28.5598 19.3422 29.1689 19.7342C29.778 20.1261 30.2527 20.6831 30.533 21.3348C30.8134 21.9865 30.8867 22.7037 30.7438 23.3955C30.6009 24.0874 30.2481 24.7229 29.7302 25.2217C29.2122 25.7205 28.5522 26.0602 27.8337 26.1978C27.1153 26.3354 26.3705 26.2648 25.6938 25.9949C25.017 25.7249 24.4385 25.2678 24.0315 24.6812C23.6246 24.0947 23.4073 23.4051 23.4073 22.6997C23.4084 21.7541 23.7989 20.8475 24.4933 20.1788C25.1877 19.5102 26.1292 19.1341 27.1112 19.1331ZM27.1112 17.35C26.0124 17.35 24.9383 17.6637 24.0247 18.2516C23.1111 18.8394 22.399 19.6749 21.9786 20.6525C21.5581 21.63 21.4481 22.7056 21.6624 23.7434C21.8768 24.7811 22.4059 25.7344 23.1828 26.4825C23.9598 27.2307 24.9497 27.7402 26.0273 27.9466C27.105 28.1531 28.222 28.0471 29.2371 27.6422C30.2523 27.2373 31.1199 26.5516 31.7304 25.6719C32.3408 24.7921 32.6666 23.7578 32.6666 22.6997C32.6666 21.2809 32.0813 19.9201 31.0395 18.9169C29.9976 17.9136 28.5846 17.35 27.1112 17.35Z" fill="#2E2E2E"/>
</svg>
