<svg width="140" height="140" viewBox="0 0 140 140" fill="none" xmlns="http://www.w3.org/2000/svg">
<g clip-path="url(#clip0_1_5906)">
<path d="M88.9239 83.191L111.895 48.8245L111.643 45.2886L106.568 42.7463L100.94 47.2708L85.6593 66.9833L81.8016 68.2449L80.1748 63.5098L92.1111 35.7263L90.6618 32.1084L87.9741 30.6867L83.2586 33.1982L69.2302 65.8649L66.0817 64.0471C67.7172 55.4246 59.7683 56.7343 56.5623 60.3308C52.7786 54.3324 50.9612 56.1209 46.8225 58.3753L40.8096 68.163C39.1101 71.8576 38.1227 74.297 36.9458 77.3378L35.286 85.0384L37.7567 97.8212L46.1222 107.028L56.1108 111.291L67.894 110.552L75.9783 106.445C82.1939 99.0749 85.9732 92.1366 88.9201 83.1992L88.9239 83.191Z" fill="#FADCBC" stroke="#FADCBC" stroke-width="2"/>
<path d="M93.8493 75.7406L111.834 49.7088C114.941 43.3528 107.055 38.7081 102.953 44.539L87.632 64.1948C85.7135 66.6647 83.2417 68.1649 82.1482 67.5336C81.0548 66.9023 81.1454 64.024 82.3506 61.1374L91.9308 38.1997C94.6739 31.118 85.8434 27.5893 83.265 33.1983L71.426 60.8901" stroke="black" stroke-width="4" stroke-linecap="round" stroke-linejoin="round"/>
<path d="M81.6217 99.7928C74.6034 111.949 59.7459 114.876 47.5924 107.86" stroke="black" stroke-width="4" stroke-linecap="round" stroke-linejoin="round"/>
<path d="M71.4265 89.3262L73.085 86.4535C73.867 85.099 72.4462 82.4726 69.9245 80.6211L68.716 79.7313C66.1951 77.8785 65.1361 74.6254 66.5032 72.2575C67.8703 69.8896 71.0898 69.4319 73.7988 70.9959L86.1123 78.1051C88.8544 79.6147 89.9477 82.9989 88.6071 85.827L81.4467 100.098" stroke="black" stroke-width="4" stroke-linecap="round" stroke-linejoin="round"/>
<path d="M62.1266 88.9973C65.1859 88.3337 68.3663 88.4953 71.343 89.462" stroke="black" stroke-width="4" stroke-linecap="round" stroke-linejoin="round"/>
<path d="M36.9643 77.3267C32.2566 88.7282 36.8292 101.843 47.5916 107.86C59.4951 114.732 74.4782 112.164 81.6208 99.7927" stroke="black" stroke-width="4" stroke-miterlimit="10" stroke-linecap="round"/>
<path d="M54.9347 83.7945C54.0404 85.3435 52.3882 86.2974 50.6007 86.2964C48.8131 86.2954 47.1602 85.3424 46.2663 83.794C45.3724 82.2455 45.3724 80.3374 46.266 78.7896L57.6123 59.1372C58.5067 57.5882 60.1589 56.6343 61.9464 56.6353C63.7339 56.6362 65.3868 57.5892 66.2807 59.1377C67.1747 60.6862 67.1747 62.5943 66.2803 64.1433L54.9347 83.7945Z" stroke="black" stroke-width="4" stroke-linecap="round" stroke-linejoin="round"/>
<path d="M49.6642 72.9037C48.7671 74.4577 47.1127 75.4153 45.3231 75.418C43.5334 75.4207 41.8812 74.4665 40.9887 72.9155C40.0962 71.3646 40.0983 69.4528 40.9955 67.8988L46.6381 58.1256C47.5353 56.5716 49.1896 55.6141 50.9793 55.6114C52.7687 55.6088 54.4211 56.5629 55.3136 58.1138C56.2061 59.6647 56.204 61.5765 55.3068 63.1305L49.6642 72.9037Z" stroke="black" stroke-width="4" stroke-linecap="round" stroke-linejoin="round"/>
</g>
<defs>
<clipPath id="clip0_1_5906">
<rect width="102.373" height="102.373" fill="white" transform="translate(51.1865) rotate(30)"/>
</clipPath>
</defs>
</svg>
