<svg width="120" height="120" viewBox="0 0 120 120" fill="none" xmlns="http://www.w3.org/2000/svg">
<path d="M42.8423 66.8445C43.0845 68.1863 44.3832 69.281 46.1215 69.6093L65.9647 73.3585C66.894 73.5342 66.9047 74.5303 65.9753 74.706C60.7092 75.701 50.946 77.5455 46.1107 78.4592C44.3723 78.7877 43.0848 79.8807 42.8427 81.2223L37.5822 110.376C37.4375 111.178 35.9033 111.178 35.7585 110.376L30.498 81.2228C30.2558 79.881 28.9682 78.7878 27.2295 78.4593C22.3938 77.5462 12.6305 75.7017 7.36399 74.7067C6.43466 74.5312 6.43466 73.5368 7.36399 73.3613C12.6308 72.3663 22.3947 70.5215 27.2302 69.6075C28.9683 69.279 29.1835 67.7043 29.4257 66.3627L33.847 42.8758C33.9917 42.074 37.4367 36.8858 37.5813 37.6878C39.2188 46.7617 42.5185 65.0485 42.8423 66.8445Z" fill="#FCEA2B"/>
<path d="M37.7505 110.376L40.3868 84.7039C35.721 77.0064 33.9378 69.0203 31.7655 63.3333L29.5065 66.8667C29.2816 68.2077 28.0866 69.3001 26.4726 69.6286C21.9831 70.5419 12.9177 72.3859 8.02798 73.3806C7.16515 73.5561 7.16515 74.5498 8.02798 74.7253C12.9177 75.7198 21.9825 77.5633 26.472 78.4759C28.0861 78.8043 30.9485 79.8968 31.1733 81.2379L36.0575 110.376C36.1918 111.178 37.6163 111.178 37.7505 110.376Z" fill="#F1B31C"/>
<path d="M77.7934 32.1746C77.9682 33.1438 78.9062 33.9343 80.1617 34.1715L94.4929 36.8791C95.164 37.006 95.1717 37.7255 94.5005 37.8523C90.6972 38.571 83.646 39.903 80.1537 40.5628C78.8982 40.8 77.9684 41.5895 77.7935 42.5585L73.9944 63.6141C73.8899 64.1933 72.7819 64.1933 72.6774 63.6141L68.8782 42.5588C68.7034 41.5896 67.7734 40.8001 66.5177 40.563C63.0252 39.9035 55.9739 38.5713 52.1704 37.8526C51.4992 37.7258 51.4992 37.0078 52.1704 36.881C55.9742 36.1623 63.0259 34.83 66.518 34.1698C67.7734 33.9326 67.9289 32.7953 68.1037 31.8263L71.0922 14.8636C71.1967 14.2845 73.8895 10.5375 73.9939 11.1168C75.1764 17.6703 77.5594 30.8775 77.7934 32.1746Z" fill="#FCEA2B"/>
<path d="M74.5793 63.6143L76.0203 45.0731C72.6505 39.514 70.159 33.746 68.5902 29.6388L68.1623 32.1908C68 33.1593 67.1368 33.9481 65.9712 34.1855C62.7288 34.8451 56.1815 36.1768 52.65 36.8953C52.0268 37.022 52.0268 37.7396 52.65 37.8665C56.1815 38.5848 62.7282 39.9161 65.9707 40.5753C67.1365 40.8125 69.6667 41.6015 69.829 42.5701L73.3563 63.6145C73.4535 64.1933 74.4823 64.1933 74.5793 63.6143Z" fill="#F1B31C"/>
<path d="M94.8044 81.5596C94.9481 82.3324 95.7189 82.9628 96.7506 83.1519L108.528 85.3111C109.079 85.4123 109.086 85.9859 108.534 86.0871C105.409 86.6601 99.6141 87.7224 96.7441 88.2486C95.7124 88.4378 94.9483 89.0673 94.8046 89.8399L91.6824 106.63C91.5966 107.092 90.6861 107.092 90.6001 106.63L87.4779 89.8403C87.3343 89.0674 86.5699 88.4379 85.5381 88.2488C82.6681 87.7228 76.8734 86.6606 73.7476 86.0876C73.1961 85.9864 73.1961 85.4139 73.7476 85.3128C76.8734 84.7398 82.6684 83.6773 85.5384 83.1508C86.5701 82.9616 86.6978 82.0546 86.8414 81.2819L89.2974 67.7554C89.3833 67.2936 91.5963 64.3056 91.6821 64.7676C92.6538 69.9936 94.6121 80.5251 94.8044 81.5596Z" fill="#FCEA2B"/>
<path d="M92.0524 106.63L93.8087 91.8451C91.1216 87.4121 89.1347 82.8126 87.8837 79.5375L87.5426 81.5725C87.4131 82.3448 86.7249 82.9738 85.7952 83.163C83.2097 83.689 77.9887 84.751 75.1726 85.3238C74.6756 85.4248 74.6756 85.9971 75.1726 86.0981C77.9886 86.671 83.2092 87.7326 85.7947 88.2583C86.7244 88.4473 87.4129 89.0766 87.5424 89.849L91.0771 106.63C91.1547 107.092 91.9751 107.092 92.0524 106.63Z" fill="#F1B31C"/>
<path d="M33.3336 53.3334L36.9033 34.7325L38.0693 41.693C38.2563 42.8062 41.9523 64.8689 41.9523 64.8689C42.3882 67.4695 44.6915 69.5612 47.8198 70.1979L66.667 74.033L47.8068 77.8707C44.6862 78.5057 42.388 80.5967 41.9523 83.1979L36.904 113.333L31.8556 83.199C31.4198 80.5979 29.1215 78.5069 26.0005 77.8717L7.13965 74.0342L26.0015 70.1957C29.1215 69.5604 31.2315 65.934 31.667 63.3334" stroke="black" stroke-width="2" stroke-miterlimit="10" stroke-linecap="round" stroke-linejoin="round"/>
<path d="M70.9266 22.4165L73.5048 8.98254L74.3468 14.0095C74.4818 14.8135 77.1513 30.7477 77.1513 30.7477C77.4661 32.6259 79.1295 34.1367 81.3889 34.5964L95.0006 37.3664L81.3793 40.138C79.1255 40.5967 77.4656 42.1067 77.1511 43.9854L73.5051 65.7499L69.8591 43.9862C69.5443 42.1075 67.8845 40.5974 65.6305 40.1387L52.0088 37.3672L65.6313 34.5949C67.8846 34.136 69.4085 31.517 69.723 29.6389" stroke="black" stroke-width="2" stroke-miterlimit="10" stroke-linecap="round" stroke-linejoin="round"/>
<path d="M89.7478 73.7784L91.8036 63.0659L92.4751 67.0746C92.5828 67.7158 94.7114 80.4219 94.7114 80.4219C94.9624 81.9196 96.2889 83.1244 98.0906 83.4909L108.945 85.6998L98.0831 87.9099C96.2859 88.2756 94.9623 89.4798 94.7114 90.9779L91.8039 108.333L88.8964 90.9786C88.6454 89.4806 87.3218 88.2763 85.5244 87.9104L74.6621 85.7004L85.5249 83.4898C87.3218 83.1239 88.5369 81.0354 88.7878 79.5378" stroke="black" stroke-width="2" stroke-miterlimit="10" stroke-linecap="round" stroke-linejoin="round"/>
</svg>
