<svg width="106" height="106" viewBox="0 0 106 106" fill="none" xmlns="http://www.w3.org/2000/svg">
<rect y="0.413055" width="106" height="102" fill="#2E2E2E"/>
<rect x="54" y="13.4131" width="39" height="38" fill="white"/>
<rect x="73" y="20.4131" width="12.3158" height="12" rx="6" fill="#2E2E2E"/>
<path d="M14.0931 77.7235C14.2167 79.9015 14.697 81.6706 15.534 83.0306C16.3804 84.3812 17.6739 85.0564 19.4144 85.0564C20.0992 85.0564 20.7126 84.9375 21.2548 84.6998C21.8064 84.4525 22.2391 84.0816 22.553 83.587C22.8764 83.0924 23.038 82.4932 23.038 81.7894C23.038 81.0286 22.8573 80.3485 22.4959 79.7494C22.144 79.1407 21.6637 78.589 21.055 78.0945C20.4558 77.5904 19.6522 77.0102 18.644 76.354C17.4647 75.5931 16.5279 74.9321 15.8336 74.371C15.1488 73.8098 14.5781 73.1441 14.1216 72.3737C13.6746 71.6033 13.4511 70.7093 13.4511 69.6916C13.4511 68.5123 13.7507 67.5231 14.3499 66.7242C14.949 65.9158 15.7432 65.3166 16.7323 64.9267C17.7215 64.5367 18.8105 64.3418 19.9993 64.3418C20.7031 64.3418 21.3118 64.3941 21.8254 64.4987C22.3485 64.6033 22.7813 64.7365 23.1236 64.8981C23.4755 65.0503 23.856 65.2453 24.2649 65.4831C24.731 65.7589 25.0591 65.8968 25.2493 65.8968C25.43 65.8968 25.5679 65.7969 25.663 65.5972C25.7582 65.3879 25.8342 65.0598 25.8913 64.6128H26.5618C26.4667 65.9158 26.4192 68.1366 26.4192 71.2752H25.7486C25.6821 70.2195 25.4443 69.2161 25.0353 68.265C24.6359 67.3139 24.07 66.5435 23.3376 65.9538C22.6148 65.3547 21.7636 65.0551 20.784 65.0551C20.1658 65.0551 19.6094 65.174 19.1148 65.4117C18.6298 65.6495 18.2493 65.9966 17.9735 66.4532C17.7072 66.9002 17.574 67.4233 17.574 68.0225C17.574 68.9926 17.8641 69.7867 18.4443 70.4049C19.0245 71.0231 19.7806 71.6509 20.7126 72.2881C21.6447 72.9158 22.2724 73.339 22.5958 73.5578C23.7371 74.3187 24.6406 74.9797 25.3064 75.5408C25.9721 76.1019 26.5143 76.7582 26.9327 77.5096C27.3512 78.2609 27.5605 79.1312 27.5605 80.1203C27.5605 81.3662 27.2371 82.4172 26.5904 83.2731C25.9436 84.1291 25.0734 84.7711 23.9796 85.1991C22.8859 85.6176 21.6637 85.8268 20.3132 85.8268C19.2194 85.8268 18.3111 85.7269 17.5883 85.5272C16.875 85.337 16.214 85.0755 15.6053 84.7426C15.1868 84.4668 14.8587 84.3288 14.6209 84.3288C14.4402 84.3288 14.3023 84.4335 14.2072 84.6427C14.1121 84.8424 14.036 85.1658 13.9789 85.6128H13.3084C13.3845 84.3954 13.4226 81.7657 13.4226 77.7235H14.0931ZM29.6005 71.9172C29.6671 71.2704 29.7004 70.5286 29.7004 69.6916C29.7004 68.3601 29.6291 66.7052 29.4864 64.7269C31.2649 64.784 34.2751 64.8125 38.517 64.8125C42.7588 64.8125 45.7595 64.784 47.519 64.7269C47.3764 66.7052 47.305 68.3601 47.305 69.6916C47.305 70.5286 47.3383 71.2704 47.4049 71.9172H46.7344C46.411 70.2908 46.0163 69.0068 45.5503 68.0653C45.0842 67.1142 44.5231 66.4341 43.8668 66.0252C43.2201 65.6067 42.4307 65.3975 41.4986 65.3975H40.8281V82.089C40.8281 82.8975 40.909 83.4871 41.0707 83.8581C41.2418 84.229 41.5367 84.481 41.9552 84.6142C42.3832 84.7473 43.0489 84.8187 43.9524 84.8282V85.4131C41.4986 85.356 39.6488 85.3275 38.4029 85.3275C37.176 85.3275 35.3927 85.356 33.053 85.4131V84.8282C33.966 84.8187 34.6318 84.7473 35.0503 84.6142C35.4783 84.481 35.7731 84.229 35.9348 83.8581C36.0965 83.4871 36.1773 82.8975 36.1773 82.089V65.3975H35.5353C34.5938 65.3975 33.7948 65.6019 33.1386 66.0109C32.4918 66.4199 31.9355 67.0999 31.4694 68.051C31.0034 68.9926 30.6039 70.2813 30.2711 71.9172H29.6005Z" fill="white"/>
</svg>
