<svg width="92" height="92" viewBox="0 0 92 92" fill="none" xmlns="http://www.w3.org/2000/svg">
<path d="M89.6669 91.2106H12.3336C12.1186 91.2236 11.9034 91.1908 11.702 91.1144C11.5007 91.038 11.3178 90.9198 11.1656 90.7675C11.0133 90.6153 10.8951 90.4324 10.8187 90.2311C10.7423 90.0297 10.7095 89.8145 10.7225 89.5995V12.2662C10.7095 12.0512 10.7423 11.8359 10.8187 11.6346C10.8951 11.4332 11.0133 11.2504 11.1656 11.0981C11.3178 10.9458 11.5007 10.8276 11.702 10.7512C11.9034 10.6749 12.1186 10.6421 12.3336 10.655H89.6669C89.8819 10.6421 90.0971 10.6749 90.2985 10.7512C90.4998 10.8276 90.6827 10.9458 90.835 11.0981C90.9872 11.2504 91.1055 11.4332 91.1818 11.6346C91.2582 11.8359 91.291 12.0512 91.278 12.2662V89.5995C91.291 89.8145 91.2582 90.0297 91.1818 90.2311C91.1055 90.4324 90.9872 90.6153 90.835 90.7675C90.6827 90.9198 90.4998 91.038 90.2985 91.1144C90.0971 91.1908 89.8819 91.2236 89.6669 91.2106Z" fill="#2E2E2E"/>
<path d="M79.6669 81.2106H2.3336C2.11865 81.2236 1.90338 81.1908 1.70204 81.1144C1.50069 81.038 1.31784 80.9198 1.16556 80.7675C1.01329 80.6153 0.895058 80.4324 0.818681 80.2311C0.742304 80.0297 0.709518 79.8145 0.722491 79.5995V2.26616C0.709518 2.0512 0.742304 1.83594 0.818681 1.63459C0.895058 1.43324 1.01329 1.25039 1.16556 1.09812C1.31784 0.945846 1.50069 0.827614 1.70204 0.751237C1.90338 0.67486 2.11865 0.642075 2.3336 0.655047H79.6669C79.8819 0.642075 80.0971 0.67486 80.2985 0.751237C80.4998 0.827614 80.6827 0.945846 80.835 1.09812C80.9872 1.25039 81.1055 1.43324 81.1818 1.63459C81.2582 1.83594 81.291 2.0512 81.278 2.26616V79.5995C81.291 79.8145 81.2582 80.0297 81.1818 80.2311C81.1055 80.4324 80.9872 80.6153 80.835 80.7675C80.6827 80.9198 80.4998 81.038 80.2985 81.1144C80.0971 81.1908 79.8819 81.2236 79.6669 81.2106Z" fill="#5C9E31"/>
<path d="M41 16.7357V65.13" stroke="white" stroke-width="4" stroke-linecap="round" stroke-linejoin="round"/>
<path d="M65.197 40.9328H16.8027" stroke="white" stroke-width="4" stroke-linecap="round" stroke-linejoin="round"/>
<path d="M58.1106 23.8228L23.8906 58.0428" stroke="white" stroke-width="4" stroke-linecap="round" stroke-linejoin="round"/>
<path d="M58.1106 58.0428L23.8906 23.8228" stroke="white" stroke-width="4" stroke-linecap="round" stroke-linejoin="round"/>
</svg>
