<svg width="102" height="102" viewBox="0 0 102 102" fill="none" xmlns="http://www.w3.org/2000/svg">
<path d="M28.5898 64.9106L46.3962 47.1042L64.2026 29.2979L76.8968 59.7984L89.5908 90.2988L59.0904 77.6048L28.5898 64.9106Z" fill="#F1B31C"/>
<path d="M49.5842 45.3333L29.2822 65.6024L60.265 78.7788L91.2477 91.9551L49.5842 45.3333Z" fill="#FCEA2B"/>
<path d="M64.1543 80.4329L79.8255 64.7617L83.0151 72.5973L71.9691 83.6433L64.1543 80.4329Z" fill="#EA5A47"/>
<path d="M78.2672 77.4309L83.0143 72.5974L79.8247 64.7618L73.0234 71.5631L78.2672 77.4309Z" fill="#D22F27"/>
<path d="M45.5635 72.5269L55.0503 63.04L71.6242 46.4663L75.6807 55.3529L64.1038 66.9296L54.7466 76.2869L45.5635 72.5269Z" fill="#EA5A47"/>
<path d="M66.6275 64.406L75.6806 55.3529L71.6241 46.4662L60.5195 57.571L66.6275 64.406Z" fill="#D22F27"/>
<path d="M64.6568 30.228L64.895 29.9898L78.0714 60.9725L91.2478 91.9553L60.265 78.7789L29.2822 65.6026" stroke="black" stroke-width="4" stroke-miterlimit="10" stroke-linecap="round" stroke-linejoin="round"/>
<path d="M29.4355 65.4485L47.0879 47.796L64.6561 30.2279" stroke="black" stroke-width="4" stroke-miterlimit="10" stroke-linecap="round" stroke-linejoin="round"/>
<path d="M23.2734 59.0819C23.2734 57.5171 22.0234 56.2486 20.4814 56.2486C18.9395 56.2486 17.6895 57.5171 17.6895 59.0819C17.6895 60.6468 18.9395 61.9153 20.4814 61.9153C22.0234 61.9153 23.2734 60.6468 23.2734 59.0819Z" fill="#8967AA"/>
<path d="M28.9404 16.582C28.9404 15.0172 27.6904 13.7486 26.1484 13.7486C24.6064 13.7486 23.3564 15.0172 23.3564 16.582C23.3564 18.1468 24.6064 19.4153 26.1484 19.4153C27.6904 19.4153 28.9404 18.1468 28.9404 16.582Z" fill="#F1B31C"/>
<path d="M58.6904 20.832C58.6904 19.2671 57.4404 17.9986 55.8984 17.9986C54.3565 17.9986 53.1064 19.2671 53.1064 20.832C53.1064 22.3968 54.3565 23.6653 55.8984 23.6653C57.4404 23.6653 58.6904 22.3968 58.6904 20.832Z" fill="#D22F27"/>
<path d="M20.9326 41.1785C20.987 41.8938 21.1555 42.614 21.4483 43.3163C22.966 46.9567 27.2467 48.7392 31.0097 47.2978" stroke="black" stroke-width="4" stroke-miterlimit="10" stroke-linecap="round" stroke-linejoin="round"/>
<path d="M42.8625 24.9695C42.4562 25.5606 42.1357 26.2272 41.9232 26.9579C40.8218 30.7451 43.0377 34.8184 46.8725 36.0562" stroke="black" stroke-width="4" stroke-miterlimit="10" stroke-linecap="round" stroke-linejoin="round"/>
<path d="M10.4365 36.1384C11.0722 35.8059 11.7724 35.5679 12.5233 35.4447C16.4153 34.8057 20.1933 37.4946 20.9617 41.4502" stroke="black" stroke-width="4" stroke-miterlimit="10" stroke-linecap="round" stroke-linejoin="round"/>
<path d="M37.8486 14.4602C38.5523 14.6 39.2469 14.8538 39.909 15.2288C43.3409 17.1724 44.5968 21.6362 42.714 25.199" stroke="black" stroke-width="4" stroke-miterlimit="10" stroke-linecap="round" stroke-linejoin="round"/>
</svg>
