<svg width="128" height="129" viewBox="0 0 128 129" fill="none" xmlns="http://www.w3.org/2000/svg">
<circle cx="64.5307" cy="69.101" r="44" transform="rotate(26.3253 64.5307 69.101)" fill="#2E2E2E"/>
<circle cx="62.6156" cy="61.1854" r="44" transform="rotate(26.3253 62.6156 61.1854)" fill="white"/>
<path d="M50.309 86.0575C64.5405 93.099 81.7856 87.2703 88.8271 73.0388C95.8685 58.8074 90.0399 41.5623 75.8084 34.5208C61.5769 27.4793 44.3318 33.308 37.2904 47.5395C30.2489 61.7709 36.0776 79.0161 50.309 86.0575Z" fill="#FCEA2B"/>
<path d="M62.7042 76.8763C60.7429 77.6741 58.1351 77.5148 55.0745 76.0004C52.0368 74.4975 50.3207 72.5303 49.7433 70.4976" stroke="black" stroke-width="2" stroke-miterlimit="10" stroke-linecap="round" stroke-linejoin="round"/>
<path d="M51.2522 42.1768C52.8278 41.0238 54.7724 40.496 56.714 40.6953C58.6765 40.6898 60.5685 41.4189 62.0228 42.735" stroke="black" stroke-width="2" stroke-miterlimit="10" stroke-linecap="round" stroke-linejoin="round"/>
<path d="M84.427 58.5909C84.1914 54.6078 81.3566 51.2562 77.4675 50.363" stroke="black" stroke-width="2" stroke-miterlimit="10" stroke-linecap="round" stroke-linejoin="round"/>
<path d="M50.0094 51.3852C50.0094 51.3852 55.6176 51.1343 58.9723 55.8199" stroke="black" stroke-width="2" stroke-miterlimit="10" stroke-linecap="round" stroke-linejoin="round"/>
<path d="M69.3356 60.9475C69.3356 60.9475 74.9437 60.6966 78.2985 65.3821" stroke="black" stroke-width="2" stroke-miterlimit="10" stroke-linecap="round" stroke-linejoin="round"/>
<path d="M50.309 86.0576C64.5406 93.099 81.7858 87.2704 88.8272 73.0388C95.8687 58.8073 90.04 41.5621 75.8085 34.5206C61.577 27.4791 44.3318 33.3078 37.2903 47.5393C30.2488 61.7709 36.0775 79.0161 50.309 86.0576Z" stroke="black" stroke-width="2" stroke-miterlimit="10" stroke-linecap="round" stroke-linejoin="round"/>
</svg>
