<svg width="240" height="240" viewBox="0 0 240 240" fill="none" xmlns="http://www.w3.org/2000/svg">
<mask id="path-1-inside-1_1_6391" fill="white">
<path d="M81.3846 38.7737C82.2802 35.684 85.7937 34.2032 88.6306 35.7199L93.33 38.2322C95.7209 39.5104 98.6943 38.6772 100.073 36.3428L102.783 31.7545C104.419 28.9845 108.19 28.4241 110.561 30.5986L114.488 34.2007C116.486 36.0333 119.573 35.9658 121.489 34.0476L125.254 30.2773C127.528 28.0012 131.32 28.3963 133.075 31.092L135.983 35.5575C137.462 37.8295 140.47 38.5318 142.802 37.1503L147.387 34.435C150.155 32.7958 153.73 34.1215 154.76 37.1691L156.466 42.2175C157.334 44.7859 160.072 46.214 162.675 45.4561L167.791 43.9663C170.88 43.0669 174.012 45.24 174.252 48.448L174.649 53.762C174.851 56.4656 177.147 58.5297 179.857 58.4429L185.183 58.2723C188.398 58.1693 190.892 61.0533 190.327 64.2201L189.39 69.4658C188.913 72.1346 190.624 74.7051 193.27 75.2949L198.471 76.4542C201.611 77.154 203.31 80.5676 201.974 83.4942L199.762 88.3421C198.636 90.8085 199.654 93.7238 202.071 94.9531L206.82 97.3695C209.687 98.8282 210.484 102.557 208.462 105.059L205.114 109.205C203.41 111.314 203.671 114.391 205.706 116.182L209.705 119.704C212.12 121.83 211.964 125.639 209.383 127.561L205.109 130.743C202.935 132.362 202.423 135.407 203.948 137.649L206.946 142.054C208.756 144.714 207.657 148.365 204.68 149.584L199.749 151.604C197.24 152.631 195.986 155.453 196.906 158.003L198.714 163.016C199.806 166.042 197.834 169.305 194.647 169.746L189.369 170.476C186.683 170.847 184.767 173.269 185.024 175.967L185.529 181.272C185.833 184.475 183.112 187.145 179.916 186.779L174.621 186.173C171.928 185.865 169.47 187.734 169.047 190.412L168.217 195.676C167.716 198.853 164.416 200.763 161.411 199.614L156.434 197.71C153.901 196.742 151.056 197.941 149.981 200.43L147.867 205.322C146.591 208.275 142.92 209.303 140.296 207.443L135.948 204.362C133.736 202.794 130.682 203.248 129.022 205.391L125.758 209.604C123.788 212.147 119.976 212.23 117.897 209.775L114.452 205.71C112.7 203.641 109.628 203.321 107.487 204.984L103.279 208.253C100.738 210.226 97.025 209.359 95.6214 206.464L93.2962 201.669C92.1132 199.23 89.2179 198.156 86.7304 199.234L81.8412 201.354C78.8896 202.633 75.5091 200.87 74.8694 197.717L73.8097 192.495C73.2705 189.838 70.7332 188.078 68.0557 188.504L62.7931 189.34C59.616 189.846 56.7803 187.297 56.9447 184.084L57.217 178.762C57.3555 176.055 55.3356 173.719 52.6364 173.466L47.331 172.967C44.1281 172.667 42.0153 169.493 42.9735 166.422L44.5607 161.335C45.3683 158.747 43.9927 155.982 41.4413 155.065L36.4265 153.263C33.3991 152.176 32.1419 148.576 33.8337 145.84L36.6361 141.308C38.0619 139.002 37.4171 135.982 35.1739 134.459L30.7647 131.467C28.1029 129.66 27.7804 125.861 30.0995 123.632L33.9411 119.939C35.8955 118.06 36.022 114.974 34.2279 112.942L30.7014 108.947C28.5726 106.535 29.205 102.775 32.0057 101.192L36.6449 98.5706C39.0052 97.2368 39.895 94.2798 38.6628 91.865L36.2407 87.1184C34.7785 84.253 36.3261 80.7685 39.4323 79.932L44.5778 78.5465C47.1957 77.8416 48.7929 75.1988 48.1999 72.5533L47.0343 67.3536C46.3307 64.2145 48.6962 61.2243 51.9129 61.1867L57.2413 61.1243C59.9523 61.0926 62.1565 58.93 62.2401 56.2202L62.4042 50.8939C62.5033 47.6785 65.5382 45.3705 68.6632 46.134L73.8397 47.3987C76.4733 48.0422 79.1462 46.4957 79.901 43.8918L81.3846 38.7737Z"/>
</mask>
<path d="M81.3846 38.7737C82.2802 35.684 85.7937 34.2032 88.6306 35.7199L93.33 38.2322C95.7209 39.5104 98.6943 38.6772 100.073 36.3428L102.783 31.7545C104.419 28.9845 108.19 28.4241 110.561 30.5986L114.488 34.2007C116.486 36.0333 119.573 35.9658 121.489 34.0476L125.254 30.2773C127.528 28.0012 131.32 28.3963 133.075 31.092L135.983 35.5575C137.462 37.8295 140.47 38.5318 142.802 37.1503L147.387 34.435C150.155 32.7958 153.73 34.1215 154.76 37.1691L156.466 42.2175C157.334 44.7859 160.072 46.214 162.675 45.4561L167.791 43.9663C170.88 43.0669 174.012 45.24 174.252 48.448L174.649 53.762C174.851 56.4656 177.147 58.5297 179.857 58.4429L185.183 58.2723C188.398 58.1693 190.892 61.0533 190.327 64.2201L189.39 69.4658C188.913 72.1346 190.624 74.7051 193.27 75.2949L198.471 76.4542C201.611 77.154 203.31 80.5676 201.974 83.4942L199.762 88.3421C198.636 90.8085 199.654 93.7238 202.071 94.9531L206.82 97.3695C209.687 98.8282 210.484 102.557 208.462 105.059L205.114 109.205C203.41 111.314 203.671 114.391 205.706 116.182L209.705 119.704C212.12 121.83 211.964 125.639 209.383 127.561L205.109 130.743C202.935 132.362 202.423 135.407 203.948 137.649L206.946 142.054C208.756 144.714 207.657 148.365 204.68 149.584L199.749 151.604C197.24 152.631 195.986 155.453 196.906 158.003L198.714 163.016C199.806 166.042 197.834 169.305 194.647 169.746L189.369 170.476C186.683 170.847 184.767 173.269 185.024 175.967L185.529 181.272C185.833 184.475 183.112 187.145 179.916 186.779L174.621 186.173C171.928 185.865 169.47 187.734 169.047 190.412L168.217 195.676C167.716 198.853 164.416 200.763 161.411 199.614L156.434 197.71C153.901 196.742 151.056 197.941 149.981 200.43L147.867 205.322C146.591 208.275 142.92 209.303 140.296 207.443L135.948 204.362C133.736 202.794 130.682 203.248 129.022 205.391L125.758 209.604C123.788 212.147 119.976 212.23 117.897 209.775L114.452 205.71C112.7 203.641 109.628 203.321 107.487 204.984L103.279 208.253C100.738 210.226 97.025 209.359 95.6214 206.464L93.2962 201.669C92.1132 199.23 89.2179 198.156 86.7304 199.234L81.8412 201.354C78.8896 202.633 75.5091 200.87 74.8694 197.717L73.8097 192.495C73.2705 189.838 70.7332 188.078 68.0557 188.504L62.7931 189.34C59.616 189.846 56.7803 187.297 56.9447 184.084L57.217 178.762C57.3555 176.055 55.3356 173.719 52.6364 173.466L47.331 172.967C44.1281 172.667 42.0153 169.493 42.9735 166.422L44.5607 161.335C45.3683 158.747 43.9927 155.982 41.4413 155.065L36.4265 153.263C33.3991 152.176 32.1419 148.576 33.8337 145.84L36.6361 141.308C38.0619 139.002 37.4171 135.982 35.1739 134.459L30.7647 131.467C28.1029 129.66 27.7804 125.861 30.0995 123.632L33.9411 119.939C35.8955 118.06 36.022 114.974 34.2279 112.942L30.7014 108.947C28.5726 106.535 29.205 102.775 32.0057 101.192L36.6449 98.5706C39.0052 97.2368 39.895 94.2798 38.6628 91.865L36.2407 87.1184C34.7785 84.253 36.3261 80.7685 39.4323 79.932L44.5778 78.5465C47.1957 77.8416 48.7929 75.1988 48.1999 72.5533L47.0343 67.3536C46.3307 64.2145 48.6962 61.2243 51.9129 61.1867L57.2413 61.1243C59.9523 61.0926 62.1565 58.93 62.2401 56.2202L62.4042 50.8939C62.5033 47.6785 65.5382 45.3705 68.6632 46.134L73.8397 47.3987C76.4733 48.0422 79.1462 46.4957 79.901 43.8918L81.3846 38.7737Z" fill="white" stroke="black" stroke-width="2" mask="url(#path-1-inside-1_1_6391)"/>
<mask id="path-2-inside-2_1_6391" fill="white">
<path d="M84.6881 46.6123C85.5837 43.5226 89.0972 42.0418 91.9342 43.5585L95.3313 45.3746C97.7222 46.6528 100.696 45.8196 102.074 43.4852L104.033 40.1684C105.669 37.3985 109.44 36.838 111.811 39.0126L114.65 41.6164C116.648 43.449 119.735 43.3815 121.651 41.4633L124.373 38.7379C126.646 36.4618 130.438 36.8568 132.194 39.5526L134.296 42.7806C135.775 45.0525 138.782 45.7549 141.115 44.3734L144.429 42.4106C147.197 40.7713 150.772 42.0971 151.802 45.1447L153.035 48.794C153.903 51.3625 156.641 52.7906 159.244 52.0326L162.942 50.9557C166.031 50.0563 169.164 52.2294 169.404 55.4374L169.69 59.2788C169.892 61.9824 172.189 64.0465 174.899 63.9597L178.749 63.8364C181.964 63.7334 184.458 66.6174 183.892 69.7841L183.215 73.5762C182.738 76.245 184.449 78.8155 187.095 79.4053L190.855 80.2433C193.995 80.9432 195.694 84.3567 194.358 87.2833L192.759 90.7878C191.633 93.2542 192.651 96.1694 195.068 97.3988L198.501 99.1455C201.368 100.604 202.164 104.333 200.143 106.835L197.723 109.832C196.019 111.941 196.28 115.018 198.315 116.81L201.206 119.355C203.62 121.481 203.464 125.291 200.884 127.212L197.794 129.513C195.62 131.132 195.108 134.177 196.633 136.418L198.8 139.603C200.61 142.262 199.511 145.914 196.534 147.133L192.969 148.593C190.461 149.62 189.207 152.442 190.127 154.992L191.434 158.616C192.526 161.642 190.553 164.905 187.367 165.346L183.551 165.873C180.866 166.244 178.95 168.666 179.206 171.365L179.571 175.2C179.876 178.402 177.154 181.073 173.958 180.707L170.131 180.269C167.438 179.96 164.98 181.83 164.557 184.508L163.957 188.313C163.456 191.49 160.155 193.4 157.151 192.251L153.553 190.875C151.021 189.906 148.175 191.105 147.1 193.594L145.572 197.13C144.296 200.083 140.625 201.112 138 199.252L134.858 197.024C132.646 195.457 129.591 195.91 127.931 198.054L125.572 201.099C123.602 203.642 119.79 203.725 117.711 201.271L115.221 198.332C113.468 196.263 110.397 195.943 108.256 197.606L105.213 199.969C102.673 201.942 98.9598 201.075 97.5562 198.18L95.8753 194.714C94.6924 192.275 91.7971 191.201 89.3096 192.279L85.7753 193.811C82.8237 195.091 79.4432 193.327 78.8034 190.175L78.0374 186.4C77.4983 183.743 74.9609 181.983 72.2835 182.408L68.4792 183.013C65.3022 183.518 62.4664 180.97 62.6308 177.757L62.8276 173.91C62.9662 171.203 60.9463 168.867 58.2471 168.613L54.4119 168.253C51.209 167.952 49.0962 164.779 50.0544 161.708L51.2017 158.03C52.0093 155.442 50.6337 152.678 48.0823 151.761L44.4572 150.458C41.4298 149.37 40.1726 145.771 41.8644 143.035L43.8902 139.758C45.316 137.452 44.6712 134.433 42.428 132.91L39.2407 130.747C36.579 128.94 36.2564 125.141 38.5755 122.912L41.3525 120.242C43.3069 118.363 43.4334 115.278 41.6393 113.245L39.0901 110.357C36.9613 107.946 37.5936 104.186 40.3943 102.603L43.748 100.708C46.1083 99.374 46.9981 96.417 45.7658 94.0022L44.0149 90.571C42.5527 87.7056 44.1003 84.221 47.2066 83.3846L50.9262 82.383C53.544 81.6781 55.1412 79.0353 54.5482 76.3898L53.7057 72.631C53.002 69.492 55.3675 66.5018 58.5842 66.4641L62.436 66.4191C65.147 66.3873 67.3512 64.2247 67.4348 61.5149L67.5534 57.6647C67.6525 54.4493 70.6874 52.1413 73.8124 52.9048L77.5544 53.819C80.188 54.4625 82.8609 52.916 83.6157 50.3121L84.6881 46.6123Z"/>
</mask>
<path d="M84.6881 46.6123C85.5837 43.5226 89.0972 42.0418 91.9342 43.5585L95.3313 45.3746C97.7222 46.6528 100.696 45.8196 102.074 43.4852L104.033 40.1684C105.669 37.3985 109.44 36.838 111.811 39.0126L114.65 41.6164C116.648 43.449 119.735 43.3815 121.651 41.4633L124.373 38.7379C126.646 36.4618 130.438 36.8568 132.194 39.5526L134.296 42.7806C135.775 45.0525 138.782 45.7549 141.115 44.3734L144.429 42.4106C147.197 40.7713 150.772 42.0971 151.802 45.1447L153.035 48.794C153.903 51.3625 156.641 52.7906 159.244 52.0326L162.942 50.9557C166.031 50.0563 169.164 52.2294 169.404 55.4374L169.69 59.2788C169.892 61.9824 172.189 64.0465 174.899 63.9597L178.749 63.8364C181.964 63.7334 184.458 66.6174 183.892 69.7841L183.215 73.5762C182.738 76.245 184.449 78.8155 187.095 79.4053L190.855 80.2433C193.995 80.9432 195.694 84.3567 194.358 87.2833L192.759 90.7878C191.633 93.2542 192.651 96.1694 195.068 97.3988L198.501 99.1455C201.368 100.604 202.164 104.333 200.143 106.835L197.723 109.832C196.019 111.941 196.28 115.018 198.315 116.81L201.206 119.355C203.62 121.481 203.464 125.291 200.884 127.212L197.794 129.513C195.62 131.132 195.108 134.177 196.633 136.418L198.8 139.603C200.61 142.262 199.511 145.914 196.534 147.133L192.969 148.593C190.461 149.62 189.207 152.442 190.127 154.992L191.434 158.616C192.526 161.642 190.553 164.905 187.367 165.346L183.551 165.873C180.866 166.244 178.95 168.666 179.206 171.365L179.571 175.2C179.876 178.402 177.154 181.073 173.958 180.707L170.131 180.269C167.438 179.96 164.98 181.83 164.557 184.508L163.957 188.313C163.456 191.49 160.155 193.4 157.151 192.251L153.553 190.875C151.021 189.906 148.175 191.105 147.1 193.594L145.572 197.13C144.296 200.083 140.625 201.112 138 199.252L134.858 197.024C132.646 195.457 129.591 195.91 127.931 198.054L125.572 201.099C123.602 203.642 119.79 203.725 117.711 201.271L115.221 198.332C113.468 196.263 110.397 195.943 108.256 197.606L105.213 199.969C102.673 201.942 98.9598 201.075 97.5562 198.18L95.8753 194.714C94.6924 192.275 91.7971 191.201 89.3096 192.279L85.7753 193.811C82.8237 195.091 79.4432 193.327 78.8034 190.175L78.0374 186.4C77.4983 183.743 74.9609 181.983 72.2835 182.408L68.4792 183.013C65.3022 183.518 62.4664 180.97 62.6308 177.757L62.8276 173.91C62.9662 171.203 60.9463 168.867 58.2471 168.613L54.4119 168.253C51.209 167.952 49.0962 164.779 50.0544 161.708L51.2017 158.03C52.0093 155.442 50.6337 152.678 48.0823 151.761L44.4572 150.458C41.4298 149.37 40.1726 145.771 41.8644 143.035L43.8902 139.758C45.316 137.452 44.6712 134.433 42.428 132.91L39.2407 130.747C36.579 128.94 36.2564 125.141 38.5755 122.912L41.3525 120.242C43.3069 118.363 43.4334 115.278 41.6393 113.245L39.0901 110.357C36.9613 107.946 37.5936 104.186 40.3943 102.603L43.748 100.708C46.1083 99.374 46.9981 96.417 45.7658 94.0022L44.0149 90.571C42.5527 87.7056 44.1003 84.221 47.2066 83.3846L50.9262 82.383C53.544 81.6781 55.1412 79.0353 54.5482 76.3898L53.7057 72.631C53.002 69.492 55.3675 66.5018 58.5842 66.4641L62.436 66.4191C65.147 66.3873 67.3512 64.2247 67.4348 61.5149L67.5534 57.6647C67.6525 54.4493 70.6874 52.1413 73.8124 52.9048L77.5544 53.819C80.188 54.4625 82.8609 52.916 83.6157 50.3121L84.6881 46.6123Z" fill="#FCEA2B" stroke="black" stroke-width="1.7898" mask="url(#path-2-inside-2_1_6391)"/>
<circle cx="119.865" cy="119.956" r="69.5176" transform="rotate(-22.8527 119.865 119.956)" fill="#2C2C2C" stroke="black" stroke-width="0.894899"/>
<circle cx="119.865" cy="119.956" r="44.2157" transform="rotate(-22.8527 119.865 119.956)" fill="#FFEA01" stroke="black" stroke-width="0.894899"/>
<path d="M151.658 108.917C154.411 116.846 154.102 125.517 150.792 133.23C147.482 140.942 141.409 147.14 133.766 150.606C126.122 154.073 117.459 154.559 109.476 151.968C101.493 149.377 94.7662 143.897 90.615 136.602" stroke="black" stroke-width="0.894899"/>
<ellipse cx="150.909" cy="108.09" rx="6.86872" ry="5.43829" transform="rotate(-22.8527 150.909 108.09)" fill="#FFEA01"/>
<path fill-rule="evenodd" clip-rule="evenodd" d="M144.725 110.585C146.37 113.108 149.861 114.091 153.011 112.764C156.16 111.437 157.894 108.252 157.237 105.312L157.789 105.079C158.557 108.296 156.67 111.805 153.219 113.259C149.768 114.713 145.939 113.613 144.173 110.818L144.725 110.585Z" fill="black"/>
<path fill-rule="evenodd" clip-rule="evenodd" d="M110.073 130.099C113.794 128.53 114.48 121.729 111.605 114.906C108.73 108.084 103.382 103.825 99.6609 105.393C96.8455 106.58 95.7676 110.762 96.6549 115.683L102.513 120.121L98.654 121.747C101.62 127.883 106.568 131.576 110.073 130.099Z" fill="#000B1F"/>
<path fill-rule="evenodd" clip-rule="evenodd" d="M134.062 119.988C137.783 118.42 138.469 111.618 135.594 104.796C132.719 97.9738 127.371 93.7146 123.65 95.2829C120.835 96.4694 119.757 100.652 120.644 105.572L126.502 110.01L122.643 111.636C125.609 117.772 130.557 121.466 134.062 119.988Z" fill="#000B1F"/>
<path d="M72.3779 133.863L71.8446 128.548L68.1383 128.92L66.0644 126.906L71.1887 122.011L70.541 115.555L62.6216 123.549L55.964 117.059L56.6342 123.739L62.595 129.435L62.5991 129.476L57.2636 130.011L57.7969 135.326L72.3779 133.863Z" fill="white"/>
<path d="M70.8787 115.974L74.6264 100.772L71.4072 99.9783L68.8989 110.153L66.2559 109.501L68.5192 100.32L65.7571 99.6394L63.4937 108.82L61.1091 108.232L63.5684 98.2566L60.3491 97.463L56.6504 112.466L70.8787 115.974Z" fill="white"/>
<path d="M75.244 98.8058L83.8564 85.7301L81.0874 83.9063L75.3233 92.6576L73.05 91.1603L78.2512 83.2636L75.8754 81.6988L70.6742 89.5955L68.6231 88.2445L74.2746 79.6641L71.5056 77.8403L63.0059 90.7451L75.244 98.8058Z" fill="white"/>
<path d="M85.5592 84.6929L89.7594 81.3923L86.99 77.868L92.0432 73.8973C95.3261 71.3175 96.0444 68.4885 94.0625 65.9332C92.0139 63.3261 89.0573 63.3068 85.7904 65.8738L76.5049 73.1704L85.5592 84.6929ZM85.1311 75.5024L82.564 72.2355L86.2493 69.3397C87.7137 68.1889 88.9736 68.1359 89.7956 69.182C90.6302 70.2441 90.2808 71.4557 88.8164 72.6065L85.1311 75.5024Z" fill="white"/>
<path d="M110.375 73.0434C115.643 71.9343 118.621 69.1946 117.977 66.2347C117.429 63.6311 115.068 62.7479 110.116 63.2677L107.393 63.5482C105.513 63.7559 104.64 63.5842 104.526 63.0434C104.386 62.2781 105.786 61.4812 107.825 61.031C110.024 60.5471 112.526 60.7104 114.308 61.4229L115.137 58.1109C113.134 57.3404 110.139 57.2183 107.115 57.855C102.007 58.9304 98.8895 61.4066 99.539 64.4909C100.075 67.0344 102.283 67.8871 106.91 67.4147L109.617 67.1584C111.851 66.9391 112.852 67.1256 112.983 67.7465C113.139 68.4875 111.959 69.2381 109.936 69.664C107.192 70.2417 103.885 69.9341 101.945 68.9623L100.796 72.4461C103.03 73.5233 106.931 73.7688 110.375 73.0434Z" fill="#FCEA2B"/>
<path d="M118.613 70.2043L123.531 71.2828L125.499 62.3065L125.539 62.3152L128.209 72.3087L132.667 73.2864L139.114 65.2921L139.154 65.3009L137.185 74.2772L142.103 75.3557L145.242 61.0416L138.405 59.5422L131.376 68.1841L131.336 68.1753L128.509 57.372L121.752 55.8901L118.613 70.2043Z" fill="#FCEA2B"/>
<path d="M142.092 76.9182L146.675 79.5814L154.037 66.9107L149.454 64.2476L142.092 76.9182Z" fill="#FCEA2B"/>
<path d="M148.088 80.4409L158.591 90.0637L161.232 87.1813L154.668 81.1671L161.926 73.2443L157.987 69.6357L148.088 80.4409Z" fill="#FCEA2B"/>
<path d="M159.485 90.9787L166.942 104.746L169.858 103.167L164.866 93.9526L167.26 92.6561L171.764 100.97L174.265 99.6153L169.761 91.3011L171.921 90.1313L176.815 99.1654L179.73 97.5862L172.37 83.999L159.485 90.9787Z" fill="#FCEA2B"/>
<path d="M167.566 107.839L169.189 123.411L172.487 123.068L171.401 112.645L174.108 112.363L175.088 121.768L177.918 121.473L176.938 112.068L179.38 111.814L180.445 122.033L183.743 121.689L182.142 106.32L167.566 107.839Z" fill="white"/>
<path d="M167.882 129.251L166.404 135.062L178.815 145.716L180.182 140.341L171.499 133.296L171.509 133.257L182.508 131.197L183.87 125.841L167.882 129.251Z" fill="white"/>
<path d="M164.374 141.534L155.545 154.464L158.284 156.334L164.193 147.68L166.441 149.215L161.109 157.024L163.458 158.628L168.79 150.819L170.818 152.204L165.025 160.689L167.763 162.559L176.477 149.797L164.374 141.534Z" fill="white"/>
<path d="M142.494 163.497C141.393 164.279 140.375 165.604 140.127 166.633L142.105 167.864C142.139 167.489 142.433 167.054 142.717 166.853C143.185 166.521 143.61 166.52 144.041 166.666L145.804 167.347C146.396 167.58 146.988 167.636 147.495 167.502L147.507 167.519C145.617 169.488 145.237 171.64 146.504 173.426C148.21 175.829 151.029 175.912 154.234 173.637L164.281 166.506L155.799 154.556L151.443 157.647L154.263 161.62L151.709 163.432C150.925 163.989 149.953 164.176 148.955 163.831L147.316 163.112C145.932 162.613 144.297 162.218 142.494 163.497ZM156.004 164.073L158.101 167.027L153.711 170.143C152.46 171.031 151.334 171.002 150.671 170.067C150.019 169.149 150.363 168.077 151.615 167.189L156.004 164.073Z" fill="white"/>
<path d="M134.067 166.967L128.876 168.228L130.055 173.081L125.515 184.126L131.044 182.782L133.442 175.838L133.462 175.834L138.979 180.854L144.448 179.525L135.246 171.82L134.067 166.967Z" fill="white"/>
<path d="M122.569 169.866L112.255 168.394C106.623 167.591 103.112 169.736 102.447 174.397C101.782 179.057 104.553 182.098 110.186 182.902L120.499 184.373L122.569 169.866ZM116.91 172.718L115.861 180.073L111.424 179.44C108.628 179.041 107.238 177.478 107.573 175.128C107.909 172.778 109.677 171.686 112.473 172.085L116.91 172.718Z" fill="white"/>
<path d="M104.39 167.614L99.6218 164.82L97.3572 166.459L91.053 162.765L91.3575 159.978L86.5719 157.174L85.3266 173.429L90.6772 176.564L104.39 167.614ZM94.9357 168.527L89.7472 172.2L89.7119 172.179L90.415 165.878L94.9357 168.527Z" fill="white"/>
<path d="M83.197 152.367L79.9123 148.155L75.9741 151.226L64.0392 151.63L67.5379 156.117L74.8538 155.447L74.8664 155.463L72.5595 162.557L76.0205 166.995L79.2589 155.438L83.197 152.367Z" fill="white"/>
<path d="M75.7674 140.223C75.1338 138.802 73.7968 138.166 72.5818 138.708C71.3481 139.258 70.9468 140.669 71.5803 142.09C72.2139 143.511 73.5239 144.137 74.7576 143.586C75.9726 143.044 76.401 141.643 75.7674 140.223Z" fill="white"/>
</svg>
