<svg width="112" height="112" viewBox="0 0 112 112" fill="none" xmlns="http://www.w3.org/2000/svg">
<path d="M93.7501 17.9457C72.9452 -3.12812 39.0196 -3.33943 17.9457 17.4655C-3.12812 38.2512 -3.33943 72.196 17.4655 93.2506C38.2704 114.305 72.196 114.536 93.2506 93.7309C114.324 72.9452 114.536 39.0196 93.7501 17.9457ZM70.8513 60.4392C68.181 68.8534 59.1905 73.5215 50.7764 70.8513C42.343 68.181 37.6941 59.1905 40.3643 50.7764C43.0346 42.3622 52.025 37.6941 60.4584 40.3643C68.8534 43.0346 73.5215 52.025 70.8513 60.4392Z" fill="#E8E8E8" stroke="#2E2E2E" stroke-width="4" stroke-miterlimit="10"/>
<path d="M61.0618 38.4576L61.0643 38.4584C70.5103 41.4629 75.7618 51.5765 72.7572 61.0442C69.7536 70.5089 59.6408 75.762 50.1723 72.7579L61.0618 38.4576ZM61.0618 38.4576C51.5762 35.4542 41.462 40.7045 38.4577 50.1714C35.4536 59.6374 40.6839 69.7533 50.1717 72.7578L61.0618 38.4576ZM23.5379 87.2547L23.5371 87.254C6.04402 69.5402 6.22866 41.0117 23.9413 23.5382C41.6553 6.06328 70.1849 6.24794 87.6586 23.9423C105.152 41.6562 104.967 70.1847 87.2544 87.6581L87.2537 87.6589C69.5399 105.152 41.0114 104.967 23.5379 87.2547ZM50.2609 60.861L50.2573 60.8573C47.3485 57.9182 47.3758 53.1539 50.3175 50.2404C53.2783 47.3269 58.0238 47.3594 60.935 50.2971C63.8542 53.2813 63.8147 58.0306 60.8762 60.9387C57.9371 63.8475 53.1741 63.8197 50.2609 60.861Z" fill="#E8E8E8" stroke="#2E2E2E" stroke-width="4"/>
<path d="M22.537 22.1144C17.1773 27.3972 13.412 33.6598 11.126 40.3259L37.8093 49.4892C38.7122 46.819 40.2298 44.3216 42.3621 42.2085C44.5137 40.0953 47.0303 38.6161 49.7005 37.7325L40.9021 10.9339C34.2169 13.1431 27.8967 16.8315 22.537 22.1144Z" fill="#F9385B"/>
<path d="M88.6593 89.082C94.019 83.7991 97.7843 77.5365 100.07 70.8705L73.387 61.7071C72.4841 64.3773 70.9665 66.8747 68.8149 68.9878C66.6826 71.101 64.1468 72.5802 61.4766 73.4639L70.2942 100.262C76.9794 98.0532 83.2996 94.3648 88.6593 89.082Z" fill="#F9385B"/>
<path d="M61.2843 37.6556C61.8798 37.8477 62.4561 38.059 63.0324 38.3088L74.1745 12.3747C72.7721 11.7599 71.3121 11.222 69.8137 10.7418C68.3345 10.2807 66.8169 9.87731 65.3185 9.56995L59.4785 37.1946C60.0932 37.3098 60.6888 37.4635 61.2843 37.6556Z" fill="#F9385B"/>
</svg>
