<svg width="24" height="154" viewBox="0 0 24 154" fill="none" xmlns="http://www.w3.org/2000/svg">
<path fill-rule="evenodd" clip-rule="evenodd" d="M23.1653 99.6008C23.1653 93.6922 18.1902 88.9014 12.0543 88.9014C5.9185 88.9014 0.943359 93.6922 0.943359 99.6008C0.943359 104.941 5.00581 109.367 10.3182 110.171L10.3182 102.695H7.49636V99.6008H10.3182V97.2436C10.3182 94.5625 11.9775 93.0804 14.5151 93.0804C15.7309 93.0804 17.0027 93.2896 17.0027 93.2896V95.9229H15.6009C14.2215 95.9229 13.7899 96.7473 13.7899 97.5947V99.6008H16.8712L16.3792 102.695H13.7904L13.7904 110.172C19.1029 109.369 23.1653 104.942 23.1653 99.6008Z" fill="#2E2E2E"/>
<path d="M16.7482 133.863C17.975 133.866 19.1505 134.337 20.018 135.172C20.8855 136.008 21.3744 137.14 21.3781 138.321L21.3781 147.237C21.3744 148.418 20.8855 149.55 20.018 150.386C19.1505 151.221 17.975 151.692 16.7482 151.695H7.48938C6.26258 151.692 5.08707 151.221 4.21959 150.386C3.35211 149.55 2.86314 148.418 2.85948 147.237L2.85948 138.321C2.86314 137.14 3.35211 136.008 4.21959 135.172C5.08707 134.337 6.26258 133.866 7.48938 133.863H16.7482ZM16.7482 132.08H7.48938C3.92444 132.08 1.00781 134.888 1.00781 138.321L1.00781 147.237C1.00781 150.67 3.92444 153.479 7.48938 153.479H16.7482C20.3131 153.479 23.2298 150.67 23.2298 147.237L23.2298 138.321C23.2298 134.888 20.3131 132.08 16.7482 132.08Z" fill="#2E2E2E"/>
<path d="M18.1372 138.321C17.8626 138.321 17.594 138.243 17.3656 138.096C17.1372 137.949 16.9592 137.74 16.8541 137.496C16.749 137.251 16.7215 136.982 16.7751 136.723C16.8287 136.464 16.9609 136.225 17.1552 136.038C17.3494 135.851 17.5969 135.724 17.8663 135.672C18.1357 135.621 18.415 135.647 18.6687 135.748C18.9225 135.85 19.1394 136.021 19.2921 136.241C19.4447 136.461 19.5261 136.719 19.5261 136.984C19.5265 137.16 19.4909 137.334 19.4212 137.496C19.3515 137.659 19.2492 137.806 19.1202 137.93C18.9912 138.055 18.8379 138.153 18.6692 138.22C18.5005 138.287 18.3197 138.322 18.1372 138.321ZM12.119 139.213C12.8515 139.213 13.5676 139.422 14.1767 139.814C14.7858 140.206 15.2605 140.763 15.5409 141.414C15.8212 142.066 15.8945 142.783 15.7516 143.475C15.6087 144.167 15.256 144.802 14.738 145.301C14.22 145.8 13.56 146.14 12.8415 146.277C12.1231 146.415 11.3784 146.344 10.7016 146.074C10.0248 145.805 9.44633 145.347 9.03935 144.761C8.63237 144.174 8.41514 143.485 8.41514 142.779C8.41619 141.834 8.80675 140.927 9.50113 140.258C10.1955 139.59 11.137 139.214 12.119 139.213ZM12.119 137.43C11.0202 137.43 9.9461 137.743 9.0325 138.331C8.11891 138.919 7.40685 139.755 6.98637 140.732C6.56588 141.71 6.45587 142.785 6.67023 143.823C6.88459 144.861 7.41369 145.814 8.19064 146.562C8.96759 147.31 9.95749 147.82 11.0351 148.026C12.1128 148.233 13.2298 148.127 14.245 147.722C15.2601 147.317 16.1277 146.631 16.7382 145.751C17.3486 144.872 17.6745 143.837 17.6745 142.779C17.6745 141.36 17.0891 140 16.0473 138.996C15.0054 137.993 13.5924 137.43 12.119 137.43Z" fill="#2E2E2E"/>
<path d="M23.9997 48.2335C23.1066 48.6216 22.1616 48.8772 21.1946 48.9924C22.2108 48.3974 22.975 47.452 23.3439 46.3337C22.3832 46.8955 21.3338 47.2897 20.2408 47.4994C19.7805 47.017 19.227 46.6333 18.6138 46.3715C18.0006 46.1097 17.3406 45.9753 16.6739 45.9766C13.9745 45.9766 11.79 48.1293 11.79 50.7831C11.7881 51.1522 11.8304 51.5202 11.916 51.8793C9.98034 51.7885 8.08494 51.2948 6.35106 50.4295C4.61718 49.5643 3.083 48.3467 1.84666 46.8545C1.41292 47.5857 1.18354 48.42 1.18248 49.2702C1.18248 50.9368 2.05201 52.41 3.36499 53.2731C2.58709 53.2546 1.82513 53.0488 1.14379 52.6729V52.7324C1.14379 55.0638 2.83028 57.0032 5.06239 57.4447C4.64265 57.5566 4.21011 57.6133 3.7757 57.6133C3.46746 57.6139 3.15992 57.584 2.85756 57.524C3.47809 59.4337 5.28412 60.8226 7.42348 60.8623C5.6851 62.202 3.55081 62.9261 1.35609 62.9208C0.96652 62.9202 0.577313 62.897 0.19043 62.8514C2.42313 64.2771 5.01847 65.0312 7.66752 65.024C16.6634 65.024 21.5781 57.6977 21.5781 51.3436C21.5781 51.1352 21.5726 50.9269 21.5627 50.7235C22.5166 50.045 23.3418 49.2018 23.9997 48.2335Z" fill="#2E2E2E"/>
<path d="M11.5565 0C5.32184 0 0.266602 5.05298 0.266602 11.2848C0.266602 15.9045 3.04875 19.8744 7.0254 21.6225C6.99516 20.8366 7.02036 19.8895 7.22196 19.0331C7.43869 18.1162 8.67352 12.8818 8.67352 12.8818C8.67352 12.8818 8.31063 12.1614 8.31063 11.0984C8.31063 9.42585 9.27833 8.17646 10.488 8.17646C11.5161 8.17646 12.0101 8.94725 12.0101 9.86918C12.0101 10.9019 11.3498 12.4435 11.0121 13.8743C10.7299 15.0733 11.6119 16.0456 12.7963 16.0456C14.9333 16.0456 16.3748 13.3 16.3748 10.0455C16.3748 7.57191 14.7065 5.72302 11.6774 5.72302C8.25519 5.72302 6.11818 8.27722 6.11818 11.1286C6.11818 12.111 6.4105 12.8063 6.86411 13.3403C7.07076 13.5871 7.101 13.6879 7.0254 13.97C6.96996 14.1766 6.84899 14.6753 6.79355 14.8768C6.71795 15.164 6.48611 15.2647 6.22906 15.1589C4.6515 14.5141 3.91565 12.7911 3.91565 10.8465C3.91565 7.64245 6.62219 3.79855 11.9849 3.79855C16.2942 3.79855 19.1318 6.91699 19.1318 10.2621C19.1318 14.6904 16.6671 17.9953 13.0383 17.9953C11.8186 17.9953 10.6744 17.3353 10.2813 16.5897C10.2813 16.5897 9.6261 19.1892 9.48498 19.693C9.24809 20.5646 8.77936 21.4311 8.35095 22.1112C9.39016 22.4176 10.4679 22.5737 11.5514 22.5747C17.786 22.5747 22.8413 17.5217 22.8413 11.2899C22.8413 5.05802 17.7911 0 11.5565 0Z" fill="#2E2E2E"/>
</svg>
